G04*
G04 #@! TF.GenerationSoftware,Altium Limited,Altium Designer,22.7.1 (60)*
G04*
G04 Layer_Color=255*
%FSLAX44Y44*%
%MOMM*%
G71*
G04*
G04 #@! TF.SameCoordinates,186F2EC3-0C17-4490-BAB8-18F5E94287E0*
G04*
G04*
G04 #@! TF.FilePolarity,Positive*
G04*
G01*
G75*
%ADD43R,0.8000X1.0000*%
%ADD44R,1.0000X0.8000*%
%ADD45R,2.1000X1.2000*%
%ADD107C,1.5000*%
%ADD108C,1.1000*%
%ADD109O,2.4000X1.0000*%
%ADD110O,1.8000X1.0000*%
%ADD111C,5.0000*%
%ADD112R,1.5748X1.5748*%
%ADD113C,1.5748*%
%ADD116R,1.6000X1.4000*%
%ADD117R,0.7000X1.8000*%
%ADD118R,1.2000X1.4000*%
%ADD119R,1.2000X2.2000*%
G04:AMPARAMS|DCode=120|XSize=5mm|YSize=3mm|CornerRadius=0mm|HoleSize=0mm|Usage=FLASHONLY|Rotation=0.000|XOffset=0mm|YOffset=0mm|HoleType=Round|Shape=Octagon|*
%AMOCTAGOND120*
4,1,8,2.5000,-0.7500,2.5000,0.7500,1.7500,1.5000,-1.7500,1.5000,-2.5000,0.7500,-2.5000,-0.7500,-1.7500,-1.5000,1.7500,-1.5000,2.5000,-0.7500,0.0*
%
%ADD120OCTAGOND120*%

%ADD121O,5.0000X3.0000*%
%ADD122R,0.9500X0.9500*%
%ADD123R,0.5500X1.0000*%
%ADD124O,1.2000X0.3000*%
%ADD125R,0.5000X0.5500*%
G54D43*
X520700Y-29210D02*
D03*
X505460D02*
D03*
X520700Y-74930D02*
D03*
X505460D02*
D03*
X520700Y-195072D02*
D03*
X505460D02*
D03*
X520700Y-209842D02*
D03*
X505460D02*
D03*
X162560Y-269240D02*
D03*
X147320D02*
D03*
X520700Y-150876D02*
D03*
X505460D02*
D03*
X520700Y-44412D02*
D03*
X505460D02*
D03*
X520700Y-59690D02*
D03*
X505460D02*
D03*
X198120Y-97790D02*
D03*
X213360D02*
D03*
X144780Y-124498D02*
D03*
X129540D02*
D03*
X240030Y-149860D02*
D03*
X224790D02*
D03*
Y-205702D02*
D03*
X240030D02*
D03*
X90170Y-67310D02*
D03*
X74930D02*
D03*
X58420Y-129540D02*
D03*
X73660D02*
D03*
X118110Y-269240D02*
D03*
X133350D02*
D03*
X120650Y-97790D02*
D03*
X135890D02*
D03*
X151130Y-97752D02*
D03*
X166370D02*
D03*
X129540Y-139662D02*
D03*
X144780D02*
D03*
X129540Y-154940D02*
D03*
X144780D02*
D03*
X116840Y-172720D02*
D03*
X132080D02*
D03*
X116840Y-187960D02*
D03*
X132080D02*
D03*
X200660Y-171488D02*
D03*
X185420D02*
D03*
X200660Y-186690D02*
D03*
X185420D02*
D03*
X147320Y-254038D02*
D03*
X162560D02*
D03*
X118110D02*
D03*
X133350D02*
D03*
X37084Y-295148D02*
D03*
X52324D02*
D03*
X505460Y-165608D02*
D03*
X520700D02*
D03*
X505460Y-180340D02*
D03*
X520700D02*
D03*
G54D44*
X261620Y-267780D02*
D03*
Y-252540D02*
D03*
X276860Y-267780D02*
D03*
Y-252540D02*
D03*
X228600Y-267970D02*
D03*
Y-252730D02*
D03*
X243840Y-267970D02*
D03*
Y-252730D02*
D03*
X42964Y-279908D02*
D03*
Y-264668D02*
D03*
X25870Y-264414D02*
D03*
Y-279654D02*
D03*
X115570Y-125730D02*
D03*
Y-140970D02*
D03*
X88900Y-113030D02*
D03*
Y-128270D02*
D03*
X213398Y-81280D02*
D03*
Y-66040D02*
D03*
X287020Y-145542D02*
D03*
Y-160782D02*
D03*
X198120Y-81280D02*
D03*
Y-66040D02*
D03*
X182880Y-81280D02*
D03*
Y-66040D02*
D03*
X166332Y-81280D02*
D03*
Y-66040D02*
D03*
X151130D02*
D03*
Y-81280D02*
D03*
X135852D02*
D03*
Y-66040D02*
D03*
X120688D02*
D03*
Y-81280D02*
D03*
X105410Y-66040D02*
D03*
Y-81280D02*
D03*
X88862Y-83820D02*
D03*
Y-99060D02*
D03*
X26670Y-129540D02*
D03*
Y-144780D02*
D03*
X44488D02*
D03*
Y-129540D02*
D03*
X189268Y-139700D02*
D03*
Y-154940D02*
D03*
X174028Y-139700D02*
D03*
Y-154940D02*
D03*
X158788Y-139700D02*
D03*
Y-154940D02*
D03*
X149860Y-199390D02*
D03*
Y-184150D02*
D03*
X166370Y-199390D02*
D03*
Y-184150D02*
D03*
X118148Y-220980D02*
D03*
Y-236220D02*
D03*
X134620Y-220980D02*
D03*
Y-236220D02*
D03*
X176530Y-220980D02*
D03*
Y-236220D02*
D03*
X93980Y-256540D02*
D03*
Y-271780D02*
D03*
G54D45*
X33020Y-107890D02*
D03*
Y-87690D02*
D03*
G54D107*
X361188Y-257810D02*
D03*
G54D108*
X436188D02*
D03*
G54D109*
X482860Y-223550D02*
D03*
Y-137150D02*
D03*
Y-100550D02*
D03*
Y-14150D02*
D03*
G54D110*
X524660Y-223550D02*
D03*
Y-137150D02*
D03*
Y-100550D02*
D03*
Y-14150D02*
D03*
G54D111*
X30000Y-30000D02*
D03*
X520000Y-310000D02*
D03*
G54D112*
X88900Y-17780D02*
D03*
X266700Y-322580D02*
D03*
G54D113*
X88900Y-43180D02*
D03*
X114300Y-17780D02*
D03*
Y-43180D02*
D03*
X139700Y-17780D02*
D03*
X139700Y-43180D02*
D03*
X165100Y-17780D02*
D03*
Y-43180D02*
D03*
X190500Y-17780D02*
D03*
Y-43180D02*
D03*
X215900Y-17780D02*
D03*
Y-43180D02*
D03*
X241300Y-17780D02*
D03*
Y-43180D02*
D03*
X266700Y-17780D02*
D03*
X266700Y-43180D02*
D03*
X88900Y-297180D02*
D03*
X88900Y-322580D02*
D03*
X114300Y-297180D02*
D03*
Y-322580D02*
D03*
X139700Y-297180D02*
D03*
Y-322580D02*
D03*
X165100Y-297180D02*
D03*
Y-322580D02*
D03*
X190500Y-297180D02*
D03*
Y-322580D02*
D03*
X215900Y-297180D02*
D03*
X215900Y-322580D02*
D03*
X241300Y-297180D02*
D03*
Y-322580D02*
D03*
X266700Y-297180D02*
D03*
G54D116*
X458954Y-154444D02*
D03*
G54D117*
X323454Y-163194D02*
D03*
X334454Y-163194D02*
D03*
X345454Y-163194D02*
D03*
X367454Y-163194D02*
D03*
X389454Y-163194D02*
D03*
X400454Y-163194D02*
D03*
X411454Y-163194D02*
D03*
X356454Y-163194D02*
D03*
X378454D02*
D03*
G54D118*
X309954Y-154444D02*
D03*
G54D119*
Y-62944D02*
D03*
X467954D02*
D03*
G54D120*
X317408Y-257810D02*
D03*
G54D121*
X479968D02*
D03*
G54D122*
X232410Y-189550D02*
D03*
X241910Y-166050D02*
D03*
X222910Y-166050D02*
D03*
G54D123*
X54660Y-113030D02*
D03*
X64160Y-113030D02*
D03*
X73660Y-113030D02*
D03*
Y-87030D02*
D03*
X64160Y-87030D02*
D03*
X54660Y-87030D02*
D03*
G54D124*
X63632Y-308516D02*
D03*
X16632D02*
D03*
X63632Y-328516D02*
D03*
Y-323516D02*
D03*
Y-318516D02*
D03*
X63632Y-313516D02*
D03*
X16632Y-313516D02*
D03*
Y-318516D02*
D03*
Y-323516D02*
D03*
Y-328516D02*
D03*
G54D125*
X11430Y-104140D02*
D03*
Y-88140D02*
D03*
M02*
