G04*
G04 #@! TF.GenerationSoftware,Altium Limited,Altium Designer,22.7.1 (60)*
G04*
G04 Layer_Physical_Order=4*
G04 Layer_Color=16711680*
%FSLAX44Y44*%
%MOMM*%
G71*
G04*
G04 #@! TF.SameCoordinates,186F2EC3-0C17-4490-BAB8-18F5E94287E0*
G04*
G04*
G04 #@! TF.FilePolarity,Positive*
G04*
G01*
G75*
%ADD10C,0.2540*%
%ADD12C,0.2032*%
%ADD15C,0.1524*%
%ADD43R,0.8000X1.0000*%
%ADD44R,1.0000X0.8000*%
%ADD45R,2.1000X1.2000*%
%ADD100C,1.0160*%
%ADD101C,0.6350*%
%ADD103C,0.3810*%
%ADD105C,0.5080*%
%ADD107C,1.5000*%
%ADD108C,1.1000*%
%ADD109O,2.4000X1.0000*%
%ADD110O,1.8000X1.0000*%
%ADD111C,5.0000*%
%ADD112R,1.5748X1.5748*%
%ADD113C,1.5748*%
%ADD114C,0.6000*%
%ADD116R,1.6000X1.4000*%
%ADD117R,0.7000X1.8000*%
%ADD118R,1.2000X1.4000*%
%ADD119R,1.2000X2.2000*%
G04:AMPARAMS|DCode=120|XSize=5mm|YSize=3mm|CornerRadius=0mm|HoleSize=0mm|Usage=FLASHONLY|Rotation=0.000|XOffset=0mm|YOffset=0mm|HoleType=Round|Shape=Octagon|*
%AMOCTAGOND120*
4,1,8,2.5000,-0.7500,2.5000,0.7500,1.7500,1.5000,-1.7500,1.5000,-2.5000,0.7500,-2.5000,-0.7500,-1.7500,-1.5000,1.7500,-1.5000,2.5000,-0.7500,0.0*
%
%ADD120OCTAGOND120*%

%ADD121O,5.0000X3.0000*%
%ADD122R,0.9500X0.9500*%
%ADD123R,0.5500X1.0000*%
%ADD124O,1.2000X0.3000*%
%ADD125R,0.5000X0.5500*%
G36*
X539927Y-2914D02*
X542372Y-3926D01*
X544471Y-5537D01*
X546082Y-7636D01*
X547094Y-10081D01*
X547436Y-12676D01*
X547431Y-12704D01*
X547430Y-209365D01*
X546161Y-209796D01*
X545476Y-208904D01*
X545476Y-208904D01*
X545222Y-208650D01*
X543843Y-207591D01*
X542236Y-206926D01*
X540512Y-206699D01*
X538788Y-206926D01*
X537182Y-207591D01*
X535802Y-208650D01*
X534743Y-210030D01*
X534078Y-211636D01*
X533851Y-213360D01*
X534078Y-215084D01*
X534105Y-215149D01*
Y-216623D01*
X532835Y-217250D01*
X532463Y-216964D01*
X530628Y-216204D01*
X528660Y-215945D01*
X525930D01*
Y-223550D01*
Y-231155D01*
X528660D01*
X530628Y-230896D01*
X532463Y-230136D01*
X532653Y-229990D01*
X534008Y-230551D01*
X534078Y-231086D01*
X534743Y-232693D01*
X535802Y-234072D01*
X537182Y-235131D01*
X538788Y-235796D01*
X540512Y-236023D01*
X542236Y-235796D01*
X543843Y-235131D01*
X545222Y-234072D01*
X546161Y-232849D01*
X546718Y-232886D01*
X547430Y-233202D01*
Y-289905D01*
X546161Y-290373D01*
X543151Y-286849D01*
X539244Y-283513D01*
X534864Y-280828D01*
X530117Y-278862D01*
X525122Y-277663D01*
X520000Y-277260D01*
X514878Y-277663D01*
X509883Y-278862D01*
X505136Y-280828D01*
X500756Y-283513D01*
X496849Y-286849D01*
X493513Y-290756D01*
X490829Y-295136D01*
X488862Y-299883D01*
X487663Y-304878D01*
X487260Y-310000D01*
X487663Y-315122D01*
X488862Y-320117D01*
X490829Y-324864D01*
X493513Y-329244D01*
X496849Y-333151D01*
X500369Y-336157D01*
X499900Y-337427D01*
X430770D01*
X430244Y-336157D01*
X431098Y-335303D01*
X431787Y-333640D01*
Y-331840D01*
X431098Y-330177D01*
X430485Y-329564D01*
X431011Y-328294D01*
X472948D01*
X474114Y-327810D01*
X475384Y-326540D01*
X475868Y-325374D01*
Y-291592D01*
X475384Y-290426D01*
X474876Y-289918D01*
X473710Y-289434D01*
X463296D01*
X462130Y-289918D01*
X460860Y-291188D01*
X460376Y-292354D01*
Y-305641D01*
X450929Y-315088D01*
X342313D01*
X324508Y-297284D01*
X323342Y-296800D01*
X310896D01*
X309730Y-297284D01*
X309246Y-298450D01*
Y-326644D01*
X309730Y-327810D01*
X312524Y-330604D01*
X313690Y-331088D01*
X337312D01*
X338478Y-330604D01*
X340789Y-328294D01*
X398750D01*
X399277Y-329564D01*
X398663Y-330177D01*
X397974Y-331840D01*
Y-333640D01*
X398663Y-335303D01*
X399517Y-336157D01*
X398991Y-337427D01*
X13964Y-337427D01*
X12704Y-337426D01*
X11496Y-337277D01*
X10081Y-337090D01*
X7636Y-336078D01*
X5537Y-334467D01*
X3926Y-332368D01*
X2914Y-329923D01*
X2729Y-328518D01*
X2578Y-327300D01*
X2578Y-327300D01*
X2577Y-326055D01*
Y-322673D01*
X3847Y-322147D01*
X6865Y-325164D01*
X7621Y-325669D01*
X7645Y-325674D01*
X8271Y-326837D01*
X8297Y-327086D01*
X8013Y-328516D01*
X8326Y-330092D01*
X9219Y-331429D01*
X10556Y-332322D01*
X12132Y-332635D01*
X21132D01*
X22708Y-332322D01*
X24006Y-331454D01*
X24486Y-331434D01*
X24635Y-331365D01*
X34273D01*
X34301Y-331385D01*
X34443Y-331365D01*
X34652D01*
X34858Y-331428D01*
X34978Y-331365D01*
X35495D01*
X35557Y-331406D01*
X35693Y-331378D01*
X35819Y-331435D01*
X36076Y-331443D01*
X36236Y-331459D01*
X36267Y-331464D01*
X36805Y-332763D01*
X38077Y-334035D01*
X39740Y-334724D01*
X41540D01*
X43203Y-334035D01*
X44475Y-332763D01*
X45164Y-331100D01*
Y-329300D01*
X44475Y-327637D01*
X43203Y-326365D01*
X41540Y-325676D01*
X39933D01*
Y-302859D01*
X40003Y-302701D01*
X40003Y-302688D01*
X43624D01*
Y-288843D01*
X58642D01*
X60307Y-290508D01*
X59803Y-291013D01*
X59114Y-292676D01*
Y-294476D01*
X59803Y-296139D01*
X61075Y-297411D01*
X62738Y-298100D01*
X64538D01*
X66200Y-297411D01*
X67473Y-296139D01*
X68162Y-294476D01*
Y-294335D01*
X69432Y-293742D01*
X70059Y-294226D01*
Y-308534D01*
X68789Y-309528D01*
X68132Y-309397D01*
X59132D01*
X58509Y-309521D01*
Y-309830D01*
X58487Y-309774D01*
X58420Y-309723D01*
X58310Y-309678D01*
X58155Y-309639D01*
X58022Y-309618D01*
X57556Y-309711D01*
X56219Y-310603D01*
X55326Y-311940D01*
X55013Y-313516D01*
X55326Y-315092D01*
X55944Y-316016D01*
X55326Y-316940D01*
X55013Y-318516D01*
X55326Y-320092D01*
X55944Y-321016D01*
X55326Y-321940D01*
X55013Y-323516D01*
X55326Y-325092D01*
X55944Y-326016D01*
X55326Y-326940D01*
X55013Y-328516D01*
X55326Y-330092D01*
X56219Y-331429D01*
X57556Y-332322D01*
X59132Y-332635D01*
X68132D01*
X69708Y-332322D01*
X71045Y-331429D01*
X71434Y-330847D01*
X80468D01*
X81360Y-330669D01*
X81748Y-330410D01*
X81936Y-330344D01*
X82506Y-330913D01*
X84880Y-332284D01*
X87529Y-332994D01*
X90271D01*
X92920Y-332284D01*
X95294Y-330913D01*
X97233Y-328974D01*
X98604Y-326600D01*
X99314Y-323951D01*
Y-321209D01*
X98604Y-318560D01*
X97233Y-316186D01*
X95294Y-314247D01*
X92920Y-312876D01*
X90271Y-312166D01*
X87529D01*
X84880Y-312876D01*
X82506Y-314247D01*
X81116Y-315637D01*
X79846Y-315111D01*
Y-309531D01*
X81455Y-307921D01*
X81602Y-307877D01*
X81870Y-307657D01*
X82134Y-307505D01*
X82535Y-307339D01*
X83072Y-307176D01*
X83736Y-307029D01*
X84489Y-306910D01*
X84882Y-306885D01*
X87529Y-307594D01*
X90271D01*
X92920Y-306884D01*
X95294Y-305513D01*
X97233Y-303574D01*
X98604Y-301200D01*
X99314Y-298551D01*
Y-295809D01*
X98604Y-293160D01*
X97233Y-290786D01*
X95294Y-288847D01*
X92920Y-287476D01*
X90271Y-286766D01*
X87529D01*
X84880Y-287476D01*
X82506Y-288847D01*
X80567Y-290786D01*
X79196Y-293160D01*
X78486Y-295809D01*
Y-298551D01*
X79196Y-301200D01*
X79203Y-301212D01*
X79172Y-301575D01*
X79051Y-302344D01*
X78904Y-303008D01*
X78741Y-303544D01*
X78575Y-303946D01*
X78423Y-304210D01*
X78203Y-304478D01*
X78158Y-304625D01*
X75991Y-306793D01*
X75474Y-306722D01*
X74721Y-306346D01*
Y-292856D01*
X74543Y-291964D01*
X74038Y-291208D01*
X67111Y-284281D01*
X67637Y-283011D01*
X72750D01*
X72907Y-283081D01*
X73164Y-283088D01*
X73353Y-283104D01*
X73519Y-283129D01*
X73661Y-283161D01*
X73781Y-283198D01*
X73882Y-283238D01*
X73965Y-283279D01*
X74035Y-283323D01*
X74094Y-283368D01*
X74206Y-283472D01*
X74485Y-283575D01*
X74907Y-283997D01*
X76570Y-284686D01*
X78370D01*
X80033Y-283997D01*
X81305Y-282725D01*
X81994Y-281062D01*
Y-279262D01*
X81305Y-277599D01*
X80033Y-276327D01*
X78370Y-275638D01*
X76570D01*
X74907Y-276327D01*
X74485Y-276749D01*
X74206Y-276852D01*
X74094Y-276956D01*
X74035Y-277001D01*
X73965Y-277045D01*
X73882Y-277087D01*
X73781Y-277126D01*
X73661Y-277163D01*
X73519Y-277195D01*
X73353Y-277220D01*
X73164Y-277236D01*
X72907Y-277243D01*
X72750Y-277313D01*
X69092D01*
X68839Y-276043D01*
X69873Y-275615D01*
X71145Y-274343D01*
X71834Y-272680D01*
Y-270880D01*
X71145Y-269217D01*
X70710Y-268782D01*
X70593Y-268488D01*
X70369Y-268258D01*
X70203Y-268067D01*
X70065Y-267889D01*
X69955Y-267726D01*
X69870Y-267578D01*
X69809Y-267448D01*
X69767Y-267335D01*
X69741Y-267238D01*
X69728Y-267154D01*
X69719Y-266990D01*
X69641Y-266826D01*
Y-254890D01*
X69719Y-254726D01*
X69728Y-254562D01*
X69741Y-254478D01*
X69767Y-254381D01*
X69809Y-254268D01*
X69870Y-254138D01*
X69955Y-253990D01*
X70065Y-253827D01*
X70202Y-253649D01*
X70369Y-253458D01*
X70593Y-253228D01*
X70710Y-252934D01*
X71145Y-252499D01*
X71834Y-250836D01*
Y-249036D01*
X71145Y-247373D01*
X69873Y-246101D01*
X68210Y-245412D01*
X66410D01*
X64747Y-246101D01*
X63475Y-247373D01*
X62786Y-249036D01*
Y-250836D01*
X63475Y-252499D01*
X63910Y-252934D01*
X64027Y-253228D01*
X64251Y-253458D01*
X64417Y-253649D01*
X64555Y-253827D01*
X64665Y-253990D01*
X64750Y-254138D01*
X64811Y-254268D01*
X64853Y-254381D01*
X64879Y-254478D01*
X64892Y-254562D01*
X64901Y-254726D01*
X64979Y-254890D01*
Y-266826D01*
X64901Y-266990D01*
X64892Y-267154D01*
X64879Y-267238D01*
X64853Y-267335D01*
X64811Y-267449D01*
X64750Y-267578D01*
X64665Y-267726D01*
X64555Y-267889D01*
X64418Y-268067D01*
X64251Y-268258D01*
X64027Y-268488D01*
X63910Y-268782D01*
X63475Y-269217D01*
X62786Y-270880D01*
Y-270972D01*
X61613Y-271458D01*
X60429Y-270274D01*
X59504Y-269656D01*
X58414Y-269439D01*
X58414Y-269439D01*
X50504D01*
Y-258128D01*
X45295D01*
Y-255816D01*
X45117Y-254924D01*
X44612Y-254168D01*
X42225Y-251780D01*
X41468Y-251275D01*
X40577Y-251098D01*
X17463D01*
X17299Y-251019D01*
X17135Y-251010D01*
X17052Y-250997D01*
X16954Y-250971D01*
X16841Y-250930D01*
X16711Y-250868D01*
X16564Y-250784D01*
X16400Y-250674D01*
X16223Y-250536D01*
X16032Y-250369D01*
X15801Y-250145D01*
X15508Y-250028D01*
X15072Y-249593D01*
X13409Y-248904D01*
X11610D01*
X9947Y-249593D01*
X8674Y-250866D01*
X7986Y-252529D01*
Y-254328D01*
X8674Y-255991D01*
X9947Y-257264D01*
X11610Y-257952D01*
X13409D01*
X15072Y-257264D01*
X15508Y-256828D01*
X15801Y-256712D01*
X16032Y-256488D01*
X16223Y-256321D01*
X16400Y-256184D01*
X16564Y-256073D01*
X16711Y-255989D01*
X16841Y-255927D01*
X16954Y-255886D01*
X17052Y-255860D01*
X17135Y-255847D01*
X17299Y-255838D01*
X17463Y-255759D01*
X39611D01*
X40633Y-256781D01*
Y-258128D01*
X35424D01*
Y-269439D01*
X15832D01*
X15667Y-269368D01*
X15397Y-269366D01*
X14652Y-269319D01*
X14503Y-269301D01*
X14158Y-269237D01*
X14057Y-269211D01*
X13964Y-269181D01*
X13843Y-269134D01*
X13533Y-269141D01*
X12962Y-268904D01*
X11163D01*
X9500Y-269593D01*
X8227Y-270866D01*
X7538Y-272529D01*
Y-274328D01*
X8227Y-275991D01*
X9500Y-277264D01*
X10801Y-277803D01*
X10925Y-279126D01*
X10079Y-279476D01*
X8806Y-280749D01*
X8118Y-282412D01*
Y-283027D01*
X7992Y-283318D01*
X7988Y-283639D01*
X7971Y-283892D01*
X7942Y-284115D01*
X7905Y-284308D01*
X7860Y-284472D01*
X7812Y-284608D01*
X7761Y-284717D01*
X7711Y-284804D01*
X7661Y-284873D01*
X7551Y-284995D01*
X7491Y-285166D01*
X3848Y-288809D01*
X2577Y-288283D01*
X2578Y-50104D01*
X3848Y-49636D01*
X6849Y-53151D01*
X10756Y-56487D01*
X15136Y-59172D01*
X19883Y-61137D01*
X24878Y-62337D01*
X30000Y-62740D01*
X35122Y-62337D01*
X40117Y-61137D01*
X44864Y-59172D01*
X49244Y-56487D01*
X53151Y-53151D01*
X56487Y-49244D01*
X59172Y-44864D01*
X61137Y-40117D01*
X62337Y-35122D01*
X62740Y-30000D01*
X62337Y-24878D01*
X61137Y-19883D01*
X59172Y-15136D01*
X56487Y-10756D01*
X53151Y-6849D01*
X49636Y-3848D01*
X50104Y-2578D01*
X537304D01*
X537332Y-2572D01*
X539927Y-2914D01*
D02*
G37*
G36*
X69156Y-252340D02*
X68928Y-252600D01*
X68728Y-252860D01*
X68554Y-253117D01*
X68407Y-253374D01*
X68286Y-253629D01*
X68192Y-253883D01*
X68126Y-254136D01*
X68085Y-254387D01*
X68072Y-254638D01*
X66548D01*
X66535Y-254387D01*
X66494Y-254136D01*
X66428Y-253883D01*
X66334Y-253629D01*
X66213Y-253374D01*
X66066Y-253117D01*
X65892Y-252860D01*
X65692Y-252600D01*
X65464Y-252340D01*
X65210Y-252078D01*
X69410D01*
X69156Y-252340D01*
D02*
G37*
G36*
X14914Y-251583D02*
X15174Y-251810D01*
X15433Y-252011D01*
X15691Y-252185D01*
X15948Y-252332D01*
X16203Y-252452D01*
X16457Y-252546D01*
X16710Y-252613D01*
X16961Y-252653D01*
X17211Y-252666D01*
Y-254191D01*
X16961Y-254204D01*
X16710Y-254244D01*
X16457Y-254311D01*
X16203Y-254405D01*
X15948Y-254525D01*
X15691Y-254672D01*
X15433Y-254846D01*
X15174Y-255047D01*
X14914Y-255274D01*
X14652Y-255529D01*
Y-251329D01*
X14914Y-251583D01*
D02*
G37*
G36*
X43734Y-259470D02*
X43756Y-259734D01*
X43795Y-259967D01*
X43848Y-260169D01*
X43917Y-260340D01*
X44000Y-260480D01*
X44099Y-260589D01*
X44214Y-260667D01*
X44343Y-260713D01*
X44488Y-260729D01*
X41440D01*
X41585Y-260713D01*
X41714Y-260667D01*
X41829Y-260589D01*
X41928Y-260480D01*
X42011Y-260340D01*
X42080Y-260169D01*
X42133Y-259967D01*
X42172Y-259734D01*
X42194Y-259470D01*
X42202Y-259174D01*
X43726D01*
X43734Y-259470D01*
D02*
G37*
G36*
X68085Y-267329D02*
X68126Y-267580D01*
X68192Y-267833D01*
X68286Y-268087D01*
X68407Y-268342D01*
X68554Y-268599D01*
X68728Y-268856D01*
X68928Y-269116D01*
X69156Y-269376D01*
X69410Y-269638D01*
X65210D01*
X65464Y-269376D01*
X65692Y-269116D01*
X65892Y-268856D01*
X66066Y-268599D01*
X66213Y-268342D01*
X66334Y-268087D01*
X66428Y-267833D01*
X66494Y-267580D01*
X66535Y-267329D01*
X66548Y-267078D01*
X68072D01*
X68085Y-267329D01*
D02*
G37*
G36*
X13415Y-270737D02*
X13600Y-270796D01*
X13801Y-270848D01*
X14250Y-270931D01*
X14498Y-270963D01*
X15337Y-271014D01*
X15648Y-271018D01*
X16860Y-273558D01*
X16549Y-273568D01*
X16263Y-273598D01*
X16001Y-273648D01*
X15763Y-273718D01*
X15549Y-273808D01*
X15359Y-273917D01*
X15194Y-274047D01*
X15053Y-274197D01*
X14935Y-274367D01*
X14842Y-274556D01*
X13246Y-270672D01*
X13415Y-270737D01*
D02*
G37*
G36*
X47919Y-278529D02*
X47965Y-278658D01*
X48043Y-278773D01*
X48152Y-278872D01*
X48292Y-278955D01*
X48463Y-279024D01*
X48665Y-279077D01*
X48898Y-279116D01*
X49162Y-279138D01*
X49458Y-279146D01*
Y-280670D01*
X49162Y-280678D01*
X48898Y-280700D01*
X48665Y-280739D01*
X48463Y-280792D01*
X48292Y-280861D01*
X48152Y-280944D01*
X48043Y-281043D01*
X47965Y-281158D01*
X47919Y-281287D01*
X47903Y-281432D01*
Y-278384D01*
X47919Y-278529D01*
D02*
G37*
G36*
X37994Y-281432D02*
X37979Y-281287D01*
X37933Y-281158D01*
X37857Y-281043D01*
X37751Y-280944D01*
X37613Y-280861D01*
X37446Y-280792D01*
X37248Y-280739D01*
X37019Y-280700D01*
X36760Y-280678D01*
X36470Y-280670D01*
Y-279146D01*
X36760Y-279138D01*
X37019Y-279116D01*
X37248Y-279077D01*
X37446Y-279024D01*
X37613Y-278955D01*
X37751Y-278872D01*
X37857Y-278773D01*
X37933Y-278658D01*
X37979Y-278529D01*
X37994Y-278384D01*
Y-281432D01*
D02*
G37*
G36*
X30855Y-278529D02*
X30900Y-278658D01*
X30977Y-278773D01*
X31083Y-278872D01*
X31221Y-278955D01*
X31388Y-279024D01*
X31586Y-279077D01*
X31815Y-279116D01*
X32074Y-279138D01*
X32364Y-279146D01*
Y-280670D01*
X32074Y-280678D01*
X31815Y-280700D01*
X31586Y-280739D01*
X31388Y-280792D01*
X31221Y-280861D01*
X31083Y-280944D01*
X30977Y-281043D01*
X30900Y-281158D01*
X30855Y-281287D01*
X30840Y-281432D01*
Y-278384D01*
X30855Y-278529D01*
D02*
G37*
G36*
X75328Y-282262D02*
X75157Y-282104D01*
X74972Y-281963D01*
X74772Y-281839D01*
X74557Y-281731D01*
X74327Y-281639D01*
X74082Y-281565D01*
X73822Y-281507D01*
X73547Y-281465D01*
X73257Y-281440D01*
X72952Y-281432D01*
Y-278892D01*
X73257Y-278884D01*
X73547Y-278859D01*
X73822Y-278817D01*
X74082Y-278759D01*
X74327Y-278685D01*
X74557Y-278593D01*
X74772Y-278485D01*
X74972Y-278361D01*
X75157Y-278220D01*
X75328Y-278062D01*
Y-282262D01*
D02*
G37*
G36*
X12612Y-286311D02*
X12247Y-286317D01*
X11902Y-286340D01*
X11577Y-286381D01*
X11271Y-286441D01*
X10986Y-286518D01*
X10720Y-286613D01*
X10474Y-286727D01*
X10248Y-286858D01*
X10042Y-287008D01*
X9856Y-287175D01*
X8778Y-286097D01*
X8946Y-285911D01*
X9095Y-285705D01*
X9226Y-285479D01*
X9340Y-285233D01*
X9435Y-284967D01*
X9513Y-284682D01*
X9572Y-284376D01*
X9613Y-284051D01*
X9636Y-283706D01*
X9642Y-283342D01*
X12612Y-286311D01*
D02*
G37*
G36*
X63705Y-289983D02*
X63720Y-290217D01*
X63734Y-290312D01*
X63752Y-290393D01*
X63773Y-290460D01*
X63799Y-290513D01*
X63828Y-290552D01*
X63861Y-290577D01*
X63899Y-290587D01*
X62055Y-291028D01*
X62078Y-291002D01*
X62099Y-290956D01*
X62118Y-290889D01*
X62134Y-290802D01*
X62148Y-290694D01*
X62168Y-290416D01*
X62179Y-289846D01*
X63703D01*
X63705Y-289983D01*
D02*
G37*
G36*
X13006Y-296236D02*
X12689Y-296151D01*
X12386Y-296095D01*
X12096Y-296068D01*
X11818Y-296070D01*
X11554Y-296102D01*
X11303Y-296162D01*
X11066Y-296252D01*
X10841Y-296371D01*
X10630Y-296519D01*
X10431Y-296696D01*
X9688Y-295285D01*
X9835Y-295123D01*
X9980Y-294936D01*
X10120Y-294724D01*
X10258Y-294487D01*
X10391Y-294225D01*
X10648Y-293627D01*
X10771Y-293290D01*
X11007Y-292542D01*
X13006Y-296236D01*
D02*
G37*
G36*
X39383Y-300143D02*
X39167Y-300219D01*
X38976Y-300346D01*
X38811Y-300524D01*
X38672Y-300753D01*
X38557Y-301032D01*
X38468Y-301362D01*
X38405Y-301743D01*
X38367Y-302175D01*
X38354Y-302658D01*
X35814D01*
X35801Y-302175D01*
X35763Y-301743D01*
X35700Y-301362D01*
X35611Y-301032D01*
X35496Y-300753D01*
X35357Y-300524D01*
X35192Y-300346D01*
X35001Y-300219D01*
X34785Y-300143D01*
X34544Y-300117D01*
X39624D01*
X39383Y-300143D01*
D02*
G37*
G36*
X88821Y-305054D02*
X87541Y-305057D01*
X84306Y-305269D01*
X83430Y-305407D01*
X82654Y-305579D01*
X81978Y-305784D01*
X81404Y-306023D01*
X80930Y-306295D01*
X80556Y-306601D01*
X79479Y-305523D01*
X79785Y-305150D01*
X80057Y-304676D01*
X80296Y-304102D01*
X80501Y-303426D01*
X80673Y-302650D01*
X80811Y-301773D01*
X80986Y-299718D01*
X81023Y-298538D01*
X81026Y-297259D01*
X88821Y-305054D01*
D02*
G37*
G36*
X14619Y-304606D02*
X14201Y-305142D01*
X14030Y-305407D01*
X13886Y-305668D01*
X13769Y-305927D01*
X13677Y-306183D01*
X13635Y-306346D01*
X13681Y-306525D01*
X13750Y-306697D01*
X13833Y-306836D01*
X13932Y-306940D01*
X14047Y-307010D01*
X14176Y-307046D01*
X14321Y-307048D01*
X11290Y-307348D01*
X11431Y-307316D01*
X11558Y-307251D01*
X11670Y-307152D01*
X11767Y-307019D01*
X11849Y-306852D01*
X11916Y-306652D01*
X11966Y-306427D01*
X11912Y-306229D01*
X11817Y-305977D01*
X11694Y-305725D01*
X11544Y-305474D01*
X11366Y-305222D01*
X11162Y-304971D01*
X10930Y-304720D01*
X10670Y-304469D01*
X14868Y-304333D01*
X14619Y-304606D01*
D02*
G37*
G36*
X11559Y-314900D02*
X11369Y-314782D01*
X11172Y-314676D01*
X10969Y-314583D01*
X10758Y-314502D01*
X10541Y-314433D01*
X10316Y-314378D01*
X10085Y-314334D01*
X9847Y-314303D01*
X9602Y-314284D01*
X9350Y-314278D01*
Y-312754D01*
X9602Y-312748D01*
X10085Y-312698D01*
X10316Y-312654D01*
X10541Y-312598D01*
X10758Y-312530D01*
X10969Y-312449D01*
X11172Y-312356D01*
X11369Y-312250D01*
X11559Y-312132D01*
Y-314900D01*
D02*
G37*
G36*
X474218Y-291592D02*
Y-325374D01*
X472948Y-326644D01*
X340106D01*
X337312Y-329438D01*
X313690D01*
X310896Y-326644D01*
Y-298450D01*
X323342D01*
X341630Y-316738D01*
X451612D01*
X462026Y-306324D01*
Y-292354D01*
X463296Y-291084D01*
X473710D01*
X474218Y-291592D01*
D02*
G37*
G36*
X70697Y-317383D02*
X70496Y-317589D01*
X70004Y-318160D01*
X69877Y-318335D01*
X69677Y-318660D01*
X69605Y-318811D01*
X69552Y-318954D01*
X69516Y-319089D01*
X67829Y-317048D01*
X67935Y-317142D01*
X68061Y-317193D01*
X68209Y-317203D01*
X68378Y-317170D01*
X68568Y-317095D01*
X68779Y-316978D01*
X69011Y-316819D01*
X69265Y-316618D01*
X69540Y-316375D01*
X69836Y-316089D01*
X70697Y-317383D01*
D02*
G37*
G36*
X21895Y-317250D02*
X22092Y-317356D01*
X22295Y-317449D01*
X22506Y-317530D01*
X22723Y-317598D01*
X22948Y-317654D01*
X23179Y-317698D01*
X23417Y-317729D01*
X23662Y-317748D01*
X23914Y-317754D01*
Y-319278D01*
X23662Y-319284D01*
X23179Y-319334D01*
X22948Y-319378D01*
X22723Y-319434D01*
X22506Y-319502D01*
X22295Y-319583D01*
X22092Y-319676D01*
X21895Y-319782D01*
X21705Y-319900D01*
Y-317132D01*
X21895Y-317250D01*
D02*
G37*
G36*
X68895Y-322250D02*
X69092Y-322356D01*
X69295Y-322449D01*
X69506Y-322530D01*
X69723Y-322598D01*
X69948Y-322654D01*
X70179Y-322698D01*
X70417Y-322729D01*
X70662Y-322748D01*
X70914Y-322754D01*
Y-324278D01*
X70662Y-324284D01*
X70179Y-324334D01*
X69948Y-324378D01*
X69723Y-324434D01*
X69506Y-324502D01*
X69295Y-324583D01*
X69092Y-324676D01*
X68895Y-324782D01*
X68705Y-324900D01*
Y-322132D01*
X68895Y-322250D01*
D02*
G37*
G36*
X11559Y-324900D02*
X11369Y-324782D01*
X11172Y-324676D01*
X10969Y-324583D01*
X10758Y-324502D01*
X10541Y-324434D01*
X10316Y-324378D01*
X10085Y-324334D01*
X9847Y-324303D01*
X9602Y-324284D01*
X9350Y-324278D01*
Y-322754D01*
X9602Y-322748D01*
X10085Y-322698D01*
X10316Y-322654D01*
X10541Y-322598D01*
X10758Y-322530D01*
X10969Y-322449D01*
X11172Y-322356D01*
X11369Y-322250D01*
X11559Y-322132D01*
Y-324900D01*
D02*
G37*
G36*
X84234Y-328923D02*
X83881Y-328688D01*
X83534Y-328508D01*
X83195Y-328384D01*
X82862Y-328314D01*
X82535Y-328300D01*
X82216Y-328340D01*
X81903Y-328436D01*
X81598Y-328587D01*
X81299Y-328794D01*
X81006Y-329055D01*
X79929Y-327977D01*
X80239Y-327640D01*
X80507Y-327289D01*
X80734Y-326925D01*
X80919Y-326548D01*
X81062Y-326157D01*
X81165Y-325753D01*
X81225Y-325336D01*
X81243Y-324906D01*
X81221Y-324462D01*
X81156Y-324005D01*
X84234Y-328923D01*
D02*
G37*
G36*
X68895Y-327250D02*
X69092Y-327356D01*
X69295Y-327449D01*
X69506Y-327530D01*
X69723Y-327598D01*
X69948Y-327654D01*
X70179Y-327698D01*
X70417Y-327729D01*
X70662Y-327748D01*
X70914Y-327754D01*
Y-329278D01*
X70662Y-329284D01*
X70179Y-329334D01*
X69948Y-329378D01*
X69723Y-329434D01*
X69506Y-329502D01*
X69295Y-329583D01*
X69092Y-329676D01*
X68895Y-329782D01*
X68705Y-329900D01*
Y-327132D01*
X68895Y-327250D01*
D02*
G37*
G36*
X21763Y-327154D02*
X21869Y-327173D01*
X22021Y-327190D01*
X22763Y-327228D01*
X24416Y-327246D01*
Y-329786D01*
X21705Y-329900D01*
Y-327132D01*
X21763Y-327154D01*
D02*
G37*
G36*
X37982Y-327034D02*
X37954Y-327074D01*
X37953Y-327110D01*
X37981Y-327142D01*
X38036Y-327170D01*
X38119Y-327193D01*
X38231Y-327212D01*
X38733Y-327244D01*
X38956Y-327246D01*
X38879Y-327292D01*
X39836Y-327310D01*
X37688Y-330735D01*
X37639Y-330555D01*
X37560Y-330394D01*
X37452Y-330251D01*
X37314Y-330128D01*
X37147Y-330023D01*
X36951Y-329938D01*
X36724Y-329871D01*
X36469Y-329824D01*
X36183Y-329795D01*
X35869Y-329786D01*
X36020Y-329000D01*
X34704Y-329786D01*
X31638Y-327246D01*
X32139Y-327228D01*
X32624Y-327174D01*
X33095Y-327084D01*
X33551Y-326959D01*
X33992Y-326797D01*
X34418Y-326599D01*
X34829Y-326366D01*
X35226Y-326096D01*
X35607Y-325791D01*
X35974Y-325450D01*
X37982Y-327034D01*
D02*
G37*
%LPC*%
G36*
X489860Y-6545D02*
X484130D01*
Y-12880D01*
X497298D01*
X497206Y-12182D01*
X496446Y-10347D01*
X495238Y-8772D01*
X493662Y-7564D01*
X491828Y-6804D01*
X489860Y-6545D01*
D02*
G37*
G36*
X528660D02*
X525930D01*
Y-12880D01*
X536098D01*
X536006Y-12182D01*
X535246Y-10347D01*
X534038Y-8772D01*
X532463Y-7564D01*
X530628Y-6804D01*
X528660Y-6545D01*
D02*
G37*
G36*
X523390D02*
X520660D01*
X518692Y-6804D01*
X516857Y-7564D01*
X515282Y-8772D01*
X514074Y-10347D01*
X513314Y-12182D01*
X513222Y-12880D01*
X523390D01*
Y-6545D01*
D02*
G37*
G36*
X481590D02*
X475860D01*
X473892Y-6804D01*
X472057Y-7564D01*
X470482Y-8772D01*
X469274Y-10347D01*
X468514Y-12182D01*
X468422Y-12880D01*
X481590D01*
Y-6545D01*
D02*
G37*
G36*
X217271Y-7366D02*
X217170D01*
Y-16510D01*
X226314D01*
Y-16409D01*
X225604Y-13760D01*
X224233Y-11386D01*
X222294Y-9447D01*
X219920Y-8076D01*
X217271Y-7366D01*
D02*
G37*
G36*
X214630D02*
X214529D01*
X211880Y-8076D01*
X209506Y-9447D01*
X207567Y-11386D01*
X206196Y-13760D01*
X205486Y-16409D01*
Y-16510D01*
X214630D01*
Y-7366D01*
D02*
G37*
G36*
X191871D02*
X191770D01*
Y-16510D01*
X200914D01*
Y-16409D01*
X200204Y-13760D01*
X198833Y-11386D01*
X196894Y-9447D01*
X194520Y-8076D01*
X191871Y-7366D01*
D02*
G37*
G36*
X189230D02*
X189129D01*
X186480Y-8076D01*
X184106Y-9447D01*
X182167Y-11386D01*
X180796Y-13760D01*
X180086Y-16409D01*
Y-16510D01*
X189230D01*
Y-7366D01*
D02*
G37*
G36*
X141071D02*
X140970D01*
Y-16510D01*
X150114D01*
Y-16409D01*
X149404Y-13760D01*
X148033Y-11386D01*
X146094Y-9447D01*
X143720Y-8076D01*
X141071Y-7366D01*
D02*
G37*
G36*
X138430D02*
X138329D01*
X135680Y-8076D01*
X133306Y-9447D01*
X131367Y-11386D01*
X129996Y-13760D01*
X129286Y-16409D01*
Y-16510D01*
X138430D01*
Y-7366D01*
D02*
G37*
G36*
X536098Y-15420D02*
X525930D01*
Y-21755D01*
X528660D01*
X530628Y-21496D01*
X532463Y-20736D01*
X534038Y-19528D01*
X535246Y-17953D01*
X536006Y-16118D01*
X536098Y-15420D01*
D02*
G37*
G36*
X523390D02*
X513222D01*
X513314Y-16118D01*
X514074Y-17953D01*
X515282Y-19528D01*
X516857Y-20736D01*
X518692Y-21496D01*
X520660Y-21755D01*
X523390D01*
Y-15420D01*
D02*
G37*
G36*
X481590D02*
X468422D01*
X468514Y-16118D01*
X469274Y-17953D01*
X470482Y-19528D01*
X472057Y-20736D01*
X473892Y-21496D01*
X475860Y-21755D01*
X481590D01*
Y-15420D01*
D02*
G37*
G36*
X131821Y-19050D02*
X129286D01*
Y-19151D01*
X129996Y-21800D01*
X131205Y-23894D01*
X131242Y-23784D01*
X131431Y-23022D01*
X131584Y-22171D01*
X131699Y-21228D01*
X131821Y-19073D01*
X131821Y-19050D01*
D02*
G37*
G36*
X182621D02*
X180086D01*
Y-19151D01*
X180796Y-21800D01*
X182005Y-23894D01*
X182042Y-23784D01*
X182231Y-23022D01*
X182383Y-22171D01*
X182499Y-21228D01*
X182621Y-19073D01*
X182621Y-19050D01*
D02*
G37*
G36*
X138430D02*
X133018D01*
X138430Y-24462D01*
Y-19050D01*
D02*
G37*
G36*
X189230D02*
X183818D01*
X189230Y-24462D01*
Y-19050D01*
D02*
G37*
G36*
X268071Y-7366D02*
X265329D01*
X262680Y-8076D01*
X260306Y-9447D01*
X258367Y-11386D01*
X256996Y-13760D01*
X256286Y-16409D01*
Y-19151D01*
X256996Y-21800D01*
X257003Y-21812D01*
X256972Y-22175D01*
X256851Y-22944D01*
X256704Y-23608D01*
X256541Y-24144D01*
X256375Y-24546D01*
X256223Y-24810D01*
X256003Y-25078D01*
X255959Y-25225D01*
X251844Y-29340D01*
X251339Y-30096D01*
X251161Y-30988D01*
Y-36892D01*
X249891Y-37232D01*
X249633Y-36786D01*
X247694Y-34847D01*
X245320Y-33476D01*
X242671Y-32766D01*
X239929D01*
X237280Y-33476D01*
X234906Y-34847D01*
X232967Y-36786D01*
X231947Y-38552D01*
X230677Y-38212D01*
Y-31699D01*
X233855Y-28521D01*
X234002Y-28477D01*
X234270Y-28257D01*
X234534Y-28105D01*
X234936Y-27939D01*
X235472Y-27776D01*
X236136Y-27629D01*
X236889Y-27510D01*
X237282Y-27485D01*
X239929Y-28194D01*
X242671D01*
X245320Y-27484D01*
X247694Y-26113D01*
X249633Y-24174D01*
X251004Y-21800D01*
X251714Y-19151D01*
Y-16409D01*
X251004Y-13760D01*
X249633Y-11386D01*
X247694Y-9447D01*
X245320Y-8076D01*
X242671Y-7366D01*
X239929D01*
X237280Y-8076D01*
X234906Y-9447D01*
X232967Y-11386D01*
X231596Y-13760D01*
X230886Y-16409D01*
Y-19151D01*
X231596Y-21800D01*
X231603Y-21812D01*
X231572Y-22175D01*
X231451Y-22944D01*
X231304Y-23608D01*
X231141Y-24144D01*
X230975Y-24546D01*
X230823Y-24810D01*
X230603Y-25078D01*
X230559Y-25225D01*
X226698Y-29086D01*
X226193Y-29842D01*
X226015Y-30734D01*
Y-37332D01*
X224745Y-37672D01*
X224233Y-36786D01*
X222294Y-34847D01*
X219920Y-33476D01*
X217271Y-32766D01*
X214529D01*
X211880Y-33476D01*
X209506Y-34847D01*
X207567Y-36786D01*
X206196Y-39160D01*
X205486Y-41809D01*
Y-44551D01*
X206196Y-47200D01*
X207567Y-49574D01*
X209506Y-51513D01*
X211880Y-52884D01*
X214529Y-53594D01*
X217271D01*
X219920Y-52884D01*
X222294Y-51513D01*
X224233Y-49574D01*
X224745Y-48688D01*
X226015Y-49028D01*
Y-51562D01*
X226193Y-52454D01*
X226698Y-53210D01*
X230841Y-57354D01*
Y-101651D01*
X227714Y-104778D01*
X227209Y-105534D01*
X227031Y-106426D01*
Y-118236D01*
X226953Y-118400D01*
X226944Y-118564D01*
X226931Y-118648D01*
X226905Y-118745D01*
X226863Y-118858D01*
X226802Y-118988D01*
X226717Y-119136D01*
X226607Y-119299D01*
X226469Y-119477D01*
X226303Y-119668D01*
X226079Y-119898D01*
X225962Y-120192D01*
X225527Y-120627D01*
X224838Y-122290D01*
Y-124090D01*
X225527Y-125753D01*
X226799Y-127025D01*
X228462Y-127714D01*
X230262D01*
X231925Y-127025D01*
X233197Y-125753D01*
X233886Y-124090D01*
Y-123045D01*
X234194Y-122180D01*
X235059Y-121872D01*
X236104D01*
X236365Y-121764D01*
X236407Y-121774D01*
X237538Y-122653D01*
Y-123836D01*
X238227Y-125499D01*
X239499Y-126771D01*
X241162Y-127460D01*
X242962D01*
X244625Y-126771D01*
X245897Y-125499D01*
X246586Y-123836D01*
Y-122791D01*
X246586Y-122036D01*
X247759Y-121618D01*
X248296D01*
X249959Y-120929D01*
X251231Y-119657D01*
X251920Y-117994D01*
Y-117378D01*
X252045Y-117088D01*
X252050Y-116767D01*
X252067Y-116514D01*
X252095Y-116291D01*
X252133Y-116097D01*
X252177Y-115934D01*
X252226Y-115798D01*
X252276Y-115689D01*
X252327Y-115602D01*
X252377Y-115533D01*
X252486Y-115411D01*
X252547Y-115239D01*
X255394Y-112392D01*
X255899Y-111636D01*
X256077Y-110744D01*
Y-57099D01*
X259255Y-53921D01*
X259403Y-53877D01*
X259670Y-53657D01*
X259934Y-53506D01*
X260336Y-53339D01*
X260872Y-53176D01*
X261536Y-53029D01*
X262289Y-52910D01*
X262682Y-52885D01*
X265329Y-53594D01*
X268071D01*
X270720Y-52884D01*
X273094Y-51513D01*
X275033Y-49574D01*
X276404Y-47200D01*
X277114Y-44551D01*
Y-41809D01*
X276404Y-39160D01*
X275033Y-36786D01*
X273094Y-34847D01*
X270720Y-33476D01*
X268071Y-32766D01*
X265329D01*
X262680Y-33476D01*
X260306Y-34847D01*
X258367Y-36786D01*
X257700Y-37940D01*
X256042Y-38271D01*
X255823Y-38103D01*
Y-31953D01*
X259255Y-28521D01*
X259403Y-28477D01*
X259670Y-28257D01*
X259934Y-28105D01*
X260336Y-27939D01*
X260872Y-27776D01*
X261536Y-27629D01*
X262289Y-27510D01*
X262682Y-27485D01*
X265329Y-28194D01*
X268071D01*
X270720Y-27484D01*
X273094Y-26113D01*
X275033Y-24174D01*
X276404Y-21800D01*
X277114Y-19151D01*
Y-16409D01*
X276404Y-13760D01*
X275033Y-11386D01*
X273094Y-9447D01*
X270720Y-8076D01*
X268071Y-7366D01*
D02*
G37*
G36*
X226314Y-19050D02*
X217170D01*
Y-28194D01*
X217271D01*
X219920Y-27484D01*
X222294Y-26113D01*
X224233Y-24174D01*
X225604Y-21800D01*
X226314Y-19151D01*
Y-19050D01*
D02*
G37*
G36*
X214630D02*
X205486D01*
Y-19151D01*
X206196Y-21800D01*
X207567Y-24174D01*
X209506Y-26113D01*
X211880Y-27484D01*
X214529Y-28194D01*
X214630D01*
Y-19050D01*
D02*
G37*
G36*
X200914D02*
X191770D01*
Y-28194D01*
X191871D01*
X194520Y-27484D01*
X196894Y-26113D01*
X198833Y-24174D01*
X200204Y-21800D01*
X200914Y-19151D01*
Y-19050D01*
D02*
G37*
G36*
X189230Y-25659D02*
X189207Y-25659D01*
X186109Y-25896D01*
X185257Y-26049D01*
X184496Y-26238D01*
X184386Y-26275D01*
X186480Y-27484D01*
X189129Y-28194D01*
X189230D01*
Y-25659D01*
D02*
G37*
G36*
X166471Y-7366D02*
X163729D01*
X161080Y-8076D01*
X158706Y-9447D01*
X156767Y-11386D01*
X155396Y-13760D01*
X154686Y-16409D01*
Y-19151D01*
X155396Y-21800D01*
X155403Y-21812D01*
X155372Y-22175D01*
X155251Y-22944D01*
X155104Y-23608D01*
X154941Y-24144D01*
X154775Y-24546D01*
X154623Y-24810D01*
X154403Y-25078D01*
X154359Y-25225D01*
X150752Y-28832D01*
X150247Y-29588D01*
X150069Y-30480D01*
Y-37772D01*
X148799Y-38112D01*
X148033Y-36786D01*
X146094Y-34847D01*
X143720Y-33476D01*
X141071Y-32766D01*
X138329D01*
X135680Y-33476D01*
X133306Y-34847D01*
X131367Y-36786D01*
X129996Y-39160D01*
X129286Y-41809D01*
Y-44551D01*
X129996Y-47200D01*
X131367Y-49574D01*
X133306Y-51513D01*
X135680Y-52884D01*
X136826Y-53191D01*
X136953Y-53390D01*
X137104Y-53702D01*
X137205Y-54003D01*
X137265Y-54303D01*
X137292Y-54717D01*
X137457Y-55053D01*
X137547Y-55502D01*
X138052Y-56258D01*
X143590Y-61796D01*
Y-72580D01*
X158670D01*
Y-59500D01*
X157487D01*
X156639Y-58230D01*
X156924Y-57542D01*
Y-55742D01*
X156235Y-54079D01*
X155800Y-53644D01*
X155683Y-53350D01*
X155459Y-53120D01*
X155293Y-52929D01*
X155155Y-52751D01*
X155045Y-52588D01*
X154960Y-52440D01*
X154899Y-52310D01*
X154857Y-52197D01*
X154831Y-52100D01*
X154818Y-52016D01*
X154809Y-51852D01*
X154731Y-51688D01*
Y-48588D01*
X156001Y-48248D01*
X156767Y-49574D01*
X158706Y-51513D01*
X161080Y-52884D01*
X163729Y-53594D01*
X166471D01*
X169120Y-52884D01*
X171494Y-51513D01*
X173433Y-49574D01*
X174804Y-47200D01*
X175514Y-44551D01*
Y-41809D01*
X174804Y-39160D01*
X173433Y-36786D01*
X171494Y-34847D01*
X169120Y-33476D01*
X166471Y-32766D01*
X163729D01*
X161080Y-33476D01*
X158706Y-34847D01*
X156767Y-36786D01*
X156001Y-38112D01*
X154731Y-37772D01*
Y-31445D01*
X157655Y-28521D01*
X157802Y-28477D01*
X158070Y-28257D01*
X158334Y-28105D01*
X158736Y-27939D01*
X159272Y-27776D01*
X159936Y-27629D01*
X160689Y-27510D01*
X161082Y-27485D01*
X163729Y-28194D01*
X166471D01*
X169120Y-27484D01*
X171494Y-26113D01*
X173433Y-24174D01*
X174804Y-21800D01*
X175514Y-19151D01*
Y-16409D01*
X174804Y-13760D01*
X173433Y-11386D01*
X171494Y-9447D01*
X169120Y-8076D01*
X166471Y-7366D01*
D02*
G37*
G36*
X150114Y-19050D02*
X140970D01*
Y-28194D01*
X141071D01*
X143720Y-27484D01*
X146094Y-26113D01*
X148033Y-24174D01*
X149404Y-21800D01*
X150114Y-19151D01*
Y-19050D01*
D02*
G37*
G36*
X138430Y-25659D02*
X138407Y-25659D01*
X135309Y-25896D01*
X134458Y-26049D01*
X133696Y-26238D01*
X133586Y-26275D01*
X135680Y-27484D01*
X138329Y-28194D01*
X138430D01*
Y-25659D01*
D02*
G37*
G36*
X115671Y-7366D02*
X112929D01*
X110280Y-8076D01*
X107906Y-9447D01*
X105967Y-11386D01*
X104596Y-13760D01*
X103886Y-16409D01*
Y-19151D01*
X104596Y-21800D01*
X105967Y-24174D01*
X107906Y-26113D01*
X110280Y-27484D01*
X112929Y-28194D01*
X115671D01*
X118320Y-27484D01*
X120694Y-26113D01*
X122633Y-24174D01*
X124004Y-21800D01*
X124714Y-19151D01*
Y-16409D01*
X124004Y-13760D01*
X122633Y-11386D01*
X120694Y-9447D01*
X118320Y-8076D01*
X115671Y-7366D01*
D02*
G37*
G36*
X99314D02*
X78486D01*
Y-28194D01*
X99314D01*
Y-7366D01*
D02*
G37*
G36*
X497298Y-15420D02*
X484130D01*
Y-21755D01*
X487582D01*
X487707Y-23025D01*
X487405Y-23085D01*
X486049Y-23355D01*
X484260Y-24550D01*
X483065Y-26339D01*
X482645Y-28450D01*
X483065Y-30561D01*
X484260Y-32350D01*
X486049Y-33545D01*
X488160Y-33965D01*
X490271Y-33545D01*
X492060Y-32350D01*
X493255Y-30561D01*
X493675Y-28450D01*
X493255Y-26339D01*
X492060Y-24550D01*
X490271Y-23355D01*
X488915Y-23085D01*
X488613Y-23025D01*
X488738Y-21755D01*
X489860D01*
X491828Y-21496D01*
X493662Y-20736D01*
X495238Y-19528D01*
X496446Y-17953D01*
X497206Y-16118D01*
X497298Y-15420D01*
D02*
G37*
G36*
X81470Y-59770D02*
X68390D01*
Y-61349D01*
X67120Y-62160D01*
X66178Y-61770D01*
X64378D01*
X62715Y-62459D01*
X61443Y-63731D01*
X60754Y-65394D01*
Y-67194D01*
X61443Y-68857D01*
X62715Y-70129D01*
X64378Y-70818D01*
X66178D01*
X67120Y-70428D01*
X68390Y-71239D01*
Y-74850D01*
X81470D01*
Y-59770D01*
D02*
G37*
G36*
X420447Y-49404D02*
X418461D01*
X416544Y-49918D01*
X414824Y-50911D01*
X413420Y-52314D01*
X412428Y-54034D01*
X411914Y-55951D01*
Y-57937D01*
X412428Y-59854D01*
X413420Y-61574D01*
X414824Y-62977D01*
X416544Y-63970D01*
X418461Y-64484D01*
X420447D01*
X422364Y-63970D01*
X424084Y-62977D01*
X425488Y-61574D01*
X426480Y-59854D01*
X426994Y-57937D01*
Y-55951D01*
X426480Y-54034D01*
X425488Y-52314D01*
X424084Y-50911D01*
X422364Y-49918D01*
X420447Y-49404D01*
D02*
G37*
G36*
X333640Y-25956D02*
X331840D01*
X330177Y-26645D01*
X328905Y-27917D01*
X328216Y-29580D01*
Y-31380D01*
X328306Y-31598D01*
X328281Y-31794D01*
X328349Y-32046D01*
X328379Y-32212D01*
X328391Y-32345D01*
X328391Y-32448D01*
X328382Y-32525D01*
X328368Y-32581D01*
X328351Y-32626D01*
X328329Y-32668D01*
X328296Y-32715D01*
X328184Y-32841D01*
X328124Y-33011D01*
X328044Y-33091D01*
X328036Y-33103D01*
X327954Y-33171D01*
X327948Y-33234D01*
X327539Y-33847D01*
X327361Y-34739D01*
Y-72702D01*
X296040Y-104023D01*
X295535Y-104780D01*
X295357Y-105672D01*
Y-135491D01*
X294087Y-136017D01*
X293393Y-135323D01*
X291730Y-134634D01*
X289930D01*
X288267Y-135323D01*
X286995Y-136595D01*
X286306Y-138258D01*
Y-139002D01*
X279480D01*
Y-152082D01*
X294087D01*
X294560Y-152082D01*
X295357Y-153022D01*
Y-171754D01*
X245034Y-222078D01*
X211201D01*
X210309Y-222256D01*
X209553Y-222761D01*
X198250Y-234064D01*
X197745Y-234820D01*
X197567Y-235712D01*
Y-286672D01*
X197530Y-286703D01*
X197266Y-286854D01*
X196864Y-287021D01*
X196328Y-287184D01*
X195664Y-287331D01*
X194911Y-287449D01*
X194518Y-287475D01*
X191871Y-286766D01*
X189129D01*
X186480Y-287476D01*
X184106Y-288847D01*
X182167Y-290786D01*
X180796Y-293160D01*
X180086Y-295809D01*
Y-298551D01*
X180796Y-301200D01*
X182167Y-303574D01*
X184106Y-305513D01*
X186480Y-306884D01*
X189129Y-307594D01*
X191871D01*
X194520Y-306884D01*
X196894Y-305513D01*
X198833Y-303574D01*
X199808Y-301885D01*
X201078Y-302226D01*
Y-308705D01*
X197945Y-311839D01*
X197798Y-311883D01*
X197530Y-312103D01*
X197266Y-312255D01*
X196864Y-312421D01*
X196328Y-312584D01*
X195664Y-312731D01*
X194911Y-312850D01*
X194518Y-312875D01*
X191871Y-312166D01*
X189129D01*
X186480Y-312876D01*
X184106Y-314247D01*
X182167Y-316186D01*
X180796Y-318560D01*
X180086Y-321209D01*
Y-323951D01*
X180796Y-326600D01*
X182167Y-328974D01*
X184106Y-330913D01*
X186480Y-332284D01*
X189129Y-332994D01*
X191871D01*
X194520Y-332284D01*
X196894Y-330913D01*
X198833Y-328974D01*
X200204Y-326600D01*
X200914Y-323951D01*
Y-321209D01*
X200204Y-318560D01*
X200197Y-318548D01*
X200228Y-318185D01*
X200349Y-317416D01*
X200496Y-316752D01*
X200659Y-316216D01*
X200825Y-315814D01*
X200977Y-315550D01*
X201197Y-315282D01*
X201241Y-315135D01*
X205057Y-311319D01*
X205562Y-310563D01*
X205740Y-309671D01*
Y-302950D01*
X207010Y-302610D01*
X207567Y-303574D01*
X209506Y-305513D01*
X211880Y-306884D01*
X214529Y-307594D01*
X217271D01*
X219920Y-306884D01*
X222294Y-305513D01*
X224233Y-303574D01*
X224999Y-302248D01*
X226269Y-302588D01*
Y-308915D01*
X223345Y-311839D01*
X223197Y-311883D01*
X222930Y-312103D01*
X222666Y-312255D01*
X222264Y-312421D01*
X221728Y-312584D01*
X221064Y-312731D01*
X220311Y-312850D01*
X219918Y-312875D01*
X217271Y-312166D01*
X214529D01*
X211880Y-312876D01*
X209506Y-314247D01*
X207567Y-316186D01*
X206196Y-318560D01*
X205486Y-321209D01*
Y-323951D01*
X206196Y-326600D01*
X207567Y-328974D01*
X209506Y-330913D01*
X211880Y-332284D01*
X214529Y-332994D01*
X217271D01*
X219920Y-332284D01*
X222294Y-330913D01*
X224233Y-328974D01*
X225604Y-326600D01*
X226314Y-323951D01*
Y-321209D01*
X225604Y-318560D01*
X225597Y-318548D01*
X225628Y-318185D01*
X225749Y-317416D01*
X225896Y-316752D01*
X226059Y-316216D01*
X226225Y-315814D01*
X226377Y-315550D01*
X226597Y-315282D01*
X226641Y-315135D01*
X230248Y-311528D01*
X230753Y-310772D01*
X230931Y-309880D01*
Y-302588D01*
X232201Y-302248D01*
X232967Y-303574D01*
X234906Y-305513D01*
X237280Y-306884D01*
X239929Y-307594D01*
X242671D01*
X245320Y-306884D01*
X247694Y-305513D01*
X249633Y-303574D01*
X251004Y-301200D01*
X251714Y-298551D01*
Y-295809D01*
X251004Y-293160D01*
X249633Y-290786D01*
X247694Y-288847D01*
X245320Y-287476D01*
X245306Y-287472D01*
X245071Y-287193D01*
X244613Y-286565D01*
X244247Y-285991D01*
X243983Y-285497D01*
X243817Y-285095D01*
X243738Y-284801D01*
X243703Y-284456D01*
X243631Y-284320D01*
Y-274510D01*
X251380D01*
Y-261430D01*
X236300D01*
Y-261430D01*
X236140D01*
Y-261430D01*
X221060D01*
Y-274510D01*
X226269D01*
Y-291772D01*
X224999Y-292112D01*
X224233Y-290786D01*
X222294Y-288847D01*
X219920Y-287476D01*
X217271Y-286766D01*
X214529D01*
X211880Y-287476D01*
X209506Y-288847D01*
X207567Y-290786D01*
X207010Y-291750D01*
X205740Y-291410D01*
Y-239516D01*
X214326Y-230931D01*
X246380D01*
X247272Y-230753D01*
X248028Y-230248D01*
X302384Y-175892D01*
X302889Y-175136D01*
X303067Y-174244D01*
Y-107899D01*
X306248Y-104718D01*
X312524D01*
X312688Y-104796D01*
X312851Y-104805D01*
X312935Y-104819D01*
X313033Y-104844D01*
X313146Y-104886D01*
X313276Y-104947D01*
X313423Y-105032D01*
X313587Y-105142D01*
X313764Y-105280D01*
X313955Y-105446D01*
X314186Y-105670D01*
X314479Y-105787D01*
X314915Y-106222D01*
X316577Y-106911D01*
X318377D01*
X320040Y-106222D01*
X321313Y-104950D01*
X322001Y-103287D01*
Y-101487D01*
X321313Y-99825D01*
X320040Y-98552D01*
X318377Y-97863D01*
X316577D01*
X314915Y-98552D01*
X314479Y-98987D01*
X314186Y-99104D01*
X313955Y-99328D01*
X313764Y-99495D01*
X313587Y-99632D01*
X313423Y-99743D01*
X313276Y-99827D01*
X313146Y-99888D01*
X313033Y-99930D01*
X312935Y-99956D01*
X312851Y-99969D01*
X312688Y-99978D01*
X312524Y-100056D01*
X308259D01*
X307773Y-98883D01*
X331340Y-75316D01*
X331845Y-74559D01*
X332023Y-73667D01*
Y-61693D01*
X333293Y-61353D01*
X333420Y-61574D01*
X334824Y-62977D01*
X336544Y-63970D01*
X338461Y-64484D01*
X340447D01*
X342364Y-63970D01*
X344084Y-62977D01*
X345488Y-61574D01*
X346480Y-59854D01*
X346994Y-57937D01*
Y-55951D01*
X346480Y-54034D01*
X345488Y-52314D01*
X344084Y-50911D01*
X342364Y-49918D01*
X340447Y-49404D01*
X338461D01*
X336544Y-49918D01*
X334824Y-50911D01*
X333420Y-52314D01*
X333293Y-52536D01*
X332023Y-52195D01*
Y-35824D01*
X332049Y-35800D01*
X332136Y-35733D01*
X332238Y-35665D01*
X332620Y-35457D01*
X332797Y-35377D01*
X333703Y-35045D01*
X334043Y-34943D01*
X334306Y-34728D01*
X335303Y-34315D01*
X336575Y-33043D01*
X337264Y-31380D01*
Y-29580D01*
X336575Y-27917D01*
X335303Y-26645D01*
X333640Y-25956D01*
D02*
G37*
G36*
X191871Y-32766D02*
X189129D01*
X186480Y-33476D01*
X184106Y-34847D01*
X182167Y-36786D01*
X180796Y-39160D01*
X180086Y-41809D01*
Y-44551D01*
X180796Y-47200D01*
X182167Y-49574D01*
X184106Y-51513D01*
X186480Y-52884D01*
X189129Y-53594D01*
X191871D01*
X194520Y-52884D01*
X196044Y-52004D01*
X196643Y-52046D01*
X197174Y-52137D01*
X197626Y-52270D01*
X198005Y-52439D01*
X198325Y-52639D01*
X198693Y-52955D01*
X198823Y-52998D01*
X198903Y-53109D01*
X198947Y-53116D01*
X205858Y-60027D01*
Y-70557D01*
X192426D01*
X190913Y-69044D01*
X190854Y-68887D01*
X190420Y-68419D01*
Y-59500D01*
X175340D01*
Y-72580D01*
X186277D01*
X186704Y-72992D01*
X186859Y-73470D01*
X186000Y-74740D01*
X175340D01*
Y-87820D01*
X180549D01*
Y-104774D01*
X180471Y-104938D01*
X180462Y-105102D01*
X180449Y-105186D01*
X180423Y-105283D01*
X180381Y-105396D01*
X180320Y-105526D01*
X180235Y-105674D01*
X180125Y-105837D01*
X179988Y-106015D01*
X179821Y-106206D01*
X179597Y-106436D01*
X179480Y-106730D01*
X179045Y-107165D01*
X178356Y-108828D01*
Y-110628D01*
X179045Y-112291D01*
X180317Y-113563D01*
X181980Y-114252D01*
X183780D01*
X185443Y-113563D01*
X186715Y-112291D01*
X187404Y-110628D01*
Y-108828D01*
X186715Y-107165D01*
X186280Y-106730D01*
X186163Y-106436D01*
X185939Y-106206D01*
X185773Y-106015D01*
X185635Y-105837D01*
X185525Y-105674D01*
X185440Y-105526D01*
X185379Y-105396D01*
X185337Y-105283D01*
X185311Y-105186D01*
X185298Y-105102D01*
X185289Y-104938D01*
X185211Y-104774D01*
Y-87820D01*
X190420D01*
Y-87820D01*
X190580D01*
Y-87820D01*
X205660D01*
Y-87820D01*
X205858D01*
Y-87820D01*
X210441D01*
X210441Y-87832D01*
X210511Y-87990D01*
Y-90079D01*
X210441Y-90237D01*
X210441Y-90250D01*
X206820D01*
Y-105330D01*
X207723D01*
X207781Y-105471D01*
Y-116371D01*
X207777Y-116376D01*
X207781Y-116417D01*
Y-116610D01*
X207713Y-116753D01*
X207693Y-117135D01*
X207655Y-117348D01*
X207612Y-117479D01*
X207576Y-117544D01*
X207553Y-117573D01*
X207524Y-117596D01*
X207459Y-117632D01*
X207328Y-117675D01*
X207115Y-117713D01*
X206733Y-117733D01*
X206590Y-117801D01*
X206396D01*
X206356Y-117797D01*
X206351Y-117801D01*
X156591D01*
X156533Y-117762D01*
X156483Y-117773D01*
X155340Y-117153D01*
X155337Y-117135D01*
X155317Y-116753D01*
X155249Y-116610D01*
Y-113940D01*
X155319Y-113783D01*
X155326Y-113526D01*
X155342Y-113337D01*
X155367Y-113171D01*
X155399Y-113029D01*
X155436Y-112909D01*
X155476Y-112808D01*
X155517Y-112725D01*
X155561Y-112655D01*
X155606Y-112596D01*
X155710Y-112484D01*
X155813Y-112205D01*
X156235Y-111783D01*
X156924Y-110120D01*
Y-108320D01*
X156235Y-106657D01*
X156140Y-106562D01*
X156666Y-105292D01*
X157670D01*
Y-90212D01*
X153461D01*
Y-88718D01*
X154359Y-87820D01*
X158670Y-87820D01*
X159940Y-87820D01*
X164039D01*
Y-90212D01*
X159830D01*
Y-105292D01*
X172910D01*
Y-90212D01*
X168701D01*
Y-87820D01*
X173872D01*
Y-74740D01*
X159940D01*
X158792Y-74740D01*
X157522Y-74740D01*
X143590D01*
Y-74740D01*
X143392D01*
Y-74740D01*
X128312D01*
Y-74740D01*
X128228D01*
Y-74740D01*
X113148D01*
Y-74740D01*
X112950D01*
Y-74740D01*
X98996D01*
X97980Y-74740D01*
X97870Y-74740D01*
X96710Y-74474D01*
X96710Y-72846D01*
X97870Y-72580D01*
Y-72580D01*
X112950D01*
X112950Y-72580D01*
X113148D01*
Y-72580D01*
X114220Y-72580D01*
X128228D01*
Y-60855D01*
X128055Y-60685D01*
X126698Y-59500D01*
X117444D01*
X116631Y-58687D01*
Y-56040D01*
X116704Y-55904D01*
X116738Y-55559D01*
X116817Y-55265D01*
X116983Y-54864D01*
X117247Y-54369D01*
X117613Y-53796D01*
X118061Y-53179D01*
X118321Y-52884D01*
X120694Y-51513D01*
X122633Y-49574D01*
X124004Y-47200D01*
X124714Y-44551D01*
Y-41809D01*
X124004Y-39160D01*
X122633Y-36786D01*
X120694Y-34847D01*
X118320Y-33476D01*
X115671Y-32766D01*
X112929D01*
X110280Y-33476D01*
X107906Y-34847D01*
X105967Y-36786D01*
X104596Y-39160D01*
X103886Y-41809D01*
Y-44551D01*
X104596Y-47200D01*
X105967Y-49574D01*
X107906Y-51513D01*
X110280Y-52884D01*
X110294Y-52888D01*
X110529Y-53167D01*
X110987Y-53795D01*
X111353Y-54369D01*
X111617Y-54863D01*
X111783Y-55265D01*
X111862Y-55559D01*
X111896Y-55904D01*
X111969Y-56040D01*
Y-59500D01*
X97870D01*
Y-59504D01*
X96710Y-59770D01*
Y-59770D01*
X91231D01*
Y-56040D01*
X91304Y-55904D01*
X91338Y-55559D01*
X91417Y-55265D01*
X91583Y-54864D01*
X91847Y-54369D01*
X92213Y-53796D01*
X92661Y-53179D01*
X92921Y-52884D01*
X95294Y-51513D01*
X97233Y-49574D01*
X98604Y-47200D01*
X99314Y-44551D01*
Y-41809D01*
X98604Y-39160D01*
X97233Y-36786D01*
X95294Y-34847D01*
X92920Y-33476D01*
X90271Y-32766D01*
X87529D01*
X84880Y-33476D01*
X82506Y-34847D01*
X80567Y-36786D01*
X79196Y-39160D01*
X78486Y-41809D01*
Y-44551D01*
X79196Y-47200D01*
X80567Y-49574D01*
X82506Y-51513D01*
X84880Y-52884D01*
X84894Y-52888D01*
X85129Y-53167D01*
X85587Y-53795D01*
X85953Y-54369D01*
X86217Y-54863D01*
X86383Y-55265D01*
X86462Y-55559D01*
X86496Y-55904D01*
X86569Y-56040D01*
Y-59770D01*
X83630D01*
Y-74850D01*
X95583D01*
X96600Y-74850D01*
X96710Y-74850D01*
X97870Y-75116D01*
X97870Y-75964D01*
X97870Y-76010D01*
Y-87820D01*
X98841D01*
Y-105199D01*
X98832Y-105211D01*
X98841Y-105307D01*
Y-105436D01*
X98763Y-105598D01*
X98754Y-105766D01*
X98743Y-105824D01*
X98729Y-105870D01*
X98709Y-105915D01*
X98678Y-105966D01*
X98629Y-106028D01*
X98556Y-106103D01*
X98452Y-106190D01*
X98313Y-106287D01*
X98086Y-106419D01*
X97970Y-106571D01*
X97767Y-106655D01*
X96495Y-107927D01*
X95806Y-109590D01*
Y-111390D01*
X96495Y-113053D01*
X97767Y-114325D01*
X99430Y-115014D01*
X101230D01*
X102893Y-114325D01*
X104165Y-113053D01*
X104368Y-112562D01*
X105387Y-111785D01*
X105876Y-111988D01*
X107050Y-112474D01*
X107449D01*
X108155Y-113530D01*
X107998Y-113908D01*
Y-115708D01*
X108687Y-117371D01*
X109236Y-117920D01*
X108710Y-119190D01*
X108030D01*
Y-123399D01*
X96440D01*
Y-121730D01*
X81360D01*
Y-121735D01*
X80200Y-122000D01*
Y-122000D01*
X75991D01*
Y-120570D01*
X78950D01*
Y-105490D01*
X74020D01*
X73172Y-104220D01*
X73358Y-103770D01*
Y-101970D01*
X73977Y-101044D01*
X74560D01*
X76223Y-100355D01*
X77495Y-99083D01*
X78184Y-97420D01*
Y-95620D01*
X78886Y-94570D01*
X78950D01*
Y-89361D01*
X81322D01*
Y-90360D01*
X96402D01*
Y-77280D01*
X81322D01*
Y-84699D01*
X78950D01*
Y-79490D01*
X68370D01*
Y-94570D01*
X68434D01*
X69136Y-95620D01*
Y-97420D01*
X68517Y-98346D01*
X67934D01*
X66271Y-99035D01*
X64999Y-100307D01*
X64945Y-100437D01*
X64918Y-100449D01*
X64291Y-101131D01*
X63021Y-101157D01*
X57705Y-95840D01*
X57724Y-95565D01*
X58122Y-94570D01*
X59950D01*
Y-79490D01*
X49370D01*
Y-83685D01*
X49100Y-83757D01*
X48481Y-83861D01*
X47731Y-83927D01*
X47712Y-83927D01*
X47692Y-83927D01*
X46937Y-83861D01*
X46312Y-83757D01*
X46060Y-83690D01*
Y-79150D01*
X19980D01*
Y-83690D01*
X19728Y-83757D01*
X19103Y-83861D01*
X18348Y-83927D01*
X17927Y-83938D01*
X16470Y-83921D01*
Y-82850D01*
X6390D01*
Y-93430D01*
X16470D01*
Y-92419D01*
X18345Y-92353D01*
X18348Y-92353D01*
X19103Y-92419D01*
X19728Y-92523D01*
X19980Y-92590D01*
Y-94941D01*
X17780D01*
X17780Y-94941D01*
X16690Y-95158D01*
X15766Y-95776D01*
X13260Y-98281D01*
X13155Y-98308D01*
X13110Y-98385D01*
X13026Y-98417D01*
X12560Y-98850D01*
X6390D01*
Y-109430D01*
X10300D01*
X10786Y-110603D01*
X10211Y-111178D01*
X8867Y-111735D01*
X7595Y-113007D01*
X6906Y-114670D01*
Y-116470D01*
X7595Y-118133D01*
X8867Y-119405D01*
X10250Y-119978D01*
X10254Y-119984D01*
X16862Y-126592D01*
X16900Y-126693D01*
X18726Y-128660D01*
X19130Y-129165D01*
Y-136080D01*
X34210D01*
Y-125603D01*
X35678Y-124135D01*
X36948Y-124661D01*
Y-136080D01*
X52028D01*
Y-124467D01*
X52488Y-124007D01*
X61214D01*
X61214Y-124007D01*
X62304Y-123790D01*
X63228Y-123172D01*
X64736Y-121664D01*
X64736Y-121664D01*
X65354Y-120740D01*
X65388Y-120570D01*
X69450D01*
Y-120570D01*
X71329D01*
Y-122000D01*
X67120D01*
Y-137080D01*
X80200D01*
Y-135076D01*
X81360Y-134810D01*
Y-134810D01*
X93144D01*
X98372Y-140038D01*
Y-174617D01*
X98550Y-175509D01*
X99055Y-176265D01*
X106381Y-183591D01*
Y-244374D01*
X105111Y-244952D01*
X103770Y-244396D01*
X101970D01*
X100307Y-245085D01*
X99035Y-246357D01*
X98346Y-248020D01*
Y-248385D01*
X98233Y-248596D01*
X98217Y-248753D01*
X98201Y-248839D01*
X98175Y-248931D01*
X98137Y-249032D01*
X98085Y-249143D01*
X98017Y-249264D01*
X97930Y-249396D01*
X97823Y-249537D01*
X97695Y-249688D01*
X97687Y-249696D01*
X97360Y-250000D01*
X86440D01*
Y-263080D01*
X101520D01*
Y-254362D01*
X102548Y-253560D01*
X102612Y-253561D01*
X102914Y-253444D01*
X103770D01*
X105111Y-252888D01*
X106381Y-253466D01*
Y-264922D01*
X106559Y-265814D01*
X107064Y-266570D01*
X111382Y-270888D01*
X111570Y-271014D01*
Y-276780D01*
X124650D01*
Y-261700D01*
X111570D01*
X111043Y-260648D01*
Y-227520D01*
X125688D01*
Y-214440D01*
X121711D01*
Y-213234D01*
X121789Y-213070D01*
X121798Y-212906D01*
X121811Y-212822D01*
X121837Y-212725D01*
X121879Y-212612D01*
X121940Y-212482D01*
X122025Y-212334D01*
X122135Y-212171D01*
X122273Y-211993D01*
X122439Y-211802D01*
X122663Y-211572D01*
X122780Y-211278D01*
X123215Y-210843D01*
X123904Y-209180D01*
Y-207380D01*
X123215Y-205717D01*
X122052Y-204555D01*
X121993Y-203835D01*
X122052Y-203116D01*
X123215Y-201953D01*
X123904Y-200290D01*
Y-198490D01*
X123215Y-196827D01*
X123158Y-196770D01*
X123380Y-195500D01*
X123380D01*
X123380Y-195500D01*
Y-180420D01*
X123380D01*
Y-180260D01*
X123380D01*
Y-165180D01*
X110300D01*
Y-179122D01*
X109030Y-179648D01*
X103034Y-173652D01*
Y-139073D01*
X102856Y-138181D01*
X102351Y-137425D01*
X96440Y-131514D01*
Y-128061D01*
X108030D01*
Y-132270D01*
X121901D01*
X122223Y-132270D01*
X122865Y-133540D01*
X122550Y-134430D01*
X108030D01*
Y-147510D01*
X123000D01*
Y-162480D01*
X136080D01*
Y-147400D01*
X136080D01*
X136080Y-147202D01*
X136080D01*
Y-132122D01*
X124209D01*
X123110Y-132122D01*
X123110Y-131046D01*
Y-119190D01*
X116334D01*
X115808Y-117920D01*
X116357Y-117371D01*
X117046Y-115708D01*
Y-115092D01*
X117171Y-114802D01*
X117176Y-114481D01*
X117193Y-114228D01*
X117221Y-114005D01*
X117259Y-113812D01*
X117303Y-113648D01*
X117352Y-113512D01*
X117402Y-113403D01*
X117453Y-113315D01*
X117503Y-113247D01*
X117612Y-113125D01*
X117673Y-112953D01*
X121869Y-108757D01*
X142456D01*
X143348Y-108579D01*
X144104Y-108074D01*
X146886Y-105292D01*
X148134D01*
X148660Y-106562D01*
X148565Y-106657D01*
X147876Y-108320D01*
Y-110120D01*
X148565Y-111783D01*
X148987Y-112205D01*
X149090Y-112484D01*
X149194Y-112596D01*
X149239Y-112655D01*
X149283Y-112725D01*
X149325Y-112808D01*
X149364Y-112909D01*
X149401Y-113029D01*
X149433Y-113171D01*
X149458Y-113337D01*
X149474Y-113526D01*
X149481Y-113783D01*
X149551Y-113940D01*
Y-116610D01*
X149483Y-116755D01*
X149472Y-116958D01*
X138240D01*
Y-132038D01*
X150050D01*
X150891Y-132038D01*
X151248Y-133160D01*
X151248Y-133254D01*
X151248Y-134252D01*
Y-146240D01*
X166328D01*
Y-146240D01*
X166488D01*
Y-146240D01*
X180458D01*
X181568Y-146240D01*
Y-146240D01*
X181728D01*
Y-146240D01*
X196808D01*
Y-136456D01*
X198150Y-135114D01*
X198655Y-134358D01*
X198743Y-133915D01*
X198909Y-133584D01*
X199205Y-133288D01*
X199358Y-133100D01*
X199921Y-132867D01*
X201193Y-131595D01*
X201882Y-129932D01*
Y-128132D01*
X201193Y-126469D01*
X199921Y-125197D01*
X198887Y-124769D01*
X199140Y-123499D01*
X207352D01*
X207505Y-123568D01*
X207944Y-123584D01*
X208304Y-123624D01*
X208646Y-123689D01*
X208973Y-123779D01*
X209286Y-123894D01*
X209589Y-124035D01*
X209883Y-124202D01*
X210171Y-124398D01*
X210455Y-124624D01*
X210776Y-124923D01*
X210933Y-124982D01*
X233490Y-147539D01*
Y-157400D01*
X237111D01*
X237111Y-157412D01*
X237181Y-157570D01*
Y-158590D01*
X237111Y-158748D01*
X237111Y-158760D01*
X234620D01*
Y-173340D01*
X249200D01*
Y-162451D01*
X250203Y-162141D01*
X250470Y-162126D01*
X251691Y-163347D01*
X253354Y-164036D01*
X255154D01*
X256817Y-163347D01*
X258089Y-162075D01*
X258778Y-160412D01*
Y-158612D01*
X258089Y-156949D01*
X257654Y-156514D01*
X257537Y-156220D01*
X257313Y-155990D01*
X257147Y-155799D01*
X257009Y-155621D01*
X256899Y-155458D01*
X256814Y-155310D01*
X256753Y-155180D01*
X256711Y-155067D01*
X256685Y-154970D01*
X256672Y-154886D01*
X256663Y-154722D01*
X256585Y-154558D01*
Y-132029D01*
X288975Y-99639D01*
X289147Y-99578D01*
X289269Y-99469D01*
X289338Y-99419D01*
X289425Y-99368D01*
X289534Y-99318D01*
X289670Y-99269D01*
X289833Y-99225D01*
X290027Y-99187D01*
X290250Y-99159D01*
X290503Y-99142D01*
X290824Y-99137D01*
X291114Y-99012D01*
X291730D01*
X293393Y-98323D01*
X294665Y-97051D01*
X295354Y-95388D01*
Y-93588D01*
X294665Y-91925D01*
X293393Y-90653D01*
X291730Y-89964D01*
X289930D01*
X288267Y-90653D01*
X286995Y-91925D01*
X286306Y-93588D01*
Y-94204D01*
X286181Y-94494D01*
X286176Y-94815D01*
X286159Y-95068D01*
X286131Y-95291D01*
X286093Y-95485D01*
X286049Y-95648D01*
X286000Y-95784D01*
X285950Y-95893D01*
X285899Y-95981D01*
X285849Y-96049D01*
X285740Y-96171D01*
X285679Y-96343D01*
X252606Y-129416D01*
X252101Y-130172D01*
X251923Y-131064D01*
Y-154558D01*
X251845Y-154722D01*
X251836Y-154886D01*
X251823Y-154970D01*
X251797Y-155067D01*
X251755Y-155181D01*
X251694Y-155310D01*
X251609Y-155458D01*
X251499Y-155621D01*
X251362Y-155799D01*
X251195Y-155990D01*
X250971Y-156220D01*
X250854Y-156514D01*
X250419Y-156949D01*
X250049Y-157842D01*
X249285Y-158668D01*
X248557Y-158760D01*
X244078D01*
X243988Y-158670D01*
X244510Y-157400D01*
X246570D01*
Y-142320D01*
X236329D01*
X214962Y-120954D01*
X214904Y-120796D01*
X214604Y-120475D01*
X214378Y-120191D01*
X214182Y-119903D01*
X214015Y-119609D01*
X213874Y-119306D01*
X213759Y-118993D01*
X213669Y-118666D01*
X213604Y-118324D01*
X213564Y-117964D01*
X213549Y-117525D01*
X213479Y-117372D01*
Y-105500D01*
X213549Y-105343D01*
X213549Y-105330D01*
X219900D01*
Y-90250D01*
X216279D01*
X216279Y-90237D01*
X216209Y-90079D01*
Y-87990D01*
X216279Y-87832D01*
X216279Y-87820D01*
X220938D01*
X220938Y-87820D01*
Y-87820D01*
X222208Y-87636D01*
X222227Y-87655D01*
X223890Y-88344D01*
X225690D01*
X227353Y-87655D01*
X228625Y-86383D01*
X229314Y-84720D01*
Y-82920D01*
X228625Y-81257D01*
X228203Y-80835D01*
X228100Y-80556D01*
X227996Y-80444D01*
X227951Y-80385D01*
X227907Y-80315D01*
X227866Y-80232D01*
X227826Y-80131D01*
X227789Y-80011D01*
X227757Y-79869D01*
X227732Y-79703D01*
X227716Y-79514D01*
X227709Y-79257D01*
X227639Y-79100D01*
Y-76200D01*
X227422Y-75110D01*
X226804Y-74186D01*
X226804Y-74186D01*
X224010Y-71392D01*
X223086Y-70774D01*
X221996Y-70557D01*
X220938Y-69861D01*
Y-59500D01*
X212717D01*
X212627Y-59045D01*
X212009Y-58120D01*
X212009Y-58120D01*
X202436Y-48547D01*
X202391Y-48409D01*
X202159Y-48137D01*
X201958Y-47834D01*
X201723Y-47398D01*
X201468Y-46838D01*
X201215Y-46195D01*
X200828Y-44873D01*
X200914Y-44551D01*
Y-41809D01*
X200204Y-39160D01*
X198833Y-36786D01*
X196894Y-34847D01*
X194520Y-33476D01*
X191871Y-32766D01*
D02*
G37*
G36*
X512000Y-21670D02*
X498920D01*
Y-31117D01*
X496650D01*
X495758Y-31295D01*
X495002Y-31800D01*
X487641Y-39160D01*
X487136Y-39916D01*
X486330Y-40574D01*
X486087Y-40688D01*
X485256D01*
X483593Y-41377D01*
X482321Y-42649D01*
X481632Y-44312D01*
Y-46112D01*
X482321Y-47775D01*
X483593Y-49047D01*
X485256Y-49736D01*
X487056D01*
X488719Y-49047D01*
X489355Y-48411D01*
X490625Y-48937D01*
Y-60681D01*
X491108Y-61847D01*
X495197Y-65936D01*
X496364Y-66420D01*
X498197D01*
X498920Y-67390D01*
X498920Y-68500D01*
Y-72599D01*
X497027D01*
X491307Y-66879D01*
X491246Y-66707D01*
X491137Y-66585D01*
X491087Y-66516D01*
X491036Y-66429D01*
X490986Y-66320D01*
X490937Y-66184D01*
X490893Y-66021D01*
X490855Y-65827D01*
X490827Y-65604D01*
X490810Y-65351D01*
X490805Y-65030D01*
X490680Y-64740D01*
Y-64124D01*
X489991Y-62461D01*
X488719Y-61189D01*
X487056Y-60500D01*
X485256D01*
X483593Y-61189D01*
X482321Y-62461D01*
X481632Y-64124D01*
Y-65924D01*
X482321Y-67587D01*
X483593Y-68859D01*
X485256Y-69548D01*
X485872D01*
X486162Y-69673D01*
X486483Y-69678D01*
X486736Y-69695D01*
X486959Y-69723D01*
X487152Y-69761D01*
X487316Y-69805D01*
X487452Y-69854D01*
X487561Y-69904D01*
X487649Y-69955D01*
X487717Y-70005D01*
X487839Y-70114D01*
X488011Y-70175D01*
X494414Y-76578D01*
X495170Y-77083D01*
X496062Y-77261D01*
X498920D01*
Y-82470D01*
X512000D01*
Y-68500D01*
X512000Y-67390D01*
X512000Y-66120D01*
Y-52150D01*
X512000D01*
Y-51952D01*
X512000D01*
Y-36872D01*
X512000D01*
Y-36750D01*
X512000D01*
Y-21670D01*
D02*
G37*
G36*
X446024Y-82747D02*
X437896D01*
X436172Y-82974D01*
X434566Y-83639D01*
X433186Y-84698D01*
X432127Y-86077D01*
X431462Y-87684D01*
X431235Y-89408D01*
X431462Y-91132D01*
X432127Y-92739D01*
X433186Y-94118D01*
X434566Y-95177D01*
X436172Y-95842D01*
X437896Y-96069D01*
X446024D01*
X447748Y-95842D01*
X449355Y-95177D01*
X450734Y-94118D01*
X451395Y-93256D01*
X451589Y-93243D01*
X453252Y-93932D01*
X455052D01*
X456715Y-93243D01*
X457987Y-91971D01*
X458676Y-90308D01*
Y-88508D01*
X457987Y-86845D01*
X456715Y-85573D01*
X455052Y-84884D01*
X453252D01*
X451589Y-85573D01*
X451395Y-85560D01*
X450734Y-84698D01*
X449355Y-83639D01*
X447748Y-82974D01*
X446024Y-82747D01*
D02*
G37*
G36*
X298042Y-4404D02*
X296242D01*
X294579Y-5093D01*
X293307Y-6365D01*
X292618Y-8028D01*
Y-8644D01*
X292493Y-8934D01*
X292488Y-9255D01*
X292471Y-9508D01*
X292443Y-9731D01*
X292405Y-9924D01*
X292361Y-10088D01*
X292312Y-10224D01*
X292262Y-10333D01*
X292211Y-10421D01*
X292161Y-10489D01*
X292052Y-10611D01*
X291991Y-10783D01*
X288928Y-13846D01*
X288423Y-14602D01*
X288245Y-15494D01*
Y-81077D01*
X279985Y-89337D01*
X279813Y-89398D01*
X279691Y-89507D01*
X279622Y-89557D01*
X279535Y-89608D01*
X279426Y-89658D01*
X279290Y-89707D01*
X279127Y-89751D01*
X278933Y-89789D01*
X278710Y-89817D01*
X278457Y-89834D01*
X278136Y-89839D01*
X277846Y-89964D01*
X277230D01*
X275567Y-90653D01*
X274295Y-91925D01*
X273606Y-93588D01*
Y-95388D01*
X274295Y-97051D01*
X275567Y-98323D01*
X277230Y-99012D01*
X279030D01*
X280693Y-98323D01*
X281965Y-97051D01*
X282654Y-95388D01*
Y-94772D01*
X282779Y-94482D01*
X282784Y-94161D01*
X282801Y-93908D01*
X282829Y-93685D01*
X282867Y-93491D01*
X282911Y-93328D01*
X282960Y-93192D01*
X283010Y-93083D01*
X283061Y-92996D01*
X283111Y-92927D01*
X283220Y-92805D01*
X283281Y-92633D01*
X292224Y-83690D01*
X292729Y-82934D01*
X292907Y-82042D01*
Y-16459D01*
X295287Y-14079D01*
X295459Y-14018D01*
X295581Y-13909D01*
X295650Y-13859D01*
X295737Y-13808D01*
X295846Y-13758D01*
X295982Y-13709D01*
X296145Y-13665D01*
X296339Y-13627D01*
X296562Y-13599D01*
X296815Y-13582D01*
X297136Y-13577D01*
X297426Y-13452D01*
X298042D01*
X299705Y-12763D01*
X300977Y-11491D01*
X301666Y-9828D01*
Y-8028D01*
X300977Y-6365D01*
X299705Y-5093D01*
X298042Y-4404D01*
D02*
G37*
G36*
X488160Y-80735D02*
X486049Y-81155D01*
X484260Y-82350D01*
X483065Y-84139D01*
X482645Y-86250D01*
X483065Y-88361D01*
X484260Y-90150D01*
X486049Y-91345D01*
X487405Y-91615D01*
X487707Y-91675D01*
X487582Y-92945D01*
X484130D01*
Y-99280D01*
X497298D01*
X497206Y-98582D01*
X496446Y-96748D01*
X495238Y-95172D01*
X493662Y-93964D01*
X491828Y-93204D01*
X489860Y-92945D01*
X488738D01*
X488613Y-91675D01*
X488915Y-91615D01*
X490271Y-91345D01*
X492060Y-90150D01*
X493255Y-88361D01*
X493675Y-86250D01*
X493255Y-84139D01*
X492060Y-82350D01*
X490271Y-81155D01*
X488160Y-80735D01*
D02*
G37*
G36*
X528660Y-92945D02*
X525930D01*
Y-99280D01*
X536098D01*
X536006Y-98582D01*
X535246Y-96748D01*
X534038Y-95172D01*
X532463Y-93964D01*
X530628Y-93204D01*
X528660Y-92945D01*
D02*
G37*
G36*
X523390D02*
X520660D01*
X518692Y-93204D01*
X516857Y-93964D01*
X515282Y-95172D01*
X514074Y-96748D01*
X513314Y-98582D01*
X513222Y-99280D01*
X523390D01*
Y-92945D01*
D02*
G37*
G36*
X481590D02*
X475860D01*
X473892Y-93204D01*
X472057Y-93964D01*
X470482Y-95172D01*
X469274Y-96748D01*
X468514Y-98582D01*
X468422Y-99280D01*
X481590D01*
Y-92945D01*
D02*
G37*
G36*
X536098Y-101820D02*
X525930D01*
Y-108155D01*
X528660D01*
X530628Y-107896D01*
X532463Y-107136D01*
X534038Y-105928D01*
X535246Y-104353D01*
X536006Y-102518D01*
X536098Y-101820D01*
D02*
G37*
G36*
X523390D02*
X513222D01*
X513314Y-102518D01*
X514074Y-104353D01*
X515282Y-105928D01*
X516857Y-107136D01*
X518692Y-107896D01*
X520660Y-108155D01*
X523390D01*
Y-101820D01*
D02*
G37*
G36*
X497298D02*
X484130D01*
Y-108155D01*
X489860D01*
X491828Y-107896D01*
X493662Y-107136D01*
X495238Y-105928D01*
X496446Y-104353D01*
X497206Y-102518D01*
X497298Y-101820D01*
D02*
G37*
G36*
X481590D02*
X468422D01*
X468514Y-102518D01*
X469274Y-104353D01*
X470482Y-105928D01*
X472057Y-107136D01*
X473892Y-107896D01*
X475860Y-108155D01*
X481590D01*
Y-101820D01*
D02*
G37*
G36*
X489860Y-129545D02*
X484130D01*
Y-135880D01*
X497298D01*
X497206Y-135182D01*
X496446Y-133348D01*
X495238Y-131772D01*
X493662Y-130564D01*
X491828Y-129804D01*
X489860Y-129545D01*
D02*
G37*
G36*
X528660D02*
X525930D01*
Y-135880D01*
X536098D01*
X536006Y-135182D01*
X535246Y-133348D01*
X534038Y-131772D01*
X532463Y-130564D01*
X530628Y-129804D01*
X528660Y-129545D01*
D02*
G37*
G36*
X523390D02*
X520660D01*
X518692Y-129804D01*
X516857Y-130564D01*
X515282Y-131772D01*
X514074Y-133348D01*
X513314Y-135182D01*
X513222Y-135880D01*
X523390D01*
Y-129545D01*
D02*
G37*
G36*
X481590D02*
X475860D01*
X473892Y-129804D01*
X472057Y-130564D01*
X470482Y-131772D01*
X469274Y-133348D01*
X468514Y-135182D01*
X468422Y-135880D01*
X481590D01*
Y-129545D01*
D02*
G37*
G36*
X536098Y-138420D02*
X525930D01*
Y-144755D01*
X528660D01*
X530628Y-144496D01*
X532463Y-143736D01*
X534038Y-142528D01*
X535246Y-140953D01*
X536006Y-139118D01*
X536098Y-138420D01*
D02*
G37*
G36*
X523390D02*
X513222D01*
X513314Y-139118D01*
X514074Y-140953D01*
X515282Y-142528D01*
X516857Y-143736D01*
X518692Y-144496D01*
X520660Y-144755D01*
X523390D01*
Y-138420D01*
D02*
G37*
G36*
X481590D02*
X468422D01*
X468514Y-139118D01*
X469274Y-140953D01*
X470482Y-142528D01*
X472057Y-143736D01*
X473892Y-144496D01*
X475860Y-144755D01*
X481590D01*
Y-138420D01*
D02*
G37*
G36*
X346594Y-144320D02*
X344794D01*
X343131Y-145009D01*
X341859Y-146281D01*
X341170Y-147944D01*
Y-149744D01*
X341435Y-150384D01*
X341231Y-150689D01*
X340701Y-151383D01*
X339444Y-151383D01*
X338777Y-150384D01*
X339042Y-149744D01*
Y-147944D01*
X338353Y-146281D01*
X337081Y-145009D01*
X335418Y-144320D01*
X333618D01*
X331955Y-145009D01*
X330683Y-146281D01*
X329994Y-147944D01*
Y-149744D01*
X330103Y-150006D01*
X329370Y-151155D01*
X328733Y-151165D01*
X327988Y-150061D01*
X328120Y-149744D01*
Y-147944D01*
X327431Y-146281D01*
X326159Y-145009D01*
X324496Y-144320D01*
X322696D01*
X321033Y-145009D01*
X319761Y-146281D01*
X319072Y-147944D01*
Y-149744D01*
X319337Y-150384D01*
X318489Y-151654D01*
X317414D01*
Y-174734D01*
X328414D01*
Y-174734D01*
X339414D01*
Y-174734D01*
X351494D01*
Y-151654D01*
X350801D01*
X349953Y-150384D01*
X350218Y-149744D01*
Y-147944D01*
X349529Y-146281D01*
X348257Y-145009D01*
X346594Y-144320D01*
D02*
G37*
G36*
X379354Y-135170D02*
X377554D01*
X375891Y-135859D01*
X374619Y-137131D01*
X373930Y-138794D01*
Y-140594D01*
X374619Y-142257D01*
X375054Y-142692D01*
X375171Y-142986D01*
X375395Y-143216D01*
X375561Y-143407D01*
X375699Y-143585D01*
X375809Y-143748D01*
X375894Y-143896D01*
X375955Y-144025D01*
X375997Y-144139D01*
X376023Y-144236D01*
X376036Y-144320D01*
X376045Y-144484D01*
X376123Y-144648D01*
Y-151654D01*
X372624D01*
X371919Y-150598D01*
X372062Y-150252D01*
Y-148452D01*
X371373Y-146789D01*
X370101Y-145517D01*
X368438Y-144828D01*
X366638D01*
X364975Y-145517D01*
X363703Y-146789D01*
X363014Y-148452D01*
Y-150252D01*
X363157Y-150598D01*
X362452Y-151654D01*
X361414D01*
Y-174734D01*
X383414D01*
Y-174734D01*
X395494D01*
Y-174734D01*
X405414D01*
Y-174734D01*
X417494D01*
Y-151654D01*
X413921D01*
X413215Y-150598D01*
X413464Y-149998D01*
Y-148198D01*
X412775Y-146535D01*
X411503Y-145263D01*
X409840Y-144574D01*
X408040D01*
X406377Y-145263D01*
X405394Y-146246D01*
X404622Y-146424D01*
X403850Y-146246D01*
X402867Y-145263D01*
X401204Y-144574D01*
X399404D01*
X397741Y-145263D01*
X396469Y-146535D01*
X395780Y-148198D01*
Y-149998D01*
X394984Y-151213D01*
X394675Y-151240D01*
X393846Y-150143D01*
X393906Y-149998D01*
Y-148198D01*
X393217Y-146535D01*
X391945Y-145263D01*
X390282Y-144574D01*
X388482D01*
X386819Y-145263D01*
X385547Y-146535D01*
X384858Y-148198D01*
Y-149998D01*
X385126Y-150646D01*
X384169Y-151654D01*
X380785D01*
Y-144648D01*
X380863Y-144484D01*
X380872Y-144320D01*
X380885Y-144236D01*
X380911Y-144139D01*
X380953Y-144025D01*
X381014Y-143896D01*
X381099Y-143748D01*
X381209Y-143585D01*
X381347Y-143407D01*
X381513Y-143216D01*
X381737Y-142986D01*
X381854Y-142692D01*
X382289Y-142257D01*
X382978Y-140594D01*
Y-138794D01*
X382289Y-137131D01*
X381017Y-135859D01*
X379354Y-135170D01*
D02*
G37*
G36*
X497298Y-138420D02*
X484130D01*
Y-144755D01*
X487582D01*
X487707Y-146025D01*
X487405Y-146085D01*
X486049Y-146355D01*
X484260Y-147550D01*
X483065Y-149340D01*
X482645Y-151450D01*
X483065Y-153560D01*
X484260Y-155350D01*
X486049Y-156545D01*
X488160Y-156965D01*
X490271Y-156545D01*
X492060Y-155350D01*
X493255Y-153560D01*
X493675Y-151450D01*
X493255Y-149340D01*
X492060Y-147550D01*
X490271Y-146355D01*
X488915Y-146085D01*
X488613Y-146025D01*
X488738Y-144755D01*
X489860D01*
X491828Y-144496D01*
X493662Y-143736D01*
X495238Y-142528D01*
X496446Y-140953D01*
X497206Y-139118D01*
X497298Y-138420D01*
D02*
G37*
G36*
X512000Y-143336D02*
X498920D01*
Y-158416D01*
Y-167030D01*
X498237Y-167713D01*
X493847D01*
X492681Y-168196D01*
X491950Y-168927D01*
X490680Y-168401D01*
Y-167312D01*
X489991Y-165649D01*
X488719Y-164377D01*
X487056Y-163688D01*
X485256D01*
X483593Y-164377D01*
X482321Y-165649D01*
X481632Y-167312D01*
Y-169112D01*
X482321Y-170775D01*
X482756Y-171210D01*
X482873Y-171504D01*
X483097Y-171734D01*
X483263Y-171925D01*
X483401Y-172103D01*
X483511Y-172266D01*
X483596Y-172414D01*
X483657Y-172544D01*
X483699Y-172657D01*
X483725Y-172754D01*
X483738Y-172838D01*
X483747Y-173002D01*
X483825Y-173166D01*
Y-180767D01*
X484003Y-181660D01*
X484508Y-182416D01*
X485879Y-183787D01*
X485393Y-184960D01*
X485256D01*
X483593Y-185649D01*
X482321Y-186921D01*
X481632Y-188584D01*
Y-190384D01*
X482321Y-192047D01*
X483593Y-193319D01*
X484767Y-193805D01*
X484999Y-193987D01*
X485705Y-194182D01*
X485955Y-194265D01*
X486452Y-194465D01*
X486619Y-194547D01*
X486770Y-194631D01*
X486888Y-194708D01*
X486973Y-194773D01*
X487087Y-194877D01*
X487261Y-194940D01*
X498920Y-206598D01*
Y-217382D01*
X512000D01*
Y-202612D01*
Y-187880D01*
Y-173148D01*
Y-158416D01*
Y-143336D01*
D02*
G37*
G36*
X442098Y-127556D02*
X440298D01*
X438635Y-128245D01*
X437363Y-129517D01*
X436674Y-131180D01*
Y-132980D01*
X437363Y-134643D01*
X438635Y-135915D01*
X440298Y-136604D01*
X442098D01*
X442667Y-136985D01*
Y-172720D01*
X442667Y-172720D01*
X442884Y-173810D01*
X443502Y-174734D01*
X450541Y-181774D01*
Y-202454D01*
X449271Y-203037D01*
X449163Y-202993D01*
X449008Y-202803D01*
X448582Y-202278D01*
X448414Y-201986D01*
X448337Y-201596D01*
X447832Y-200840D01*
X444734Y-197742D01*
X443977Y-197237D01*
X443086Y-197059D01*
X297180D01*
X296288Y-197237D01*
X295532Y-197742D01*
X250495Y-242779D01*
X237220D01*
X236328Y-242957D01*
X235572Y-243462D01*
X232844Y-246190D01*
X221060D01*
Y-259270D01*
X235030D01*
X236140Y-259270D01*
Y-259270D01*
X236300D01*
Y-259270D01*
X251380D01*
Y-251823D01*
X251388D01*
X252281Y-251645D01*
X253037Y-251140D01*
X298646Y-205531D01*
X434896D01*
Y-205576D01*
X435585Y-207239D01*
X436857Y-208511D01*
X438520Y-209200D01*
X440320D01*
X441477Y-208721D01*
X443022Y-209131D01*
X443205Y-209573D01*
X444477Y-210845D01*
X446140Y-211534D01*
X446851D01*
X447310Y-212642D01*
X446521Y-213607D01*
X339804D01*
X339804Y-213607D01*
X338714Y-213824D01*
X337790Y-214442D01*
X337790Y-214442D01*
X332368Y-219864D01*
X331750Y-220788D01*
X331533Y-221878D01*
X331533Y-221878D01*
Y-239826D01*
X331532Y-239828D01*
X330429Y-240270D01*
X319104D01*
X318578Y-239000D01*
X318795Y-238783D01*
X319484Y-237120D01*
Y-235320D01*
X318795Y-233657D01*
X317523Y-232385D01*
X315860Y-231696D01*
X314060D01*
X312397Y-232385D01*
X311234Y-233548D01*
X310515Y-233607D01*
X309795Y-233548D01*
X308633Y-232385D01*
X306970Y-231696D01*
X305170D01*
X303507Y-232385D01*
X302344Y-233548D01*
X301625Y-233607D01*
X300905Y-233548D01*
X299743Y-232385D01*
X298080Y-231696D01*
X296280D01*
X294617Y-232385D01*
X293345Y-233657D01*
X292656Y-235320D01*
Y-237120D01*
X293345Y-238783D01*
X294617Y-240055D01*
X296280Y-240744D01*
X296368D01*
X296894Y-242014D01*
X289868Y-249040D01*
Y-266580D01*
X298638Y-275350D01*
X336178D01*
X344948Y-266580D01*
Y-249040D01*
X337309Y-241401D01*
X337301Y-241027D01*
X337231Y-240866D01*
Y-223058D01*
X340984Y-219305D01*
X440719D01*
X441567Y-220575D01*
X441246Y-221350D01*
Y-223150D01*
X441935Y-224813D01*
X443182Y-226060D01*
X441935Y-227307D01*
X441246Y-228970D01*
Y-230770D01*
X441935Y-232433D01*
X443207Y-233705D01*
X444870Y-234394D01*
X446670D01*
X448333Y-233705D01*
X449580Y-232458D01*
X450827Y-233705D01*
X452490Y-234394D01*
X454290D01*
X455953Y-233705D01*
X457225Y-232433D01*
X457914Y-230770D01*
Y-228970D01*
X457225Y-227307D01*
X455978Y-226060D01*
X457225Y-224813D01*
X457914Y-223150D01*
Y-221350D01*
X457225Y-219687D01*
X455953Y-218415D01*
X454290Y-217726D01*
X452490D01*
X452181Y-217854D01*
X451461Y-216778D01*
X455404Y-212834D01*
X455404Y-212834D01*
X456022Y-211910D01*
X456239Y-210820D01*
X456239Y-210820D01*
Y-180594D01*
X456022Y-179504D01*
X455404Y-178580D01*
X455404Y-178580D01*
X448365Y-171540D01*
Y-133975D01*
X448148Y-132885D01*
X447530Y-131961D01*
X447530Y-131961D01*
X446492Y-130922D01*
X445568Y-130304D01*
X445341Y-130259D01*
X445033Y-129517D01*
X443761Y-128245D01*
X442098Y-127556D01*
D02*
G37*
G36*
X173910Y-192850D02*
X158830D01*
Y-205930D01*
X158830Y-205930D01*
X158941Y-207200D01*
X157836Y-208305D01*
X157812Y-208310D01*
X156702Y-207200D01*
X156797Y-206566D01*
X157091Y-205930D01*
X157400D01*
Y-192850D01*
X142320D01*
Y-205930D01*
X142883D01*
X143029Y-206185D01*
X143272Y-207200D01*
X142215Y-208257D01*
X141526Y-209920D01*
Y-211720D01*
X142127Y-213170D01*
X141801Y-213975D01*
X141476Y-214440D01*
X141185Y-214440D01*
X141185Y-214440D01*
X141173Y-214440D01*
X127080D01*
Y-227520D01*
X138864D01*
X142718Y-231374D01*
X143474Y-231879D01*
X144366Y-232057D01*
X145050D01*
X145214Y-232135D01*
X145378Y-232144D01*
X145462Y-232157D01*
X145559Y-232183D01*
X145673Y-232225D01*
X145802Y-232286D01*
X145950Y-232371D01*
X146113Y-232481D01*
X146291Y-232619D01*
X146482Y-232785D01*
X146712Y-233009D01*
X147006Y-233126D01*
X147441Y-233561D01*
X149104Y-234250D01*
X150904D01*
X152567Y-233561D01*
X153839Y-232289D01*
X154528Y-230626D01*
Y-228826D01*
X153839Y-227163D01*
X152567Y-225891D01*
X150904Y-225202D01*
X149104D01*
X147441Y-225891D01*
X147006Y-226326D01*
X146712Y-226443D01*
X146482Y-226667D01*
X146291Y-226833D01*
X146113Y-226971D01*
X145950Y-227081D01*
X145802Y-227166D01*
X145672Y-227227D01*
X145559Y-227269D01*
X145462Y-227295D01*
X145378Y-227308D01*
X145251Y-227315D01*
X142160Y-224224D01*
X142160Y-215427D01*
Y-215395D01*
Y-215395D01*
X142160Y-215124D01*
X143430Y-214598D01*
X143487Y-214655D01*
X145150Y-215344D01*
X146950D01*
X148613Y-214655D01*
X149157Y-214111D01*
X150069Y-213526D01*
X150817Y-214111D01*
X151441Y-214735D01*
X153104Y-215424D01*
X154904D01*
X156567Y-214735D01*
X157839Y-213463D01*
X157863Y-213458D01*
X159108Y-214703D01*
X160771Y-215392D01*
X162571D01*
X164234Y-214703D01*
X165141Y-213796D01*
X165891Y-213538D01*
X166738Y-213776D01*
X167617Y-214655D01*
X168990Y-215224D01*
Y-227520D01*
X184070D01*
Y-214440D01*
X176225D01*
X176071Y-213666D01*
X175566Y-212910D01*
X175331Y-212675D01*
X175270Y-212503D01*
X175161Y-212381D01*
X175111Y-212313D01*
X175060Y-212225D01*
X175010Y-212116D01*
X174961Y-211980D01*
X174917Y-211817D01*
X174879Y-211623D01*
X174851Y-211400D01*
X174834Y-211147D01*
X174829Y-210826D01*
X174704Y-210536D01*
Y-209920D01*
X174015Y-208257D01*
X172958Y-207200D01*
X173201Y-206185D01*
X173347Y-205930D01*
X173910D01*
Y-192850D01*
D02*
G37*
G36*
X207200Y-163948D02*
X194120D01*
Y-179028D01*
X194120D01*
Y-179150D01*
X194120D01*
Y-194230D01*
X195474D01*
X196322Y-195500D01*
X196136Y-195950D01*
Y-197750D01*
X196825Y-199413D01*
X198097Y-200685D01*
X199760Y-201374D01*
X200052D01*
X200859Y-202078D01*
X201065Y-202282D01*
X201204Y-202338D01*
X207040Y-208174D01*
X208174Y-208932D01*
X209512Y-209198D01*
X216838D01*
X216967Y-209256D01*
X217647Y-209274D01*
X218186Y-209321D01*
X218250Y-209331D01*
Y-213242D01*
X231330D01*
Y-198162D01*
X231330D01*
X231361Y-196905D01*
X231405Y-196840D01*
X239700D01*
Y-182260D01*
X225120D01*
Y-191683D01*
X224530Y-192378D01*
X223810Y-193123D01*
X223757Y-193259D01*
X222318Y-194698D01*
X221560Y-195832D01*
X221355Y-196860D01*
X221236Y-197130D01*
X221220Y-197766D01*
X221188Y-198162D01*
X218250D01*
Y-202073D01*
X218186Y-202083D01*
X217647Y-202130D01*
X216967Y-202148D01*
X216838Y-202206D01*
X210960D01*
X206154Y-197400D01*
X206099Y-197262D01*
X205664Y-196817D01*
X205359Y-196483D01*
X205184Y-196270D01*
Y-195950D01*
X204998Y-195500D01*
X205846Y-194230D01*
X207200D01*
Y-179150D01*
X207200D01*
Y-179028D01*
X207200D01*
Y-163948D01*
D02*
G37*
G36*
X488160Y-203735D02*
X486049Y-204155D01*
X484260Y-205350D01*
X483065Y-207139D01*
X482645Y-209250D01*
X483065Y-211360D01*
X484260Y-213150D01*
X486049Y-214345D01*
X487405Y-214615D01*
X487707Y-214675D01*
X487582Y-215945D01*
X484130D01*
Y-222280D01*
X497298D01*
X497206Y-221582D01*
X496446Y-219748D01*
X495238Y-218172D01*
X493662Y-216964D01*
X491828Y-216204D01*
X489860Y-215945D01*
X488738D01*
X488613Y-214675D01*
X488915Y-214615D01*
X490271Y-214345D01*
X492060Y-213150D01*
X493255Y-211360D01*
X493675Y-209250D01*
X493255Y-207139D01*
X492060Y-205350D01*
X490271Y-204155D01*
X488160Y-203735D01*
D02*
G37*
G36*
X523390Y-215945D02*
X520660D01*
X518692Y-216204D01*
X516857Y-216964D01*
X515282Y-218172D01*
X514074Y-219748D01*
X513314Y-221582D01*
X513222Y-222280D01*
X523390D01*
Y-215945D01*
D02*
G37*
G36*
X481590D02*
X475860D01*
X473892Y-216204D01*
X472057Y-216964D01*
X470482Y-218172D01*
X469274Y-219748D01*
X468514Y-221582D01*
X468422Y-222280D01*
X481590D01*
Y-215945D01*
D02*
G37*
G36*
X523390Y-224820D02*
X513222D01*
X513314Y-225518D01*
X514074Y-227353D01*
X515282Y-228928D01*
X516857Y-230136D01*
X518692Y-230896D01*
X520660Y-231155D01*
X523390D01*
Y-224820D01*
D02*
G37*
G36*
X497298D02*
X484130D01*
Y-231155D01*
X489860D01*
X491828Y-230896D01*
X493662Y-230136D01*
X495238Y-228928D01*
X496446Y-227353D01*
X497206Y-225518D01*
X497298Y-224820D01*
D02*
G37*
G36*
X481590D02*
X468422D01*
X468514Y-225518D01*
X469274Y-227353D01*
X470482Y-228928D01*
X472057Y-230136D01*
X473892Y-230896D01*
X475860Y-231155D01*
X481590D01*
Y-224820D01*
D02*
G37*
G36*
X163460Y-240332D02*
X161660D01*
X159997Y-241021D01*
X158725Y-242293D01*
X158036Y-243956D01*
Y-245756D01*
X157540Y-246498D01*
X156020D01*
Y-261578D01*
X169100D01*
Y-246498D01*
X167580D01*
X167084Y-245756D01*
Y-243956D01*
X166395Y-242293D01*
X165123Y-241021D01*
X163460Y-240332D01*
D02*
G37*
G36*
X437247Y-249770D02*
X435130D01*
X433085Y-250318D01*
X431251Y-251376D01*
X429754Y-252873D01*
X428696Y-254707D01*
X428148Y-256751D01*
Y-258869D01*
X428696Y-260913D01*
X429754Y-262747D01*
X431251Y-264244D01*
X433085Y-265302D01*
X435130Y-265850D01*
X437247D01*
X439291Y-265302D01*
X441125Y-264244D01*
X442622Y-262747D01*
X443680Y-260913D01*
X444228Y-258869D01*
Y-256751D01*
X443680Y-254707D01*
X442622Y-252873D01*
X441125Y-251376D01*
X439291Y-250318D01*
X437247Y-249770D01*
D02*
G37*
G36*
X362510Y-247770D02*
X359866D01*
X357313Y-248454D01*
X355023Y-249776D01*
X353154Y-251645D01*
X351832Y-253935D01*
X351148Y-256488D01*
Y-259132D01*
X351832Y-261685D01*
X353154Y-263975D01*
X355023Y-265844D01*
X357313Y-267166D01*
X359866Y-267850D01*
X362510D01*
X365063Y-267166D01*
X367353Y-265844D01*
X369222Y-263975D01*
X370544Y-261685D01*
X371228Y-259132D01*
Y-256488D01*
X370544Y-253935D01*
X369222Y-251645D01*
X367353Y-249776D01*
X365063Y-248454D01*
X362510Y-247770D01*
D02*
G37*
G36*
X139890Y-246498D02*
Y-246498D01*
X139547Y-246498D01*
X126810D01*
Y-260430D01*
X126810Y-261578D01*
X126810Y-262848D01*
Y-276780D01*
X132672D01*
Y-277243D01*
X132850Y-278135D01*
X133355Y-278891D01*
X138052Y-283588D01*
X138808Y-284093D01*
X139700Y-284271D01*
X148895D01*
X154359Y-289735D01*
X154403Y-289883D01*
X154623Y-290150D01*
X154775Y-290414D01*
X154941Y-290816D01*
X155104Y-291352D01*
X155251Y-292016D01*
X155370Y-292769D01*
X155395Y-293162D01*
X154686Y-295809D01*
Y-298551D01*
X155396Y-301200D01*
X156767Y-303574D01*
X158706Y-305513D01*
X161080Y-306884D01*
X163729Y-307594D01*
X166471D01*
X169120Y-306884D01*
X171494Y-305513D01*
X173433Y-303574D01*
X174804Y-301200D01*
X175514Y-298551D01*
Y-295809D01*
X174804Y-293160D01*
X173433Y-290786D01*
X171494Y-288847D01*
X169120Y-287476D01*
X166471Y-286766D01*
X163729D01*
X161080Y-287476D01*
X161068Y-287483D01*
X160705Y-287452D01*
X159936Y-287331D01*
X159272Y-287184D01*
X158736Y-287021D01*
X158334Y-286855D01*
X158070Y-286703D01*
X157802Y-286483D01*
X157655Y-286439D01*
X151508Y-280292D01*
X150752Y-279787D01*
X149860Y-279609D01*
X140666D01*
X139010Y-277953D01*
X139496Y-276780D01*
X140780Y-276780D01*
X141160Y-276780D01*
X153860D01*
Y-261700D01*
X153860D01*
Y-261578D01*
X153860D01*
Y-246498D01*
X141123D01*
X140780Y-246498D01*
Y-246498D01*
X139890D01*
D02*
G37*
G36*
X269160Y-261240D02*
X269160Y-261240D01*
X254080D01*
Y-274320D01*
X268050D01*
X269160Y-274320D01*
Y-274320D01*
X269320D01*
Y-274320D01*
X278419D01*
Y-304085D01*
X273494Y-309011D01*
X273421Y-309038D01*
X270945Y-311338D01*
X269912Y-312166D01*
X256286D01*
Y-332994D01*
X277114D01*
Y-319371D01*
X278997Y-317149D01*
X280220Y-315882D01*
X280251Y-315805D01*
X286598Y-309458D01*
X287636Y-307903D01*
X288001Y-306070D01*
Y-294279D01*
X289271Y-294026D01*
X289535Y-294663D01*
X290807Y-295935D01*
X292470Y-296624D01*
X294270D01*
X295933Y-295935D01*
X297205Y-294663D01*
X297894Y-293000D01*
Y-291200D01*
X297205Y-289537D01*
X295933Y-288265D01*
X294270Y-287576D01*
X292470D01*
X290807Y-288265D01*
X289535Y-289537D01*
X289271Y-290174D01*
X288001Y-289921D01*
Y-271780D01*
X287636Y-269946D01*
X286598Y-268392D01*
X284400Y-266194D01*
Y-261240D01*
X270430D01*
X269160Y-261240D01*
Y-261240D01*
D02*
G37*
G36*
X268071Y-286766D02*
X265329D01*
X262680Y-287476D01*
X260306Y-288847D01*
X258367Y-290786D01*
X256996Y-293160D01*
X256286Y-295809D01*
Y-298551D01*
X256996Y-301200D01*
X258367Y-303574D01*
X260306Y-305513D01*
X262680Y-306884D01*
X265329Y-307594D01*
X268071D01*
X270720Y-306884D01*
X273094Y-305513D01*
X275033Y-303574D01*
X276404Y-301200D01*
X277114Y-298551D01*
Y-295809D01*
X276404Y-293160D01*
X275033Y-290786D01*
X273094Y-288847D01*
X270720Y-287476D01*
X268071Y-286766D01*
D02*
G37*
G36*
X141071D02*
X138329D01*
X135680Y-287476D01*
X133306Y-288847D01*
X131367Y-290786D01*
X129996Y-293160D01*
X129286Y-295809D01*
Y-298551D01*
X129996Y-301200D01*
X131367Y-303574D01*
X133306Y-305513D01*
X135680Y-306884D01*
X138329Y-307594D01*
X141071D01*
X143720Y-306884D01*
X146094Y-305513D01*
X148033Y-303574D01*
X149404Y-301200D01*
X150114Y-298551D01*
Y-295809D01*
X149404Y-293160D01*
X148033Y-290786D01*
X146094Y-288847D01*
X143720Y-287476D01*
X141071Y-286766D01*
D02*
G37*
G36*
X115671D02*
X112929D01*
X110280Y-287476D01*
X107906Y-288847D01*
X105967Y-290786D01*
X104596Y-293160D01*
X103886Y-295809D01*
Y-298551D01*
X104596Y-301200D01*
X105967Y-303574D01*
X107906Y-305513D01*
X110280Y-306884D01*
X112929Y-307594D01*
X115671D01*
X118320Y-306884D01*
X120694Y-305513D01*
X122633Y-303574D01*
X124004Y-301200D01*
X124714Y-298551D01*
Y-295809D01*
X124004Y-293160D01*
X122633Y-290786D01*
X120694Y-288847D01*
X118320Y-287476D01*
X115671Y-286766D01*
D02*
G37*
G36*
X242671Y-312166D02*
X242570D01*
Y-321310D01*
X251714D01*
Y-321209D01*
X251004Y-318560D01*
X249633Y-316186D01*
X247694Y-314247D01*
X245320Y-312876D01*
X242671Y-312166D01*
D02*
G37*
G36*
X240030D02*
X239929D01*
X237280Y-312876D01*
X234906Y-314247D01*
X232967Y-316186D01*
X231596Y-318560D01*
X230886Y-321209D01*
Y-321310D01*
X240030D01*
Y-312166D01*
D02*
G37*
G36*
X251714Y-323850D02*
X242570D01*
Y-332994D01*
X242671D01*
X245320Y-332284D01*
X247694Y-330913D01*
X249633Y-328974D01*
X251004Y-326600D01*
X251714Y-323951D01*
Y-323850D01*
D02*
G37*
G36*
X240030D02*
X230886D01*
Y-323951D01*
X231596Y-326600D01*
X232967Y-328974D01*
X234906Y-330913D01*
X237280Y-332284D01*
X239929Y-332994D01*
X240030D01*
Y-323850D01*
D02*
G37*
G36*
X166471Y-312166D02*
X163729D01*
X161080Y-312876D01*
X158706Y-314247D01*
X156767Y-316186D01*
X155396Y-318560D01*
X154686Y-321209D01*
Y-323951D01*
X155396Y-326600D01*
X156767Y-328974D01*
X158706Y-330913D01*
X161080Y-332284D01*
X163729Y-332994D01*
X166471D01*
X169120Y-332284D01*
X171494Y-330913D01*
X173433Y-328974D01*
X174804Y-326600D01*
X175514Y-323951D01*
Y-321209D01*
X174804Y-318560D01*
X173433Y-316186D01*
X171494Y-314247D01*
X169120Y-312876D01*
X166471Y-312166D01*
D02*
G37*
G36*
X141071D02*
X138329D01*
X135680Y-312876D01*
X133306Y-314247D01*
X131367Y-316186D01*
X129996Y-318560D01*
X129286Y-321209D01*
Y-323951D01*
X129996Y-326600D01*
X131367Y-328974D01*
X133306Y-330913D01*
X135680Y-332284D01*
X138329Y-332994D01*
X141071D01*
X143720Y-332284D01*
X146094Y-330913D01*
X148033Y-328974D01*
X149404Y-326600D01*
X150114Y-323951D01*
Y-321209D01*
X149404Y-318560D01*
X148033Y-316186D01*
X146094Y-314247D01*
X143720Y-312876D01*
X141071Y-312166D01*
D02*
G37*
G36*
X115671D02*
X112929D01*
X110280Y-312876D01*
X107906Y-314247D01*
X105967Y-316186D01*
X104596Y-318560D01*
X103886Y-321209D01*
Y-323951D01*
X104596Y-326600D01*
X105967Y-328974D01*
X107906Y-330913D01*
X110280Y-332284D01*
X112929Y-332994D01*
X115671D01*
X118320Y-332284D01*
X120694Y-330913D01*
X122633Y-328974D01*
X124004Y-326600D01*
X124714Y-323951D01*
Y-321209D01*
X124004Y-318560D01*
X122633Y-316186D01*
X120694Y-314247D01*
X118320Y-312876D01*
X115671Y-312166D01*
D02*
G37*
%LPD*%
G36*
X266621Y-25654D02*
X265341Y-25657D01*
X262107Y-25869D01*
X261230Y-26007D01*
X260454Y-26179D01*
X259778Y-26384D01*
X259204Y-26623D01*
X258730Y-26895D01*
X258357Y-27201D01*
X257279Y-26123D01*
X257585Y-25750D01*
X257857Y-25276D01*
X258096Y-24702D01*
X258301Y-24026D01*
X258473Y-23250D01*
X258611Y-22373D01*
X258786Y-20318D01*
X258823Y-19138D01*
X258826Y-17859D01*
X266621Y-25654D01*
D02*
G37*
G36*
X241221D02*
X239942Y-25657D01*
X236707Y-25869D01*
X235830Y-26007D01*
X235054Y-26179D01*
X234378Y-26384D01*
X233804Y-26623D01*
X233330Y-26895D01*
X232957Y-27201D01*
X231879Y-26123D01*
X232185Y-25750D01*
X232457Y-25276D01*
X232696Y-24702D01*
X232901Y-24026D01*
X233073Y-23250D01*
X233211Y-22373D01*
X233386Y-20318D01*
X233423Y-19138D01*
X233426Y-17859D01*
X241221Y-25654D01*
D02*
G37*
G36*
X266621Y-51054D02*
X265341Y-51057D01*
X262107Y-51269D01*
X261230Y-51407D01*
X260454Y-51579D01*
X259778Y-51784D01*
X259204Y-52023D01*
X258730Y-52295D01*
X258356Y-52601D01*
X257279Y-51523D01*
X257585Y-51150D01*
X257857Y-50676D01*
X258096Y-50102D01*
X258301Y-49426D01*
X258473Y-48650D01*
X258611Y-47773D01*
X258786Y-45718D01*
X258823Y-44538D01*
X258826Y-43259D01*
X266621Y-51054D01*
D02*
G37*
G36*
X245154Y-50131D02*
X244505Y-50674D01*
X243933Y-51217D01*
X243436Y-51758D01*
X243016Y-52299D01*
X242673Y-52837D01*
X242406Y-53375D01*
X242215Y-53911D01*
X242100Y-54446D01*
X242062Y-54979D01*
X240538D01*
X240500Y-54446D01*
X240385Y-53911D01*
X240194Y-53375D01*
X239927Y-52837D01*
X239584Y-52299D01*
X239164Y-51758D01*
X238667Y-51217D01*
X238095Y-50674D01*
X237446Y-50131D01*
X236720Y-49585D01*
X245880D01*
X245154Y-50131D01*
D02*
G37*
G36*
X251287Y-56074D02*
X251415Y-56191D01*
Y-109778D01*
X249251Y-111943D01*
X249079Y-112004D01*
X248957Y-112113D01*
X248888Y-112163D01*
X248801Y-112214D01*
X248692Y-112264D01*
X248556Y-112313D01*
X248393Y-112357D01*
X248199Y-112395D01*
X247976Y-112423D01*
X247723Y-112440D01*
X247402Y-112445D01*
X247112Y-112570D01*
X246496D01*
X245663Y-112915D01*
X244393Y-112067D01*
Y-61417D01*
X250231Y-55580D01*
X251287Y-56074D01*
D02*
G37*
G36*
X238537Y-114756D02*
X238385Y-114917D01*
X238255Y-115075D01*
X238146Y-115231D01*
X238059Y-115383D01*
X237994Y-115532D01*
X237950Y-115679D01*
X237928Y-115822D01*
X237927Y-115963D01*
X237948Y-116101D01*
X237990Y-116236D01*
X235861Y-114421D01*
X236003Y-114442D01*
X236149Y-114441D01*
X236299Y-114420D01*
X236452Y-114377D01*
X236610Y-114314D01*
X236772Y-114229D01*
X236938Y-114123D01*
X237108Y-113996D01*
X237281Y-113848D01*
X237459Y-113678D01*
X238537Y-114756D01*
D02*
G37*
G36*
X251259Y-114308D02*
X251092Y-114495D01*
X250942Y-114701D01*
X250811Y-114927D01*
X250698Y-115173D01*
X250602Y-115438D01*
X250525Y-115724D01*
X250466Y-116029D01*
X250424Y-116354D01*
X250401Y-116699D01*
X250396Y-117064D01*
X247426Y-114094D01*
X247791Y-114089D01*
X248136Y-114066D01*
X248461Y-114024D01*
X248766Y-113965D01*
X249052Y-113888D01*
X249317Y-113792D01*
X249563Y-113679D01*
X249789Y-113547D01*
X249995Y-113398D01*
X250182Y-113231D01*
X251259Y-114308D01*
D02*
G37*
G36*
X242837Y-118485D02*
X242878Y-118736D01*
X242944Y-118989D01*
X243038Y-119243D01*
X243158Y-119498D01*
X243306Y-119755D01*
X243480Y-120012D01*
X243680Y-120272D01*
X243908Y-120532D01*
X244162Y-120794D01*
X239962D01*
X240216Y-120532D01*
X240444Y-120272D01*
X240644Y-120012D01*
X240818Y-119755D01*
X240965Y-119498D01*
X241086Y-119243D01*
X241180Y-118989D01*
X241246Y-118736D01*
X241287Y-118485D01*
X241300Y-118234D01*
X242824D01*
X242837Y-118485D01*
D02*
G37*
G36*
X230137Y-118739D02*
X230177Y-118990D01*
X230244Y-119243D01*
X230338Y-119497D01*
X230459Y-119752D01*
X230606Y-120009D01*
X230780Y-120266D01*
X230980Y-120526D01*
X231208Y-120786D01*
X231462Y-121048D01*
X227262D01*
X227516Y-120786D01*
X227744Y-120526D01*
X227944Y-120266D01*
X228118Y-120009D01*
X228265Y-119752D01*
X228386Y-119497D01*
X228480Y-119243D01*
X228547Y-118990D01*
X228587Y-118739D01*
X228600Y-118488D01*
X230124D01*
X230137Y-118739D01*
D02*
G37*
G36*
X165021Y-25654D02*
X163741Y-25657D01*
X160507Y-25869D01*
X159630Y-26007D01*
X158854Y-26179D01*
X158178Y-26384D01*
X157604Y-26623D01*
X157130Y-26895D01*
X156756Y-27201D01*
X155679Y-26123D01*
X155985Y-25750D01*
X156257Y-25276D01*
X156496Y-24702D01*
X156701Y-24026D01*
X156873Y-23250D01*
X157011Y-22373D01*
X157186Y-20318D01*
X157223Y-19138D01*
X157226Y-17859D01*
X165021Y-25654D01*
D02*
G37*
G36*
X153175Y-52191D02*
X153216Y-52442D01*
X153282Y-52695D01*
X153376Y-52949D01*
X153497Y-53204D01*
X153644Y-53461D01*
X153818Y-53718D01*
X154018Y-53977D01*
X154246Y-54238D01*
X154500Y-54500D01*
X150300D01*
X150554Y-54238D01*
X150782Y-53977D01*
X150982Y-53718D01*
X151156Y-53461D01*
X151304Y-53204D01*
X151424Y-52949D01*
X151518Y-52695D01*
X151585Y-52442D01*
X151625Y-52191D01*
X151638Y-51940D01*
X153162D01*
X153175Y-52191D01*
D02*
G37*
G36*
X143205Y-50298D02*
X142629Y-50734D01*
X142121Y-51181D01*
X141681Y-51638D01*
X141309Y-52106D01*
X141004Y-52586D01*
X140767Y-53076D01*
X140597Y-53576D01*
X140496Y-54088D01*
X140462Y-54610D01*
X138938D01*
X138904Y-54088D01*
X138802Y-53576D01*
X138633Y-53076D01*
X138396Y-52586D01*
X138091Y-52106D01*
X137719Y-51638D01*
X137278Y-51181D01*
X136770Y-50734D01*
X136195Y-50298D01*
X135551Y-49872D01*
X143849D01*
X143205Y-50298D01*
D02*
G37*
G36*
X70991Y-68834D02*
X70965Y-68593D01*
X70888Y-68377D01*
X70760Y-68186D01*
X70580Y-68021D01*
X70348Y-67881D01*
X70066Y-67767D01*
X69731Y-67678D01*
X69346Y-67615D01*
X69180Y-67600D01*
X68926Y-67639D01*
X68666Y-67697D01*
X68421Y-67772D01*
X68191Y-67863D01*
X67976Y-67971D01*
X67776Y-68095D01*
X67591Y-68236D01*
X67420Y-68394D01*
Y-64194D01*
X67591Y-64352D01*
X67776Y-64493D01*
X67976Y-64617D01*
X68191Y-64725D01*
X68421Y-64816D01*
X68666Y-64891D01*
X68926Y-64949D01*
X69180Y-64988D01*
X69346Y-64973D01*
X69731Y-64910D01*
X70066Y-64821D01*
X70348Y-64707D01*
X70580Y-64567D01*
X70760Y-64402D01*
X70888Y-64211D01*
X70965Y-63995D01*
X70991Y-63754D01*
Y-68834D01*
D02*
G37*
G36*
X333568Y-33364D02*
X333181Y-33480D01*
X332171Y-33850D01*
X331885Y-33980D01*
X331386Y-34251D01*
X331174Y-34392D01*
X330987Y-34536D01*
X330826Y-34683D01*
X329414Y-33940D01*
X329591Y-33742D01*
X329739Y-33530D01*
X329858Y-33305D01*
X329948Y-33068D01*
X330008Y-32817D01*
X330039Y-32553D01*
X330042Y-32276D01*
X330015Y-31985D01*
X329959Y-31682D01*
X329874Y-31365D01*
X333568Y-33364D01*
D02*
G37*
G36*
X315335Y-104487D02*
X315073Y-104233D01*
X314813Y-104006D01*
X314554Y-103805D01*
X314296Y-103631D01*
X314039Y-103484D01*
X313784Y-103363D01*
X313530Y-103270D01*
X313277Y-103203D01*
X313026Y-103163D01*
X312776Y-103149D01*
Y-101625D01*
X313026Y-101612D01*
X313277Y-101572D01*
X313530Y-101505D01*
X313784Y-101411D01*
X314039Y-101291D01*
X314296Y-101144D01*
X314554Y-100970D01*
X314813Y-100769D01*
X315073Y-100541D01*
X315335Y-100287D01*
Y-104487D01*
D02*
G37*
G36*
X291989Y-141573D02*
X288416Y-141603D01*
X288618Y-141578D01*
X288799Y-141505D01*
X288958Y-141386D01*
X289097Y-141220D01*
X289214Y-141007D01*
X289310Y-140747D01*
X289384Y-140440D01*
X289437Y-140086D01*
X289469Y-139686D01*
X289480Y-139238D01*
X292020D01*
X291989Y-141573D01*
D02*
G37*
G36*
X242679Y-271925D02*
X242550Y-271971D01*
X242435Y-272049D01*
X242336Y-272158D01*
X242252Y-272298D01*
X242184Y-272469D01*
X242131Y-272671D01*
X242092Y-272904D01*
X242070Y-273168D01*
X242062Y-273463D01*
X240538D01*
X240530Y-273168D01*
X240508Y-272904D01*
X240469Y-272671D01*
X240416Y-272469D01*
X240347Y-272298D01*
X240264Y-272158D01*
X240165Y-272049D01*
X240050Y-271971D01*
X239921Y-271925D01*
X239776Y-271909D01*
X242824D01*
X242679Y-271925D01*
D02*
G37*
G36*
X229979D02*
X229850Y-271971D01*
X229735Y-272049D01*
X229636Y-272158D01*
X229552Y-272298D01*
X229484Y-272469D01*
X229431Y-272671D01*
X229393Y-272904D01*
X229370Y-273168D01*
X229362Y-273463D01*
X227838D01*
X227830Y-273168D01*
X227808Y-272904D01*
X227769Y-272671D01*
X227716Y-272469D01*
X227647Y-272298D01*
X227564Y-272158D01*
X227465Y-272049D01*
X227350Y-271971D01*
X227221Y-271925D01*
X227076Y-271909D01*
X230124D01*
X229979Y-271925D01*
D02*
G37*
G36*
X242109Y-285099D02*
X242252Y-285627D01*
X242489Y-286202D01*
X242822Y-286824D01*
X243249Y-287494D01*
X243772Y-288212D01*
X245102Y-289790D01*
X245909Y-290649D01*
X246812Y-291557D01*
X235788D01*
X236691Y-290649D01*
X238828Y-288212D01*
X239350Y-287494D01*
X239778Y-286824D01*
X240110Y-286202D01*
X240348Y-285627D01*
X240490Y-285099D01*
X240538Y-284619D01*
X242062D01*
X242109Y-285099D01*
D02*
G37*
G36*
X199921Y-288836D02*
X199615Y-289210D01*
X199343Y-289684D01*
X199104Y-290258D01*
X198899Y-290934D01*
X198727Y-291710D01*
X198589Y-292587D01*
X198414Y-294642D01*
X198377Y-295821D01*
X198374Y-297101D01*
X190579Y-289306D01*
X191859Y-289303D01*
X195093Y-289091D01*
X195970Y-288953D01*
X196746Y-288781D01*
X197422Y-288576D01*
X197996Y-288337D01*
X198470Y-288065D01*
X198843Y-287759D01*
X199921Y-288836D01*
D02*
G37*
G36*
X225321Y-314237D02*
X225015Y-314610D01*
X224743Y-315084D01*
X224504Y-315658D01*
X224299Y-316334D01*
X224127Y-317110D01*
X223989Y-317987D01*
X223814Y-320042D01*
X223777Y-321222D01*
X223773Y-322501D01*
X215979Y-314706D01*
X217258Y-314703D01*
X220493Y-314491D01*
X221370Y-314353D01*
X222146Y-314181D01*
X222822Y-313976D01*
X223396Y-313737D01*
X223870Y-313465D01*
X224243Y-313159D01*
X225321Y-314237D01*
D02*
G37*
G36*
X199921D02*
X199615Y-314610D01*
X199343Y-315084D01*
X199104Y-315658D01*
X198899Y-316334D01*
X198727Y-317110D01*
X198589Y-317987D01*
X198414Y-320042D01*
X198377Y-321222D01*
X198374Y-322501D01*
X190579Y-314706D01*
X191859Y-314703D01*
X195093Y-314491D01*
X195970Y-314353D01*
X196746Y-314181D01*
X197422Y-313976D01*
X197996Y-313737D01*
X198470Y-313465D01*
X198843Y-313159D01*
X199921Y-314237D01*
D02*
G37*
G36*
X198476Y-42716D02*
X199653Y-46730D01*
X199948Y-47481D01*
X200244Y-48132D01*
X200541Y-48683D01*
X200839Y-49132D01*
X201137Y-49481D01*
X199768Y-51704D01*
X199305Y-51307D01*
X198782Y-50978D01*
X198196Y-50719D01*
X197549Y-50528D01*
X196840Y-50406D01*
X196070Y-50353D01*
X195238Y-50368D01*
X194344Y-50453D01*
X193389Y-50606D01*
X192373Y-50828D01*
X198184Y-41461D01*
X198476Y-42716D01*
D02*
G37*
G36*
X118909Y-49711D02*
X116772Y-52148D01*
X116250Y-52866D01*
X115822Y-53536D01*
X115490Y-54158D01*
X115252Y-54734D01*
X115110Y-55261D01*
X115062Y-55741D01*
X113538D01*
X113490Y-55261D01*
X113348Y-54734D01*
X113111Y-54158D01*
X112778Y-53536D01*
X112351Y-52866D01*
X111828Y-52148D01*
X110498Y-50571D01*
X109691Y-49711D01*
X108788Y-48803D01*
X119812D01*
X118909Y-49711D01*
D02*
G37*
G36*
X93509D02*
X91372Y-52148D01*
X90849Y-52866D01*
X90422Y-53536D01*
X90090Y-54158D01*
X89852Y-54734D01*
X89710Y-55261D01*
X89662Y-55741D01*
X88138D01*
X88090Y-55261D01*
X87948Y-54734D01*
X87711Y-54158D01*
X87378Y-53536D01*
X86951Y-52866D01*
X86428Y-52148D01*
X85098Y-50571D01*
X84291Y-49711D01*
X83388Y-48803D01*
X94412D01*
X93509Y-49711D01*
D02*
G37*
G36*
X211272Y-60507D02*
X211325Y-61135D01*
X211371Y-61390D01*
X211431Y-61607D01*
X211504Y-61784D01*
X211591Y-61922D01*
X211691Y-62021D01*
X211804Y-62080D01*
X211931Y-62101D01*
X208428Y-62070D01*
X208485Y-62051D01*
X208535Y-61993D01*
X208580Y-61896D01*
X208618Y-61761D01*
X208651Y-61587D01*
X208678Y-61374D01*
X208713Y-60832D01*
X208725Y-60135D01*
X211265D01*
X211272Y-60507D01*
D02*
G37*
G36*
X89670Y-61106D02*
X89692Y-61365D01*
X89731Y-61594D01*
X89784Y-61792D01*
X89853Y-61960D01*
X89936Y-62097D01*
X90035Y-62203D01*
X90150Y-62280D01*
X90279Y-62325D01*
X90424Y-62340D01*
X87376D01*
X87521Y-62325D01*
X87650Y-62280D01*
X87765Y-62203D01*
X87864Y-62097D01*
X87948Y-61960D01*
X88016Y-61792D01*
X88069Y-61594D01*
X88108Y-61365D01*
X88130Y-61106D01*
X88138Y-60816D01*
X89662D01*
X89670Y-61106D01*
D02*
G37*
G36*
X116989Y-61253D02*
X117494Y-61674D01*
X117728Y-61835D01*
X117950Y-61962D01*
X118159Y-62057D01*
X118356Y-62118D01*
X118541Y-62145D01*
X118714Y-62140D01*
X118874Y-62101D01*
X115749Y-63226D01*
X115877Y-63154D01*
X115951Y-63051D01*
X115973Y-62915D01*
X115941Y-62748D01*
X115857Y-62548D01*
X115720Y-62317D01*
X115529Y-62053D01*
X115286Y-61758D01*
X114641Y-61070D01*
X116719Y-60993D01*
X116989Y-61253D01*
D02*
G37*
G36*
X100441Y-67564D02*
X100425Y-67419D01*
X100379Y-67290D01*
X100303Y-67175D01*
X100197Y-67076D01*
X100059Y-66993D01*
X99892Y-66924D01*
X99694Y-66871D01*
X99465Y-66832D01*
X99206Y-66810D01*
X98917Y-66802D01*
Y-65278D01*
X99206Y-65270D01*
X99465Y-65248D01*
X99694Y-65209D01*
X99892Y-65156D01*
X100059Y-65087D01*
X100197Y-65004D01*
X100303Y-64905D01*
X100379Y-64790D01*
X100425Y-64661D01*
X100441Y-64516D01*
Y-67564D01*
D02*
G37*
G36*
X94125Y-64661D02*
X94171Y-64790D01*
X94249Y-64905D01*
X94358Y-65004D01*
X94498Y-65087D01*
X94669Y-65156D01*
X94871Y-65209D01*
X95104Y-65248D01*
X95368Y-65270D01*
X95663Y-65278D01*
Y-66802D01*
X95368Y-66810D01*
X95104Y-66832D01*
X94871Y-66871D01*
X94669Y-66924D01*
X94498Y-66993D01*
X94358Y-67076D01*
X94249Y-67175D01*
X94171Y-67290D01*
X94125Y-67419D01*
X94109Y-67564D01*
Y-64516D01*
X94125Y-64661D01*
D02*
G37*
G36*
X187706Y-66615D02*
X187634Y-66849D01*
Y-67118D01*
X187706Y-67423D01*
X187850Y-67765D01*
X188065Y-68142D01*
X188352Y-68555D01*
X188712Y-69004D01*
X189646Y-70009D01*
X187850Y-71806D01*
X187329Y-71303D01*
X186395Y-70512D01*
X185982Y-70225D01*
X185604Y-70009D01*
X185263Y-69866D01*
X184958Y-69794D01*
X184688D01*
X184455Y-69866D01*
X184257Y-70009D01*
X187850Y-66417D01*
X187706Y-66615D01*
D02*
G37*
G36*
X226068Y-79607D02*
X226093Y-79897D01*
X226135Y-80172D01*
X226193Y-80432D01*
X226268Y-80677D01*
X226359Y-80907D01*
X226467Y-81122D01*
X226591Y-81322D01*
X226732Y-81507D01*
X226890Y-81678D01*
X222690D01*
X222848Y-81507D01*
X222989Y-81322D01*
X223113Y-81122D01*
X223221Y-80907D01*
X223312Y-80677D01*
X223387Y-80432D01*
X223445Y-80172D01*
X223487Y-79897D01*
X223512Y-79607D01*
X223520Y-79302D01*
X226060D01*
X226068Y-79607D01*
D02*
G37*
G36*
X193181Y-82804D02*
X193165Y-82659D01*
X193119Y-82530D01*
X193041Y-82415D01*
X192932Y-82316D01*
X192792Y-82233D01*
X192621Y-82164D01*
X192419Y-82111D01*
X192186Y-82072D01*
X191922Y-82050D01*
X191626Y-82042D01*
Y-80518D01*
X191922Y-80510D01*
X192186Y-80487D01*
X192419Y-80449D01*
X192621Y-80396D01*
X192792Y-80328D01*
X192932Y-80244D01*
X193041Y-80145D01*
X193119Y-80030D01*
X193165Y-79901D01*
X193181Y-79756D01*
Y-82804D01*
D02*
G37*
G36*
X187865Y-79901D02*
X187910Y-80030D01*
X187987Y-80145D01*
X188093Y-80244D01*
X188230Y-80328D01*
X188398Y-80396D01*
X188596Y-80449D01*
X188825Y-80487D01*
X189084Y-80510D01*
X189373Y-80518D01*
Y-82042D01*
X189084Y-82050D01*
X188825Y-82072D01*
X188596Y-82111D01*
X188398Y-82164D01*
X188230Y-82233D01*
X188093Y-82316D01*
X187987Y-82415D01*
X187910Y-82530D01*
X187865Y-82659D01*
X187850Y-82804D01*
Y-79756D01*
X187865Y-79901D01*
D02*
G37*
G36*
X51940Y-92000D02*
X51890Y-91749D01*
X51737Y-91524D01*
X51483Y-91327D01*
X51128Y-91155D01*
X50670Y-91010D01*
X50112Y-90891D01*
X49451Y-90799D01*
X48689Y-90733D01*
X47673Y-90703D01*
X47599Y-90705D01*
X46730Y-90782D01*
X45963Y-90909D01*
X45299Y-91086D01*
X44737Y-91315D01*
X44277Y-91594D01*
X43919Y-91925D01*
X43664Y-92306D01*
X43510Y-92737D01*
X43459Y-93220D01*
Y-83060D01*
X43510Y-83543D01*
X43664Y-83974D01*
X43919Y-84355D01*
X44277Y-84686D01*
X44737Y-84965D01*
X45299Y-85194D01*
X45963Y-85371D01*
X46730Y-85498D01*
X47599Y-85575D01*
X47712Y-85578D01*
X47826Y-85575D01*
X48689Y-85498D01*
X49451Y-85371D01*
X50112Y-85194D01*
X50670Y-84965D01*
X51128Y-84686D01*
X51483Y-84355D01*
X51737Y-83974D01*
X51890Y-83543D01*
X51940Y-83060D01*
Y-92000D01*
D02*
G37*
G36*
X22581Y-93220D02*
X22530Y-92737D01*
X22376Y-92306D01*
X22121Y-91925D01*
X21763Y-91594D01*
X21303Y-91315D01*
X20741Y-91086D01*
X20077Y-90909D01*
X19310Y-90782D01*
X18441Y-90705D01*
X18338Y-90703D01*
X13900Y-90859D01*
Y-85421D01*
X13950Y-85455D01*
X14103Y-85485D01*
X14357Y-85512D01*
X15170Y-85555D01*
X17939Y-85588D01*
X18441Y-85575D01*
X19310Y-85498D01*
X20077Y-85371D01*
X20741Y-85194D01*
X21303Y-84965D01*
X21763Y-84686D01*
X22121Y-84355D01*
X22376Y-83974D01*
X22530Y-83543D01*
X22581Y-83060D01*
Y-93220D01*
D02*
G37*
G36*
X76365Y-85651D02*
X76411Y-85780D01*
X76489Y-85895D01*
X76598Y-85994D01*
X76738Y-86077D01*
X76909Y-86146D01*
X77111Y-86199D01*
X77344Y-86237D01*
X77608Y-86260D01*
X77903Y-86268D01*
Y-87792D01*
X77608Y-87800D01*
X77344Y-87823D01*
X77111Y-87861D01*
X76909Y-87914D01*
X76738Y-87983D01*
X76598Y-88066D01*
X76489Y-88165D01*
X76411Y-88280D01*
X76365Y-88409D01*
X76349Y-88554D01*
Y-87837D01*
X74557Y-87929D01*
Y-86131D01*
X74609Y-86157D01*
X74708Y-86181D01*
X74854Y-86201D01*
X75290Y-86234D01*
X76349Y-86253D01*
Y-85506D01*
X76365Y-85651D01*
D02*
G37*
G36*
X184259Y-85235D02*
X184130Y-85281D01*
X184015Y-85359D01*
X183916Y-85468D01*
X183832Y-85608D01*
X183764Y-85779D01*
X183711Y-85981D01*
X183673Y-86214D01*
X183650Y-86478D01*
X183642Y-86774D01*
X182118D01*
X182110Y-86478D01*
X182087Y-86214D01*
X182049Y-85981D01*
X181996Y-85779D01*
X181928Y-85608D01*
X181844Y-85468D01*
X181745Y-85359D01*
X181630Y-85281D01*
X181501Y-85235D01*
X181356Y-85219D01*
X184404D01*
X184259Y-85235D01*
D02*
G37*
G36*
X167749D02*
X167620Y-85281D01*
X167505Y-85359D01*
X167406Y-85468D01*
X167323Y-85608D01*
X167254Y-85779D01*
X167201Y-85981D01*
X167162Y-86214D01*
X167140Y-86478D01*
X167132Y-86774D01*
X165608D01*
X165600Y-86478D01*
X165578Y-86214D01*
X165539Y-85981D01*
X165486Y-85779D01*
X165417Y-85608D01*
X165334Y-85468D01*
X165235Y-85359D01*
X165120Y-85281D01*
X164991Y-85235D01*
X164846Y-85219D01*
X167894D01*
X167749Y-85235D01*
D02*
G37*
G36*
X152509D02*
X152380Y-85281D01*
X152265Y-85359D01*
X152166Y-85468D01*
X152083Y-85608D01*
X152014Y-85779D01*
X151961Y-85981D01*
X151923Y-86214D01*
X151900Y-86478D01*
X151892Y-86774D01*
X150368D01*
X150360Y-86478D01*
X150337Y-86214D01*
X150299Y-85981D01*
X150246Y-85779D01*
X150177Y-85608D01*
X150094Y-85468D01*
X149995Y-85359D01*
X149880Y-85281D01*
X149751Y-85235D01*
X149606Y-85219D01*
X152654D01*
X152509Y-85235D01*
D02*
G37*
G36*
X137269D02*
X137140Y-85281D01*
X137025Y-85359D01*
X136926Y-85468D01*
X136842Y-85608D01*
X136774Y-85779D01*
X136721Y-85981D01*
X136683Y-86214D01*
X136660Y-86478D01*
X136652Y-86774D01*
X135128D01*
X135120Y-86478D01*
X135098Y-86214D01*
X135059Y-85981D01*
X135006Y-85779D01*
X134937Y-85608D01*
X134854Y-85468D01*
X134755Y-85359D01*
X134640Y-85281D01*
X134511Y-85235D01*
X134366Y-85219D01*
X137414D01*
X137269Y-85235D01*
D02*
G37*
G36*
X122029D02*
X121900Y-85281D01*
X121785Y-85359D01*
X121686Y-85468D01*
X121602Y-85608D01*
X121534Y-85779D01*
X121481Y-85981D01*
X121442Y-86214D01*
X121420Y-86478D01*
X121412Y-86774D01*
X119888D01*
X119880Y-86478D01*
X119858Y-86214D01*
X119819Y-85981D01*
X119766Y-85779D01*
X119698Y-85608D01*
X119614Y-85468D01*
X119515Y-85359D01*
X119400Y-85281D01*
X119271Y-85235D01*
X119126Y-85219D01*
X122174D01*
X122029Y-85235D01*
D02*
G37*
G36*
X102551Y-85236D02*
X102422Y-85285D01*
X102307Y-85363D01*
X102208Y-85473D01*
X102125Y-85613D01*
X102056Y-85784D01*
X102003Y-85985D01*
X101965Y-86217D01*
X101942Y-86480D01*
X101934Y-86774D01*
X100410D01*
X100441Y-85250D01*
X102696Y-85219D01*
X102551Y-85236D01*
D02*
G37*
G36*
X215659Y-85245D02*
X215443Y-85322D01*
X215252Y-85450D01*
X215087Y-85630D01*
X214947Y-85862D01*
X214833Y-86144D01*
X214744Y-86479D01*
X214681Y-86864D01*
X214643Y-87301D01*
X214630Y-87789D01*
X212090D01*
X212077Y-87301D01*
X212039Y-86864D01*
X211976Y-86479D01*
X211887Y-86144D01*
X211772Y-85862D01*
X211633Y-85630D01*
X211468Y-85450D01*
X211277Y-85322D01*
X211061Y-85245D01*
X210820Y-85219D01*
X215900D01*
X215659Y-85245D01*
D02*
G37*
G36*
X83892Y-87789D02*
X82368D01*
Y-86268D01*
X82662Y-86260D01*
X82925Y-86237D01*
X83157Y-86199D01*
X83358Y-86146D01*
X83529Y-86077D01*
X83669Y-85994D01*
X83779Y-85895D01*
X83857Y-85780D01*
X83906Y-85651D01*
X83923Y-85506D01*
X83892Y-87789D01*
D02*
G37*
G36*
X167140Y-91554D02*
X167162Y-91818D01*
X167201Y-92051D01*
X167254Y-92253D01*
X167323Y-92424D01*
X167406Y-92564D01*
X167505Y-92673D01*
X167620Y-92751D01*
X167749Y-92797D01*
X167894Y-92813D01*
X164846D01*
X164991Y-92797D01*
X165120Y-92751D01*
X165235Y-92673D01*
X165334Y-92564D01*
X165417Y-92424D01*
X165486Y-92253D01*
X165539Y-92051D01*
X165578Y-91818D01*
X165600Y-91554D01*
X165608Y-91258D01*
X167132D01*
X167140Y-91554D01*
D02*
G37*
G36*
X151900D02*
X151923Y-91818D01*
X151961Y-92051D01*
X152014Y-92253D01*
X152083Y-92424D01*
X152166Y-92564D01*
X152265Y-92673D01*
X152380Y-92751D01*
X152509Y-92797D01*
X152654Y-92813D01*
X149606D01*
X149751Y-92797D01*
X149880Y-92751D01*
X149995Y-92673D01*
X150094Y-92564D01*
X150177Y-92424D01*
X150246Y-92253D01*
X150299Y-92051D01*
X150337Y-91818D01*
X150360Y-91554D01*
X150368Y-91258D01*
X151892D01*
X151900Y-91554D01*
D02*
G37*
G36*
X214643Y-90763D02*
X214681Y-91195D01*
X214744Y-91576D01*
X214833Y-91906D01*
X214947Y-92185D01*
X215087Y-92414D01*
X215252Y-92592D01*
X215443Y-92719D01*
X215659Y-92795D01*
X215900Y-92821D01*
X210820D01*
X211061Y-92795D01*
X211277Y-92719D01*
X211468Y-92592D01*
X211633Y-92414D01*
X211772Y-92185D01*
X211887Y-91906D01*
X211976Y-91576D01*
X212039Y-91195D01*
X212077Y-90763D01*
X212090Y-90281D01*
X214630D01*
X214643Y-90763D01*
D02*
G37*
G36*
X136660Y-91592D02*
X136683Y-91856D01*
X136721Y-92089D01*
X136774Y-92291D01*
X136842Y-92462D01*
X136926Y-92602D01*
X137025Y-92711D01*
X137140Y-92789D01*
X137269Y-92835D01*
X137414Y-92851D01*
X134366D01*
X134511Y-92835D01*
X134640Y-92789D01*
X134755Y-92711D01*
X134854Y-92602D01*
X134937Y-92462D01*
X135006Y-92291D01*
X135059Y-92089D01*
X135098Y-91856D01*
X135120Y-91592D01*
X135128Y-91297D01*
X136652D01*
X136660Y-91592D01*
D02*
G37*
G36*
X121420D02*
X121442Y-91856D01*
X121481Y-92089D01*
X121534Y-92291D01*
X121602Y-92462D01*
X121686Y-92602D01*
X121785Y-92711D01*
X121900Y-92789D01*
X122029Y-92835D01*
X122174Y-92851D01*
X119126D01*
X119271Y-92835D01*
X119400Y-92789D01*
X119515Y-92711D01*
X119614Y-92602D01*
X119698Y-92462D01*
X119766Y-92291D01*
X119819Y-92089D01*
X119858Y-91856D01*
X119880Y-91592D01*
X119888Y-91297D01*
X121412D01*
X121420Y-91592D01*
D02*
G37*
G36*
X75959Y-91995D02*
X75743Y-92072D01*
X75552Y-92200D01*
X75387Y-92380D01*
X75248Y-92612D01*
X75133Y-92894D01*
X75067Y-93145D01*
X75138Y-93377D01*
X75229Y-93607D01*
X75337Y-93822D01*
X75461Y-94022D01*
X75602Y-94207D01*
X75760Y-94378D01*
X74934D01*
X74930Y-94539D01*
X72390D01*
X72386Y-94378D01*
X71560D01*
X71718Y-94207D01*
X71859Y-94022D01*
X71983Y-93822D01*
X72091Y-93607D01*
X72182Y-93377D01*
X72253Y-93145D01*
X72187Y-92894D01*
X72073Y-92612D01*
X71933Y-92380D01*
X71768Y-92200D01*
X71577Y-92072D01*
X71361Y-91995D01*
X71120Y-91969D01*
X76200D01*
X75959Y-91995D01*
D02*
G37*
G36*
X290800Y-97488D02*
X290435Y-97493D01*
X290090Y-97516D01*
X289765Y-97558D01*
X289460Y-97617D01*
X289174Y-97694D01*
X288909Y-97790D01*
X288663Y-97903D01*
X288437Y-98034D01*
X288231Y-98184D01*
X288044Y-98351D01*
X286967Y-97274D01*
X287134Y-97087D01*
X287283Y-96881D01*
X287415Y-96655D01*
X287528Y-96409D01*
X287624Y-96144D01*
X287701Y-95858D01*
X287760Y-95553D01*
X287802Y-95228D01*
X287825Y-94883D01*
X287830Y-94518D01*
X290800Y-97488D01*
D02*
G37*
G36*
X15696Y-101671D02*
X15204Y-102180D01*
X14429Y-103099D01*
X14145Y-103508D01*
X13931Y-103884D01*
X13786Y-104227D01*
X13710Y-104536D01*
X13704Y-104811D01*
X13767Y-105054D01*
X13900Y-105263D01*
X10557Y-101420D01*
X10744Y-101575D01*
X10969Y-101656D01*
X11232Y-101662D01*
X11533Y-101594D01*
X11873Y-101452D01*
X12252Y-101235D01*
X12668Y-100944D01*
X13124Y-100578D01*
X14150Y-99624D01*
X15696Y-101671D01*
D02*
G37*
G36*
X118212Y-102768D02*
X118204Y-102792D01*
X118197Y-102832D01*
X118191Y-102889D01*
X118178Y-103156D01*
X118174Y-103568D01*
X116650D01*
X116680Y-102760D01*
X118221D01*
X118212Y-102768D01*
D02*
G37*
G36*
X212929Y-102757D02*
X212713Y-102835D01*
X212522Y-102965D01*
X212357Y-103145D01*
X212218Y-103377D01*
X212103Y-103659D01*
X212014Y-103993D01*
X211951Y-104377D01*
X211913Y-104813D01*
X211900Y-105300D01*
X209360D01*
X209391Y-102760D01*
X213170Y-102729D01*
X212929Y-102757D01*
D02*
G37*
G36*
X67388Y-105499D02*
X67206Y-105416D01*
X67018Y-105366D01*
X66826Y-105350D01*
X66628Y-105366D01*
X66425Y-105415D01*
X66218Y-105498D01*
X66005Y-105613D01*
X65787Y-105761D01*
X65565Y-105942D01*
X65445Y-106054D01*
X65480Y-106456D01*
X65543Y-106839D01*
X65631Y-107171D01*
X65744Y-107452D01*
X65882Y-107682D01*
X66045Y-107861D01*
X66233Y-107989D01*
X66446Y-108065D01*
X66684Y-108091D01*
X61636D01*
X61874Y-108065D01*
X61878Y-108064D01*
X61441Y-108061D01*
X61443Y-108035D01*
X61445Y-107959D01*
X61452Y-105520D01*
X63992D01*
X63992Y-105536D01*
X64869D01*
X63791Y-104110D01*
X66132Y-101567D01*
X67388Y-105499D01*
D02*
G37*
G36*
X183655Y-105277D02*
X183696Y-105528D01*
X183762Y-105781D01*
X183856Y-106035D01*
X183976Y-106290D01*
X184124Y-106547D01*
X184298Y-106804D01*
X184498Y-107064D01*
X184726Y-107324D01*
X184980Y-107586D01*
X180780D01*
X181034Y-107324D01*
X181262Y-107064D01*
X181462Y-106804D01*
X181636Y-106547D01*
X181784Y-106290D01*
X181904Y-106035D01*
X181998Y-105781D01*
X182064Y-105528D01*
X182105Y-105277D01*
X182118Y-105026D01*
X183642D01*
X183655Y-105277D01*
D02*
G37*
G36*
X101934Y-106155D02*
X101944Y-106375D01*
X101974Y-106609D01*
X102025Y-106859D01*
X102096Y-107123D01*
X102187Y-107402D01*
X102430Y-108006D01*
X102582Y-108330D01*
X102947Y-109023D01*
X98916Y-107844D01*
X99200Y-107679D01*
X99454Y-107503D01*
X99678Y-107315D01*
X99872Y-107116D01*
X100036Y-106907D01*
X100171Y-106686D01*
X100275Y-106454D01*
X100350Y-106211D01*
X100395Y-105956D01*
X100410Y-105691D01*
X101934Y-106155D01*
D02*
G37*
G36*
X110354Y-106104D02*
X110615Y-106332D01*
X110874Y-106532D01*
X111131Y-106706D01*
X111388Y-106854D01*
X111643Y-106974D01*
X111897Y-107068D01*
X112150Y-107135D01*
X112401Y-107175D01*
X112652Y-107188D01*
Y-108712D01*
X112401Y-108725D01*
X112150Y-108765D01*
X111897Y-108832D01*
X111643Y-108926D01*
X111388Y-109046D01*
X111131Y-109194D01*
X110874Y-109368D01*
X110615Y-109568D01*
X110354Y-109796D01*
X110092Y-110050D01*
Y-105850D01*
X110354Y-106104D01*
D02*
G37*
G36*
X154342Y-111533D02*
X154201Y-111718D01*
X154077Y-111918D01*
X153969Y-112133D01*
X153877Y-112363D01*
X153803Y-112608D01*
X153745Y-112868D01*
X153703Y-113143D01*
X153678Y-113433D01*
X153670Y-113738D01*
X151130D01*
X151122Y-113433D01*
X151097Y-113143D01*
X151055Y-112868D01*
X150997Y-112608D01*
X150922Y-112363D01*
X150831Y-112133D01*
X150723Y-111918D01*
X150599Y-111718D01*
X150458Y-111533D01*
X150300Y-111362D01*
X154500D01*
X154342Y-111533D01*
D02*
G37*
G36*
X116385Y-112022D02*
X116218Y-112209D01*
X116068Y-112415D01*
X115937Y-112641D01*
X115824Y-112887D01*
X115728Y-113152D01*
X115651Y-113438D01*
X115592Y-113743D01*
X115550Y-114068D01*
X115527Y-114413D01*
X115522Y-114778D01*
X112552Y-111808D01*
X112917Y-111803D01*
X113262Y-111780D01*
X113587Y-111738D01*
X113892Y-111679D01*
X114178Y-111602D01*
X114443Y-111506D01*
X114689Y-111393D01*
X114915Y-111262D01*
X115121Y-111112D01*
X115308Y-110945D01*
X116385Y-112022D01*
D02*
G37*
G36*
X75039Y-117985D02*
X74910Y-118031D01*
X74795Y-118109D01*
X74696Y-118218D01*
X74612Y-118358D01*
X74544Y-118529D01*
X74491Y-118731D01*
X74453Y-118964D01*
X74430Y-119228D01*
X74422Y-119523D01*
X72898D01*
X72890Y-119228D01*
X72867Y-118964D01*
X72829Y-118731D01*
X72776Y-118529D01*
X72708Y-118358D01*
X72624Y-118218D01*
X72525Y-118109D01*
X72410Y-118031D01*
X72281Y-117985D01*
X72136Y-117969D01*
X75184D01*
X75039Y-117985D01*
D02*
G37*
G36*
X64300Y-117987D02*
X64236Y-118038D01*
X64178Y-118122D01*
X64129Y-118240D01*
X64087Y-118391D01*
X64053Y-118576D01*
X64026Y-118794D01*
X63996Y-119331D01*
X63992Y-119650D01*
X61452D01*
X61441Y-117999D01*
X64373Y-117969D01*
X64300Y-117987D01*
D02*
G37*
G36*
X153695Y-117323D02*
X153772Y-117754D01*
X153899Y-118135D01*
X154076Y-118466D01*
X154305Y-118745D01*
X154584Y-118974D01*
X154915Y-119151D01*
X155296Y-119278D01*
X155727Y-119355D01*
X156210Y-119380D01*
X152400Y-121920D01*
X151290Y-121172D01*
Y-121920D01*
X150803Y-121933D01*
X150367Y-121971D01*
X149983Y-122034D01*
X149649Y-122123D01*
X149367Y-122238D01*
X149135Y-122377D01*
X148955Y-122542D01*
X148825Y-122733D01*
X148747Y-122949D01*
X148719Y-123190D01*
X148750Y-119529D01*
X148841Y-119523D01*
X148628Y-119380D01*
X149103Y-119355D01*
X149529Y-119278D01*
X149904Y-119151D01*
X150229Y-118974D01*
X150505Y-118745D01*
X150730Y-118466D01*
X150905Y-118135D01*
X151030Y-117754D01*
X151105Y-117323D01*
X151130Y-116840D01*
X153670D01*
X153695Y-117323D01*
D02*
G37*
G36*
X211900Y-117584D02*
X211918Y-118084D01*
X211972Y-118570D01*
X212062Y-119041D01*
X212187Y-119497D01*
X212349Y-119938D01*
X212547Y-120364D01*
X212780Y-120775D01*
X213050Y-121172D01*
X213355Y-121553D01*
X213696Y-121920D01*
X211900Y-123716D01*
X211533Y-123375D01*
X211152Y-123069D01*
X210755Y-122800D01*
X210344Y-122567D01*
X209918Y-122369D01*
X209477Y-122207D01*
X209021Y-122082D01*
X208550Y-121992D01*
X208064Y-121938D01*
X207564Y-121920D01*
X206820Y-119380D01*
X207303Y-119355D01*
X207734Y-119278D01*
X208115Y-119151D01*
X208446Y-118974D01*
X208725Y-118745D01*
X208954Y-118466D01*
X209131Y-118135D01*
X209258Y-117754D01*
X209335Y-117323D01*
X209360Y-116840D01*
X211900Y-117584D01*
D02*
G37*
G36*
X74430Y-123342D02*
X74453Y-123606D01*
X74491Y-123839D01*
X74544Y-124041D01*
X74612Y-124212D01*
X74696Y-124352D01*
X74795Y-124461D01*
X74910Y-124539D01*
X75039Y-124585D01*
X75184Y-124601D01*
X72136D01*
X72281Y-124585D01*
X72410Y-124539D01*
X72525Y-124461D01*
X72624Y-124352D01*
X72708Y-124212D01*
X72776Y-124041D01*
X72829Y-123839D01*
X72867Y-123606D01*
X72890Y-123342D01*
X72898Y-123047D01*
X74422D01*
X74430Y-123342D01*
D02*
G37*
G36*
X49458Y-125570D02*
X46895Y-125601D01*
X46905Y-125587D01*
X46914Y-125547D01*
X46922Y-125479D01*
X46935Y-125262D01*
X46948Y-124248D01*
X49488D01*
X49458Y-125570D01*
D02*
G37*
G36*
X110631Y-127254D02*
X110615Y-127109D01*
X110569Y-126980D01*
X110491Y-126865D01*
X110382Y-126766D01*
X110242Y-126683D01*
X110071Y-126614D01*
X109869Y-126561D01*
X109636Y-126523D01*
X109372Y-126500D01*
X109076Y-126492D01*
Y-124968D01*
X109372Y-124960D01*
X109636Y-124937D01*
X109869Y-124899D01*
X110071Y-124846D01*
X110242Y-124777D01*
X110382Y-124694D01*
X110491Y-124595D01*
X110569Y-124480D01*
X110615Y-124351D01*
X110631Y-124206D01*
Y-127254D01*
D02*
G37*
G36*
X93885Y-124427D02*
X93931Y-124541D01*
X94007Y-124641D01*
X94113Y-124728D01*
X94250Y-124801D01*
X94418Y-124861D01*
X94616Y-124908D01*
X94845Y-124941D01*
X95104Y-124961D01*
X95393Y-124968D01*
Y-126492D01*
X95104Y-126500D01*
X94845Y-126523D01*
X94616Y-126561D01*
X94418Y-126614D01*
X94250Y-126683D01*
X94113Y-126766D01*
X94007Y-126865D01*
X93931Y-126980D01*
X93885Y-127109D01*
X93869Y-127254D01*
Y-124300D01*
X93885Y-124427D01*
D02*
G37*
G36*
X83961Y-131064D02*
X83945Y-130919D01*
X83899Y-130790D01*
X83821Y-130675D01*
X83712Y-130576D01*
X83572Y-130492D01*
X83401Y-130424D01*
X83199Y-130371D01*
X82966Y-130332D01*
X82702Y-130310D01*
X82407Y-130302D01*
Y-128778D01*
X82702Y-128770D01*
X82966Y-128748D01*
X83199Y-128709D01*
X83401Y-128656D01*
X83572Y-128588D01*
X83712Y-128504D01*
X83821Y-128405D01*
X83899Y-128290D01*
X83945Y-128161D01*
X83961Y-128016D01*
Y-131064D01*
D02*
G37*
G36*
X77615Y-128161D02*
X77661Y-128290D01*
X77739Y-128405D01*
X77848Y-128504D01*
X77988Y-128588D01*
X78159Y-128656D01*
X78361Y-128709D01*
X78594Y-128748D01*
X78858Y-128770D01*
X79153Y-128778D01*
Y-130302D01*
X78858Y-130310D01*
X78594Y-130332D01*
X78361Y-130371D01*
X78159Y-130424D01*
X77988Y-130492D01*
X77848Y-130576D01*
X77739Y-130675D01*
X77661Y-130790D01*
X77615Y-130919D01*
X77599Y-131064D01*
Y-128016D01*
X77615Y-128161D01*
D02*
G37*
G36*
X185810Y-131950D02*
X185452Y-131936D01*
X185113Y-131943D01*
X184793Y-131970D01*
X184492Y-132017D01*
X184209Y-132085D01*
X183945Y-132174D01*
X183699Y-132282D01*
X183472Y-132411D01*
X183265Y-132561D01*
X183075Y-132730D01*
X182059Y-131592D01*
X182223Y-131409D01*
X182373Y-131205D01*
X182507Y-130980D01*
X182625Y-130734D01*
X182727Y-130468D01*
X182814Y-130180D01*
X182886Y-129872D01*
X182942Y-129543D01*
X182982Y-129193D01*
X183007Y-128822D01*
X185810Y-131950D01*
D02*
G37*
G36*
X43688Y-103761D02*
X43919Y-104105D01*
X44277Y-104436D01*
X44737Y-104715D01*
X45299Y-104944D01*
X45963Y-105121D01*
X46730Y-105248D01*
X47599Y-105325D01*
X48569Y-105350D01*
Y-110430D01*
X47599Y-110455D01*
X46730Y-110532D01*
X45963Y-110659D01*
X45299Y-110836D01*
X44737Y-111065D01*
X44277Y-111344D01*
X43919Y-111675D01*
X43688Y-112019D01*
Y-113792D01*
X31750Y-125730D01*
Y-131318D01*
X29972Y-133096D01*
X29464Y-132588D01*
X23622D01*
X22745Y-131711D01*
X21700Y-132755D01*
X21988Y-132360D01*
X22132Y-131893D01*
Y-131354D01*
X22053Y-131019D01*
X21844Y-130810D01*
Y-130401D01*
X21700Y-130061D01*
X21269Y-129306D01*
X20695Y-128480D01*
X19976Y-127582D01*
X18108Y-125570D01*
X20070Y-123609D01*
X11855Y-115394D01*
X17471Y-109778D01*
Y-108810D01*
X18440Y-108785D01*
X18467Y-108782D01*
X22606Y-104643D01*
Y-102108D01*
X43688D01*
Y-103761D01*
D02*
G37*
G36*
X93783Y-130203D02*
X93740Y-130343D01*
Y-130505D01*
X93783Y-130688D01*
X93869Y-130892D01*
X93999Y-131119D01*
X94171Y-131367D01*
X94387Y-131636D01*
X94947Y-132240D01*
X93869Y-133317D01*
X93557Y-133015D01*
X92997Y-132541D01*
X92749Y-132369D01*
X92522Y-132240D01*
X92318Y-132153D01*
X92135Y-132110D01*
X91973D01*
X91833Y-132153D01*
X91714Y-132240D01*
X93869Y-130084D01*
X93783Y-130203D01*
D02*
G37*
G36*
X198421Y-131838D02*
X198201Y-131933D01*
X198004Y-132043D01*
X197830Y-132168D01*
X197680Y-132309D01*
X197553Y-132464D01*
X197449Y-132634D01*
X197368Y-132820D01*
X197310Y-133020D01*
X197275Y-133236D01*
X197264Y-133466D01*
X195740Y-133358D01*
X195732Y-133071D01*
X195707Y-132791D01*
X195667Y-132517D01*
X195611Y-132251D01*
X195538Y-131992D01*
X195449Y-131739D01*
X195345Y-131494D01*
X195224Y-131255D01*
X195087Y-131024D01*
X194933Y-130799D01*
X198421Y-131838D01*
D02*
G37*
G36*
X195315Y-135730D02*
X195010Y-136046D01*
X194530Y-136610D01*
X194355Y-136859D01*
X194222Y-137085D01*
X194133Y-137290D01*
X194087Y-137472D01*
X194084Y-137632D01*
X194124Y-137770D01*
X194207Y-137886D01*
X192082Y-135761D01*
X192198Y-135844D01*
X192336Y-135884D01*
X192496Y-135881D01*
X192678Y-135835D01*
X192883Y-135746D01*
X193109Y-135613D01*
X193358Y-135438D01*
X193629Y-135219D01*
X194237Y-134653D01*
X195315Y-135730D01*
D02*
G37*
G36*
X180075D02*
X179770Y-136046D01*
X179290Y-136610D01*
X179115Y-136859D01*
X178982Y-137085D01*
X178893Y-137290D01*
X178847Y-137472D01*
X178844Y-137632D01*
X178884Y-137770D01*
X178967Y-137886D01*
X176842Y-135761D01*
X176958Y-135844D01*
X177096Y-135884D01*
X177256Y-135881D01*
X177438Y-135835D01*
X177643Y-135746D01*
X177869Y-135613D01*
X178118Y-135438D01*
X178389Y-135219D01*
X178997Y-134653D01*
X180075Y-135730D01*
D02*
G37*
G36*
X128301Y-140903D02*
X128249Y-140877D01*
X128150Y-140853D01*
X128004Y-140833D01*
X127568Y-140800D01*
X125642Y-140766D01*
Y-139242D01*
X128301Y-139105D01*
Y-140903D01*
D02*
G37*
G36*
X169058Y-141224D02*
X169043Y-141079D01*
X168997Y-140950D01*
X168921Y-140835D01*
X168815Y-140736D01*
X168678Y-140653D01*
X168510Y-140584D01*
X168312Y-140531D01*
X168083Y-140492D01*
X167824Y-140470D01*
X167535Y-140462D01*
Y-138938D01*
X167824Y-138930D01*
X168083Y-138907D01*
X168312Y-138869D01*
X168510Y-138816D01*
X168678Y-138748D01*
X168815Y-138664D01*
X168921Y-138565D01*
X168997Y-138450D01*
X169043Y-138321D01*
X169058Y-138176D01*
Y-141224D01*
D02*
G37*
G36*
X163743Y-138321D02*
X163789Y-138450D01*
X163867Y-138565D01*
X163976Y-138664D01*
X164116Y-138748D01*
X164287Y-138816D01*
X164489Y-138869D01*
X164722Y-138907D01*
X164986Y-138930D01*
X165282Y-138938D01*
Y-140462D01*
X164986Y-140470D01*
X164722Y-140492D01*
X164489Y-140531D01*
X164287Y-140584D01*
X164116Y-140653D01*
X163976Y-140736D01*
X163867Y-140835D01*
X163789Y-140950D01*
X163743Y-141079D01*
X163727Y-141224D01*
Y-138176D01*
X163743Y-138321D01*
D02*
G37*
G36*
X125601Y-141528D02*
X125585Y-141383D01*
X125539Y-141254D01*
X125461Y-141139D01*
X125352Y-141040D01*
X125212Y-140956D01*
X125041Y-140888D01*
X124839Y-140835D01*
X124606Y-140796D01*
X124342Y-140774D01*
X124046Y-140766D01*
Y-139242D01*
X124342Y-139234D01*
X124606Y-139212D01*
X124839Y-139173D01*
X125041Y-139120D01*
X125212Y-139052D01*
X125352Y-138968D01*
X125461Y-138869D01*
X125539Y-138754D01*
X125585Y-138625D01*
X125601Y-138480D01*
Y-141528D01*
D02*
G37*
G36*
X120038Y-138623D02*
X120540Y-138778D01*
Y-138480D01*
X120555Y-138625D01*
X120601Y-138754D01*
X120636Y-138807D01*
X121649Y-139120D01*
X121911Y-139173D01*
X122374Y-139234D01*
X122575Y-139242D01*
X123325Y-140766D01*
X123054Y-140781D01*
X122800Y-140826D01*
X122564Y-140901D01*
X122346Y-141007D01*
X122144Y-141142D01*
X121960Y-141307D01*
X121793Y-141503D01*
X121644Y-141728D01*
X121512Y-141984D01*
X121398Y-142270D01*
X120822Y-141017D01*
X120783Y-141040D01*
X120677Y-141139D01*
X120601Y-141254D01*
X120555Y-141383D01*
X120540Y-141528D01*
Y-140401D01*
X119656Y-138478D01*
X120038Y-138623D01*
D02*
G37*
G36*
X131839Y-144657D02*
X131623Y-144733D01*
X131432Y-144860D01*
X131267Y-145038D01*
X131128Y-145267D01*
X131013Y-145546D01*
X130924Y-145876D01*
X130861Y-146257D01*
X130823Y-146689D01*
X130810Y-147171D01*
X128270D01*
X128257Y-146689D01*
X128219Y-146257D01*
X128156Y-145876D01*
X128067Y-145546D01*
X127952Y-145267D01*
X127813Y-145038D01*
X127648Y-144860D01*
X127457Y-144733D01*
X127241Y-144657D01*
X127000Y-144632D01*
X132080D01*
X131839Y-144657D01*
D02*
G37*
G36*
X130823Y-147919D02*
X130861Y-148356D01*
X130924Y-148741D01*
X131013Y-149076D01*
X131128Y-149358D01*
X131267Y-149590D01*
X131432Y-149770D01*
X131623Y-149898D01*
X131839Y-149975D01*
X132080Y-150001D01*
X127000D01*
X127241Y-149975D01*
X127457Y-149898D01*
X127648Y-149770D01*
X127813Y-149590D01*
X127952Y-149358D01*
X128067Y-149076D01*
X128156Y-148741D01*
X128219Y-148356D01*
X128257Y-147919D01*
X128270Y-147430D01*
X130810D01*
X130823Y-147919D01*
D02*
G37*
G36*
X242329Y-154825D02*
X242113Y-154902D01*
X241922Y-155030D01*
X241757Y-155210D01*
X241618Y-155442D01*
X241503Y-155724D01*
X241414Y-156059D01*
X241351Y-156444D01*
X241313Y-156881D01*
X241300Y-157369D01*
X238760D01*
X238747Y-156881D01*
X238709Y-156444D01*
X238646Y-156059D01*
X238557Y-155724D01*
X238442Y-155442D01*
X238303Y-155210D01*
X238138Y-155030D01*
X237947Y-154902D01*
X237731Y-154825D01*
X237490Y-154799D01*
X242570D01*
X242329Y-154825D01*
D02*
G37*
G36*
X255029Y-155061D02*
X255070Y-155312D01*
X255136Y-155565D01*
X255230Y-155819D01*
X255350Y-156074D01*
X255498Y-156331D01*
X255672Y-156588D01*
X255872Y-156847D01*
X256100Y-157108D01*
X256354Y-157370D01*
X252154D01*
X252408Y-157108D01*
X252636Y-156847D01*
X252836Y-156588D01*
X253010Y-156331D01*
X253158Y-156074D01*
X253278Y-155819D01*
X253372Y-155565D01*
X253438Y-155312D01*
X253479Y-155061D01*
X253492Y-154810D01*
X255016D01*
X255029Y-155061D01*
D02*
G37*
G36*
X241313Y-159279D02*
X241351Y-159716D01*
X241414Y-160101D01*
X241503Y-160436D01*
X241618Y-160718D01*
X241757Y-160950D01*
X241922Y-161130D01*
X242113Y-161258D01*
X242329Y-161335D01*
X242570Y-161361D01*
X237490D01*
X237731Y-161335D01*
X237947Y-161258D01*
X238138Y-161130D01*
X238303Y-160950D01*
X238442Y-160718D01*
X238557Y-160436D01*
X238646Y-160101D01*
X238709Y-159716D01*
X238747Y-159279D01*
X238760Y-158790D01*
X241300D01*
X241313Y-159279D01*
D02*
G37*
G36*
X118219Y-177705D02*
X118090Y-177750D01*
X117975Y-177827D01*
X117876Y-177933D01*
X117793Y-178071D01*
X117724Y-178238D01*
X117671Y-178436D01*
X117633Y-178665D01*
X117610Y-178924D01*
X117602Y-179214D01*
X116078D01*
X116070Y-178924D01*
X116047Y-178665D01*
X116009Y-178436D01*
X115956Y-178238D01*
X115887Y-178071D01*
X115804Y-177933D01*
X115705Y-177827D01*
X115590Y-177750D01*
X115461Y-177705D01*
X115316Y-177689D01*
X118364D01*
X118219Y-177705D01*
D02*
G37*
G36*
X117610Y-181762D02*
X117633Y-182026D01*
X117671Y-182259D01*
X117724Y-182461D01*
X117793Y-182632D01*
X117876Y-182772D01*
X117975Y-182881D01*
X118090Y-182959D01*
X118219Y-183005D01*
X118364Y-183021D01*
X115316D01*
X115461Y-183005D01*
X115590Y-182959D01*
X115705Y-182881D01*
X115804Y-182772D01*
X115887Y-182632D01*
X115956Y-182461D01*
X116009Y-182259D01*
X116047Y-182026D01*
X116070Y-181762D01*
X116078Y-181467D01*
X117602D01*
X117610Y-181762D01*
D02*
G37*
G36*
X118219Y-192945D02*
X118090Y-192990D01*
X117975Y-193067D01*
X117876Y-193173D01*
X117793Y-193311D01*
X117724Y-193478D01*
X117671Y-193676D01*
X117633Y-193905D01*
X117610Y-194164D01*
X117602Y-194454D01*
X116078D01*
X116070Y-194164D01*
X116047Y-193905D01*
X116009Y-193676D01*
X115956Y-193478D01*
X115887Y-193311D01*
X115804Y-193173D01*
X115705Y-193067D01*
X115590Y-192990D01*
X115461Y-192945D01*
X115316Y-192929D01*
X118364D01*
X118219Y-192945D01*
D02*
G37*
G36*
X117672Y-195382D02*
X117887Y-195562D01*
X118108Y-195725D01*
X118337Y-195873D01*
X118573Y-196005D01*
X118817Y-196122D01*
X119068Y-196222D01*
X119327Y-196307D01*
X119592Y-196376D01*
X119866Y-196430D01*
X116636Y-198176D01*
X116725Y-197949D01*
X116786Y-197727D01*
X116820Y-197512D01*
X116828Y-197303D01*
X116808Y-197100D01*
X116761Y-196903D01*
X116686Y-196713D01*
X116585Y-196528D01*
X116457Y-196350D01*
X116301Y-196178D01*
X117465Y-195187D01*
X117672Y-195382D01*
D02*
G37*
G36*
X121226Y-210684D02*
X120998Y-210944D01*
X120798Y-211204D01*
X120624Y-211461D01*
X120477Y-211718D01*
X120356Y-211973D01*
X120262Y-212227D01*
X120196Y-212480D01*
X120155Y-212731D01*
X120142Y-212982D01*
X118618D01*
X118605Y-212731D01*
X118565Y-212480D01*
X118498Y-212227D01*
X118404Y-211973D01*
X118284Y-211718D01*
X118136Y-211461D01*
X117962Y-211204D01*
X117762Y-210944D01*
X117534Y-210684D01*
X117280Y-210422D01*
X121480D01*
X121226Y-210684D01*
D02*
G37*
G36*
X120150Y-215782D02*
X120173Y-216046D01*
X120211Y-216279D01*
X120264Y-216481D01*
X120332Y-216652D01*
X120416Y-216792D01*
X120515Y-216901D01*
X120630Y-216979D01*
X120759Y-217025D01*
X120904Y-217041D01*
X117856D01*
X118001Y-217025D01*
X118130Y-216979D01*
X118245Y-216901D01*
X118344Y-216792D01*
X118427Y-216652D01*
X118496Y-216481D01*
X118549Y-216279D01*
X118588Y-216046D01*
X118610Y-215782D01*
X118618Y-215487D01*
X120142D01*
X120150Y-215782D01*
D02*
G37*
G36*
X102649Y-251912D02*
X102418Y-251907D01*
X102187Y-251925D01*
X101958Y-251968D01*
X101730Y-252034D01*
X101502Y-252125D01*
X101276Y-252239D01*
X101051Y-252377D01*
X100827Y-252539D01*
X100603Y-252725D01*
X100521Y-252803D01*
X100240Y-253094D01*
X99443Y-254032D01*
X99153Y-254446D01*
X98934Y-254823D01*
X98787Y-255164D01*
X98713Y-255469D01*
X98710Y-255736D01*
X98778Y-255968D01*
X98919Y-256163D01*
X95357Y-252601D01*
X95552Y-252742D01*
X95784Y-252810D01*
X96052Y-252807D01*
X96356Y-252733D01*
X96697Y-252586D01*
X97074Y-252367D01*
X97488Y-252077D01*
X97939Y-251714D01*
X98848Y-250869D01*
X98921Y-250792D01*
X99110Y-250570D01*
X99278Y-250347D01*
X99426Y-250124D01*
X99553Y-249899D01*
X99658Y-249673D01*
X99744Y-249446D01*
X99808Y-249218D01*
X99852Y-248989D01*
X99874Y-248759D01*
X102649Y-251912D01*
D02*
G37*
G36*
X114171Y-270350D02*
X114160Y-270284D01*
X114125Y-270225D01*
X114068Y-270173D01*
X113988Y-270128D01*
X113886Y-270089D01*
X113760Y-270058D01*
X113612Y-270033D01*
X113441Y-270016D01*
X113030Y-270002D01*
Y-268478D01*
X113247Y-268475D01*
X113612Y-268447D01*
X113760Y-268422D01*
X113886Y-268391D01*
X113988Y-268353D01*
X114068Y-268307D01*
X114125Y-268255D01*
X114160Y-268196D01*
X114171Y-268130D01*
Y-270350D01*
D02*
G37*
G36*
X501491Y-34179D02*
X501475Y-34185D01*
X501429Y-34190D01*
X501353Y-34195D01*
X499967Y-34210D01*
Y-32686D01*
X500260Y-32678D01*
X500523Y-32655D01*
X500755Y-32617D01*
X500956Y-32564D01*
X501127Y-32496D01*
X501267Y-32412D01*
X501377Y-32313D01*
X501455Y-32198D01*
X501504Y-32069D01*
X501521Y-31924D01*
X501491Y-34179D01*
D02*
G37*
G36*
X489828Y-42425D02*
X489650Y-42618D01*
X489496Y-42819D01*
X489365Y-43028D01*
X489258Y-43243D01*
X489174Y-43467D01*
X489115Y-43697D01*
X489078Y-43935D01*
X489066Y-44181D01*
X489076Y-44433D01*
X489111Y-44694D01*
X486405Y-42222D01*
X486673Y-42234D01*
X486933Y-42224D01*
X487186Y-42191D01*
X487432Y-42137D01*
X487670Y-42060D01*
X487901Y-41961D01*
X488125Y-41841D01*
X488341Y-41698D01*
X488549Y-41534D01*
X488751Y-41347D01*
X489828Y-42425D01*
D02*
G37*
G36*
X509524Y-64770D02*
X496364D01*
X492275Y-60681D01*
Y-42903D01*
X495808Y-39370D01*
X509524D01*
Y-64770D01*
D02*
G37*
G36*
X489161Y-65419D02*
X489184Y-65764D01*
X489226Y-66089D01*
X489285Y-66394D01*
X489362Y-66680D01*
X489458Y-66945D01*
X489571Y-67191D01*
X489702Y-67417D01*
X489852Y-67623D01*
X490019Y-67810D01*
X488942Y-68887D01*
X488755Y-68720D01*
X488549Y-68570D01*
X488323Y-68439D01*
X488077Y-68326D01*
X487812Y-68230D01*
X487526Y-68153D01*
X487221Y-68094D01*
X486896Y-68052D01*
X486551Y-68029D01*
X486186Y-68024D01*
X489156Y-65054D01*
X489161Y-65419D01*
D02*
G37*
G36*
X501521Y-76454D02*
X501505Y-76309D01*
X501459Y-76180D01*
X501381Y-76065D01*
X501272Y-75966D01*
X501132Y-75883D01*
X500961Y-75814D01*
X500759Y-75761D01*
X500526Y-75722D01*
X500262Y-75700D01*
X499967Y-75692D01*
Y-74168D01*
X500262Y-74160D01*
X500526Y-74138D01*
X500759Y-74099D01*
X500961Y-74046D01*
X501132Y-73977D01*
X501272Y-73894D01*
X501381Y-73795D01*
X501459Y-73680D01*
X501505Y-73551D01*
X501521Y-73406D01*
Y-76454D01*
D02*
G37*
G36*
X297112Y-11928D02*
X296747Y-11933D01*
X296402Y-11956D01*
X296077Y-11998D01*
X295772Y-12057D01*
X295486Y-12134D01*
X295221Y-12230D01*
X294975Y-12343D01*
X294749Y-12474D01*
X294543Y-12624D01*
X294356Y-12791D01*
X293279Y-11714D01*
X293446Y-11527D01*
X293596Y-11321D01*
X293727Y-11095D01*
X293840Y-10849D01*
X293936Y-10584D01*
X294013Y-10298D01*
X294072Y-9993D01*
X294114Y-9668D01*
X294137Y-9323D01*
X294142Y-8958D01*
X297112Y-11928D01*
D02*
G37*
G36*
X281993Y-91702D02*
X281826Y-91889D01*
X281677Y-92095D01*
X281545Y-92321D01*
X281432Y-92567D01*
X281336Y-92832D01*
X281259Y-93118D01*
X281200Y-93423D01*
X281158Y-93748D01*
X281135Y-94093D01*
X281130Y-94458D01*
X278160Y-91488D01*
X278525Y-91483D01*
X278870Y-91460D01*
X279195Y-91418D01*
X279500Y-91359D01*
X279786Y-91282D01*
X280051Y-91186D01*
X280297Y-91073D01*
X280523Y-90941D01*
X280729Y-90792D01*
X280916Y-90625D01*
X281993Y-91702D01*
D02*
G37*
G36*
X325442Y-151248D02*
X325214Y-151509D01*
X325014Y-151768D01*
X324840Y-152025D01*
X324692Y-152282D01*
X324572Y-152537D01*
X324478Y-152791D01*
X324412Y-153044D01*
X324384Y-153214D01*
X324389Y-153260D01*
X324427Y-153493D01*
X324480Y-153695D01*
X324548Y-153866D01*
X324632Y-154006D01*
X324731Y-154115D01*
X324846Y-154193D01*
X324975Y-154239D01*
X325120Y-154255D01*
X322072D01*
X322217Y-154239D01*
X322346Y-154193D01*
X322461Y-154115D01*
X322560Y-154006D01*
X322644Y-153866D01*
X322712Y-153695D01*
X322765Y-153493D01*
X322803Y-153260D01*
X322808Y-153214D01*
X322780Y-153044D01*
X322714Y-152791D01*
X322620Y-152537D01*
X322500Y-152282D01*
X322352Y-152025D01*
X322178Y-151768D01*
X321978Y-151509D01*
X321750Y-151248D01*
X321496Y-150986D01*
X325696D01*
X325442Y-151248D01*
D02*
G37*
G36*
X336364D02*
X336136Y-151509D01*
X335936Y-151768D01*
X335762Y-152025D01*
X335615Y-152282D01*
X335494Y-152537D01*
X335400Y-152791D01*
X335334Y-153044D01*
X335306Y-153214D01*
X335311Y-153260D01*
X335349Y-153493D01*
X335402Y-153695D01*
X335471Y-153866D01*
X335554Y-154006D01*
X335653Y-154115D01*
X335768Y-154193D01*
X335897Y-154240D01*
X336042Y-154255D01*
X332994D01*
X333139Y-154240D01*
X333268Y-154193D01*
X333383Y-154115D01*
X333482Y-154006D01*
X333565Y-153866D01*
X333634Y-153695D01*
X333687Y-153493D01*
X333726Y-153260D01*
X333730Y-153214D01*
X333703Y-153044D01*
X333636Y-152791D01*
X333542Y-152537D01*
X333422Y-152282D01*
X333274Y-152025D01*
X333100Y-151768D01*
X332900Y-151509D01*
X332672Y-151248D01*
X332418Y-150986D01*
X336618D01*
X336364Y-151248D01*
D02*
G37*
G36*
X347540D02*
X347312Y-151509D01*
X347112Y-151768D01*
X346938Y-152025D01*
X346791Y-152282D01*
X346670Y-152537D01*
X346576Y-152791D01*
X346510Y-153044D01*
X346482Y-153214D01*
X346487Y-153260D01*
X346525Y-153493D01*
X346578Y-153695D01*
X346646Y-153866D01*
X346730Y-154006D01*
X346829Y-154115D01*
X346944Y-154193D01*
X347073Y-154240D01*
X347218Y-154255D01*
X344170D01*
X344315Y-154240D01*
X344444Y-154193D01*
X344559Y-154115D01*
X344658Y-154006D01*
X344742Y-153866D01*
X344810Y-153695D01*
X344863Y-153493D01*
X344902Y-153260D01*
X344906Y-153214D01*
X344879Y-153044D01*
X344812Y-152791D01*
X344718Y-152537D01*
X344598Y-152282D01*
X344450Y-152025D01*
X344276Y-151768D01*
X344076Y-151509D01*
X343848Y-151248D01*
X343594Y-150986D01*
X347794D01*
X347540Y-151248D01*
D02*
G37*
G36*
X380300Y-142098D02*
X380072Y-142358D01*
X379872Y-142618D01*
X379698Y-142875D01*
X379551Y-143132D01*
X379430Y-143387D01*
X379336Y-143641D01*
X379269Y-143894D01*
X379229Y-144145D01*
X379216Y-144396D01*
X377692D01*
X377679Y-144145D01*
X377639Y-143894D01*
X377572Y-143641D01*
X377478Y-143387D01*
X377357Y-143132D01*
X377210Y-142875D01*
X377036Y-142618D01*
X376836Y-142358D01*
X376608Y-142098D01*
X376354Y-141836D01*
X380554D01*
X380300Y-142098D01*
D02*
G37*
G36*
X402150Y-151502D02*
X401922Y-151763D01*
X401722Y-152022D01*
X401548Y-152279D01*
X401400Y-152536D01*
X401280Y-152791D01*
X401186Y-153045D01*
X401119Y-153298D01*
X401111Y-153350D01*
X401135Y-153493D01*
X401188Y-153695D01*
X401256Y-153866D01*
X401340Y-154006D01*
X401439Y-154115D01*
X401554Y-154193D01*
X401683Y-154240D01*
X401828Y-154255D01*
X398780D01*
X398925Y-154240D01*
X399054Y-154193D01*
X399169Y-154115D01*
X399268Y-154006D01*
X399352Y-153866D01*
X399420Y-153695D01*
X399473Y-153493D01*
X399497Y-153350D01*
X399488Y-153298D01*
X399422Y-153045D01*
X399328Y-152791D01*
X399207Y-152536D01*
X399060Y-152279D01*
X398886Y-152022D01*
X398686Y-151763D01*
X398458Y-151502D01*
X398204Y-151240D01*
X402404D01*
X402150Y-151502D01*
D02*
G37*
G36*
X379224Y-152996D02*
X379246Y-153260D01*
X379285Y-153493D01*
X379338Y-153695D01*
X379407Y-153866D01*
X379490Y-154006D01*
X379589Y-154115D01*
X379704Y-154193D01*
X379833Y-154240D01*
X379978Y-154255D01*
X376930D01*
X377075Y-154240D01*
X377204Y-154193D01*
X377319Y-154115D01*
X377418Y-154006D01*
X377501Y-153866D01*
X377570Y-153695D01*
X377623Y-153493D01*
X377662Y-153260D01*
X377684Y-152996D01*
X377692Y-152701D01*
X379216D01*
X379224Y-152996D01*
D02*
G37*
G36*
X369384Y-151756D02*
X369156Y-152016D01*
X368956Y-152276D01*
X368782Y-152533D01*
X368634Y-152790D01*
X368514Y-153045D01*
X368420Y-153299D01*
X368369Y-153494D01*
X368422Y-153695D01*
X368490Y-153866D01*
X368574Y-154006D01*
X368673Y-154115D01*
X368788Y-154193D01*
X368917Y-154240D01*
X369062Y-154255D01*
X366014D01*
X366159Y-154240D01*
X366288Y-154193D01*
X366403Y-154115D01*
X366502Y-154006D01*
X366586Y-153866D01*
X366654Y-153695D01*
X366707Y-153494D01*
X366656Y-153299D01*
X366562Y-153045D01*
X366441Y-152790D01*
X366294Y-152533D01*
X366120Y-152276D01*
X365920Y-152016D01*
X365692Y-151756D01*
X365438Y-151494D01*
X369638D01*
X369384Y-151756D01*
D02*
G37*
G36*
X410786Y-151502D02*
X410558Y-151763D01*
X410358Y-152022D01*
X410184Y-152279D01*
X410037Y-152536D01*
X409916Y-152791D01*
X409822Y-153045D01*
X409756Y-153298D01*
X409748Y-153349D01*
X409771Y-153489D01*
X409824Y-153691D01*
X409893Y-153862D01*
X409976Y-154002D01*
X410075Y-154111D01*
X410190Y-154190D01*
X410319Y-154238D01*
X410464Y-154255D01*
X407985Y-154225D01*
X408021Y-154209D01*
X408054Y-154164D01*
X408083Y-154087D01*
X408108Y-153981D01*
X408130Y-153844D01*
X408158Y-153508D01*
X408125Y-153298D01*
X408058Y-153045D01*
X407964Y-152791D01*
X407844Y-152536D01*
X407696Y-152279D01*
X407522Y-152022D01*
X407322Y-151763D01*
X407094Y-151502D01*
X406840Y-151240D01*
X411040D01*
X410786Y-151502D01*
D02*
G37*
G36*
X391228D02*
X391000Y-151763D01*
X390800Y-152022D01*
X390626Y-152279D01*
X390479Y-152536D01*
X390358Y-152791D01*
X390264Y-153045D01*
X390197Y-153298D01*
X390189Y-153350D01*
X390213Y-153493D01*
X390266Y-153695D01*
X390335Y-153866D01*
X390418Y-154006D01*
X390517Y-154115D01*
X390632Y-154193D01*
X390761Y-154240D01*
X390906Y-154255D01*
X387858D01*
X388003Y-154240D01*
X388132Y-154193D01*
X388247Y-154115D01*
X388346Y-154006D01*
X388429Y-153866D01*
X388498Y-153695D01*
X388551Y-153493D01*
X388575Y-153350D01*
X388567Y-153298D01*
X388500Y-153045D01*
X388406Y-152791D01*
X388285Y-152536D01*
X388138Y-152279D01*
X387964Y-152022D01*
X387764Y-151763D01*
X387536Y-151502D01*
X387282Y-151240D01*
X391482D01*
X391228Y-151502D01*
D02*
G37*
G36*
X488002Y-170616D02*
X487774Y-170877D01*
X487574Y-171136D01*
X487400Y-171393D01*
X487253Y-171650D01*
X487132Y-171905D01*
X487038Y-172159D01*
X486972Y-172412D01*
X486931Y-172663D01*
X486918Y-172914D01*
X485394D01*
X485381Y-172663D01*
X485340Y-172412D01*
X485274Y-172159D01*
X485180Y-171905D01*
X485060Y-171650D01*
X484912Y-171393D01*
X484738Y-171136D01*
X484538Y-170877D01*
X484310Y-170616D01*
X484056Y-170354D01*
X488256D01*
X488002Y-170616D01*
D02*
G37*
G36*
X509524Y-146304D02*
Y-185166D01*
X509437Y-185253D01*
X493937D01*
X491719Y-183034D01*
Y-171491D01*
X493847Y-169363D01*
X498920D01*
X501142Y-167141D01*
Y-146050D01*
X501396Y-145796D01*
X509016D01*
X509524Y-146304D01*
D02*
G37*
G36*
X501491Y-190103D02*
X501521Y-192358D01*
X501504Y-192213D01*
X501455Y-192084D01*
X501377Y-191969D01*
X501267Y-191870D01*
X501127Y-191786D01*
X500956Y-191718D01*
X500755Y-191665D01*
X500523Y-191626D01*
X500260Y-191604D01*
X499967Y-191596D01*
Y-190072D01*
X501491Y-190103D01*
D02*
G37*
G36*
X488980Y-190583D02*
X488933Y-190893D01*
X488914Y-191189D01*
X488923Y-191471D01*
X488960Y-191739D01*
X489025Y-191993D01*
X489117Y-192232D01*
X489238Y-192458D01*
X489386Y-192669D01*
X489562Y-192866D01*
X488197Y-193657D01*
X488031Y-193505D01*
X487840Y-193360D01*
X487625Y-193220D01*
X487386Y-193085D01*
X487122Y-192956D01*
X486522Y-192716D01*
X486186Y-192604D01*
X485440Y-192397D01*
X489054Y-190258D01*
X488980Y-190583D01*
D02*
G37*
G36*
X446958Y-202725D02*
X446997Y-202948D01*
X447061Y-203158D01*
X447150Y-203354D01*
X447265Y-203538D01*
X447406Y-203708D01*
X447572Y-203864D01*
X447763Y-204007D01*
X447981Y-204137D01*
X448223Y-204253D01*
X444541Y-205350D01*
X444708Y-205085D01*
X444990Y-204553D01*
X445104Y-204287D01*
X445201Y-204021D01*
X445281Y-203754D01*
X445342Y-203487D01*
X445386Y-203220D01*
X445413Y-202952D01*
X445421Y-202684D01*
X446945Y-202488D01*
X446958Y-202725D01*
D02*
G37*
G36*
X335652Y-241060D02*
X335665Y-241698D01*
X335764Y-242804D01*
X335852Y-243273D01*
X335964Y-243684D01*
X336101Y-244039D01*
X336264Y-244337D01*
X336451Y-244578D01*
X336663Y-244763D01*
X336900Y-244891D01*
X331842Y-242871D01*
X332083Y-242936D01*
X332299Y-242931D01*
X332490Y-242853D01*
X332655Y-242703D01*
X332795Y-242482D01*
X332909Y-242189D01*
X332998Y-241824D01*
X333061Y-241388D01*
X333099Y-240880D01*
X333112Y-240301D01*
X335652Y-241060D01*
D02*
G37*
G36*
X234647Y-248761D02*
X234342Y-249076D01*
X233862Y-249640D01*
X233687Y-249888D01*
X233554Y-250115D01*
X233465Y-250320D01*
X233419Y-250502D01*
X233416Y-250662D01*
X233456Y-250800D01*
X233539Y-250916D01*
X231414Y-248791D01*
X231530Y-248874D01*
X231668Y-248914D01*
X231828Y-248911D01*
X232010Y-248865D01*
X232215Y-248776D01*
X232442Y-248643D01*
X232690Y-248468D01*
X232961Y-248249D01*
X233570Y-247683D01*
X234647Y-248761D01*
D02*
G37*
G36*
X250333Y-250254D02*
X250040Y-250262D01*
X249777Y-250285D01*
X249545Y-250323D01*
X249344Y-250376D01*
X249173Y-250445D01*
X249033Y-250528D01*
X248923Y-250627D01*
X248845Y-250742D01*
X248796Y-250871D01*
X248779Y-251016D01*
X248810Y-248761D01*
X248825Y-248755D01*
X248871Y-248750D01*
X248947Y-248745D01*
X250333Y-248730D01*
Y-250254D01*
D02*
G37*
G36*
X167749Y-203345D02*
X167620Y-203391D01*
X167505Y-203469D01*
X167406Y-203578D01*
X167323Y-203718D01*
X167254Y-203889D01*
X167201Y-204091D01*
X167162Y-204324D01*
X167140Y-204588D01*
X167132Y-204883D01*
X165608D01*
X165600Y-204588D01*
X165578Y-204324D01*
X165539Y-204091D01*
X165486Y-203889D01*
X165417Y-203718D01*
X165334Y-203578D01*
X165235Y-203469D01*
X165120Y-203391D01*
X164991Y-203345D01*
X164846Y-203329D01*
X167894D01*
X167749Y-203345D01*
D02*
G37*
G36*
X151239D02*
X151110Y-203391D01*
X150995Y-203469D01*
X150896Y-203578D01*
X150813Y-203718D01*
X150744Y-203889D01*
X150691Y-204091D01*
X150653Y-204324D01*
X150630Y-204588D01*
X150622Y-204883D01*
X149098D01*
X149090Y-204588D01*
X149067Y-204324D01*
X149029Y-204091D01*
X148976Y-203889D01*
X148907Y-203718D01*
X148824Y-203578D01*
X148725Y-203469D01*
X148610Y-203391D01*
X148481Y-203345D01*
X148336Y-203329D01*
X151384D01*
X151239Y-203345D01*
D02*
G37*
G36*
X165650Y-208300D02*
X165486Y-208481D01*
X165337Y-208684D01*
X165202Y-208908D01*
X165082Y-209153D01*
X164976Y-209420D01*
X164885Y-209708D01*
X164808Y-210018D01*
X164746Y-210348D01*
X164664Y-211073D01*
X161936Y-207880D01*
X162291Y-207901D01*
X162627Y-207902D01*
X162945Y-207880D01*
X163244Y-207838D01*
X163526Y-207774D01*
X163789Y-207689D01*
X164034Y-207582D01*
X164261Y-207454D01*
X164470Y-207305D01*
X164660Y-207134D01*
X165650Y-208300D01*
D02*
G37*
G36*
X149913Y-208034D02*
X149746Y-208221D01*
X149597Y-208427D01*
X149465Y-208653D01*
X149352Y-208899D01*
X149256Y-209164D01*
X149179Y-209450D01*
X149120Y-209755D01*
X149078Y-210080D01*
X149055Y-210425D01*
X149050Y-210790D01*
X146080Y-207820D01*
X146445Y-207815D01*
X146790Y-207792D01*
X147115Y-207750D01*
X147420Y-207691D01*
X147706Y-207614D01*
X147971Y-207518D01*
X148217Y-207405D01*
X148443Y-207274D01*
X148649Y-207124D01*
X148836Y-206957D01*
X149913Y-208034D01*
D02*
G37*
G36*
X173185Y-211215D02*
X173208Y-211560D01*
X173250Y-211885D01*
X173309Y-212190D01*
X173386Y-212476D01*
X173482Y-212741D01*
X173595Y-212987D01*
X173727Y-213213D01*
X173876Y-213419D01*
X174043Y-213606D01*
X172966Y-214683D01*
X172779Y-214516D01*
X172573Y-214366D01*
X172347Y-214235D01*
X172101Y-214122D01*
X171836Y-214026D01*
X171550Y-213949D01*
X171245Y-213890D01*
X170920Y-213848D01*
X170575Y-213825D01*
X170210Y-213820D01*
X173180Y-210850D01*
X173185Y-211215D01*
D02*
G37*
G36*
X174687Y-215782D02*
X174710Y-216046D01*
X174748Y-216279D01*
X174802Y-216481D01*
X174870Y-216652D01*
X174954Y-216792D01*
X175053Y-216901D01*
X175167Y-216979D01*
X175297Y-217025D01*
X175442Y-217041D01*
X172394D01*
X172539Y-217025D01*
X172668Y-216979D01*
X172782Y-216901D01*
X172881Y-216792D01*
X172965Y-216652D01*
X173034Y-216481D01*
X173087Y-216279D01*
X173125Y-216046D01*
X173148Y-215782D01*
X173156Y-215487D01*
X174680D01*
X174687Y-215782D01*
D02*
G37*
G36*
X139476Y-222910D02*
X139436Y-223048D01*
X139439Y-223208D01*
X139485Y-223390D01*
X139574Y-223595D01*
X139707Y-223822D01*
X139882Y-224070D01*
X140101Y-224341D01*
X140667Y-224949D01*
X139590Y-226027D01*
X139274Y-225722D01*
X138710Y-225242D01*
X138462Y-225067D01*
X138235Y-224934D01*
X138030Y-224845D01*
X137848Y-224799D01*
X137688Y-224796D01*
X137550Y-224836D01*
X137434Y-224919D01*
X139559Y-222794D01*
X139476Y-222910D01*
D02*
G37*
G36*
X147862Y-231826D02*
X147600Y-231572D01*
X147339Y-231344D01*
X147080Y-231144D01*
X146823Y-230970D01*
X146566Y-230823D01*
X146311Y-230702D01*
X146057Y-230608D01*
X145804Y-230541D01*
X145553Y-230501D01*
X145302Y-230488D01*
Y-228964D01*
X145553Y-228951D01*
X145804Y-228911D01*
X146057Y-228844D01*
X146311Y-228750D01*
X146566Y-228629D01*
X146823Y-228482D01*
X147080Y-228308D01*
X147339Y-228108D01*
X147600Y-227880D01*
X147862Y-227626D01*
Y-231826D01*
D02*
G37*
G36*
X202039Y-176443D02*
X201910Y-176489D01*
X201795Y-176567D01*
X201696Y-176676D01*
X201612Y-176816D01*
X201544Y-176987D01*
X201491Y-177189D01*
X201453Y-177422D01*
X201430Y-177686D01*
X201422Y-177981D01*
X199898D01*
X199890Y-177686D01*
X199867Y-177422D01*
X199829Y-177189D01*
X199776Y-176987D01*
X199708Y-176816D01*
X199624Y-176676D01*
X199525Y-176567D01*
X199410Y-176489D01*
X199281Y-176443D01*
X199136Y-176427D01*
X202184D01*
X202039Y-176443D01*
D02*
G37*
G36*
X201430Y-180486D02*
X201453Y-180745D01*
X201491Y-180974D01*
X201544Y-181172D01*
X201612Y-181339D01*
X201696Y-181477D01*
X201795Y-181583D01*
X201910Y-181660D01*
X202039Y-181705D01*
X202184Y-181721D01*
X199136D01*
X199281Y-181705D01*
X199410Y-181660D01*
X199525Y-181583D01*
X199624Y-181477D01*
X199708Y-181339D01*
X199776Y-181172D01*
X199829Y-180974D01*
X199867Y-180745D01*
X199890Y-180486D01*
X199898Y-180196D01*
X201422D01*
X201430Y-180486D01*
D02*
G37*
G36*
X233079Y-194239D02*
X232785Y-194027D01*
X232437Y-193922D01*
X232034Y-193925D01*
X231577Y-194036D01*
X231066Y-194254D01*
X230500Y-194581D01*
X229879Y-195015D01*
X229204Y-195557D01*
X227691Y-196964D01*
X224996Y-194270D01*
X225754Y-193486D01*
X226945Y-192081D01*
X227379Y-191460D01*
X227706Y-190894D01*
X227924Y-190383D01*
X228035Y-189926D01*
X228038Y-189523D01*
X227934Y-189175D01*
X227721Y-188881D01*
X233079Y-194239D01*
D02*
G37*
G36*
X201425Y-191629D02*
X202184D01*
X202039Y-191645D01*
X201910Y-191691D01*
X201795Y-191769D01*
X201696Y-191878D01*
X201612Y-192018D01*
X201544Y-192189D01*
X201491Y-192391D01*
X201464Y-192551D01*
X201467Y-192600D01*
X201476Y-192650D01*
X201542Y-192903D01*
X201636Y-193157D01*
X201756Y-193412D01*
X201904Y-193669D01*
X202078Y-193926D01*
X202278Y-194186D01*
X202506Y-194446D01*
X202760Y-194708D01*
X201670D01*
X201709Y-194879D01*
X201797Y-195148D01*
X201896Y-195356D01*
X202008Y-195504D01*
X199312D01*
X199424Y-195356D01*
X199523Y-195148D01*
X199611Y-194879D01*
X199650Y-194708D01*
X198560D01*
X198814Y-194446D01*
X199042Y-194186D01*
X199242Y-193926D01*
X199416Y-193669D01*
X199564Y-193412D01*
X199684Y-193157D01*
X199778Y-192903D01*
X199844Y-192650D01*
X199858Y-192565D01*
X199829Y-192391D01*
X199776Y-192189D01*
X199708Y-192018D01*
X199624Y-191878D01*
X199525Y-191769D01*
X199410Y-191691D01*
X199281Y-191645D01*
X199136Y-191629D01*
X199895D01*
X199898Y-191294D01*
X201422D01*
X201425Y-191629D01*
D02*
G37*
G36*
X226712Y-197853D02*
X226761Y-198463D01*
X226844Y-199002D01*
X226960Y-199470D01*
X227109Y-199865D01*
X227292Y-200188D01*
X227507Y-200440D01*
X227756Y-200619D01*
X228037Y-200727D01*
X228353Y-200763D01*
X221227D01*
X221542Y-200727D01*
X221824Y-200619D01*
X222073Y-200440D01*
X222288Y-200188D01*
X222471Y-199865D01*
X222620Y-199470D01*
X222736Y-199002D01*
X222819Y-198463D01*
X222868Y-197853D01*
X222885Y-197170D01*
X226695D01*
X226712Y-197853D01*
D02*
G37*
G36*
X203672Y-196945D02*
X203709Y-197029D01*
X203772Y-197133D01*
X203860Y-197257D01*
X204112Y-197563D01*
X204465Y-197949D01*
X204919Y-198414D01*
X202225Y-201109D01*
X201982Y-200869D01*
X200943Y-199962D01*
X200839Y-199899D01*
X200755Y-199862D01*
X200690Y-199850D01*
X203660Y-196880D01*
X203672Y-196945D01*
D02*
G37*
G36*
X220851Y-209512D02*
X220813Y-209150D01*
X220697Y-208826D01*
X220505Y-208540D01*
X220236Y-208293D01*
X219891Y-208083D01*
X219468Y-207912D01*
X218969Y-207778D01*
X218393Y-207683D01*
X217740Y-207626D01*
X217010Y-207607D01*
Y-203797D01*
X217740Y-203778D01*
X218393Y-203721D01*
X218969Y-203626D01*
X219468Y-203492D01*
X219891Y-203321D01*
X220236Y-203111D01*
X220505Y-202864D01*
X220697Y-202578D01*
X220813Y-202254D01*
X220851Y-201892D01*
Y-209512D01*
D02*
G37*
G36*
X164406Y-247260D02*
X164178Y-247521D01*
X163978Y-247780D01*
X163804Y-248037D01*
X163657Y-248294D01*
X163536Y-248549D01*
X163498Y-248652D01*
X163512Y-248687D01*
X163596Y-248825D01*
X163695Y-248931D01*
X163810Y-249007D01*
X163939Y-249053D01*
X164084Y-249069D01*
X163374D01*
X163335Y-249307D01*
X163322Y-249558D01*
X161798D01*
X161785Y-249307D01*
X161747Y-249069D01*
X161036D01*
X161181Y-249053D01*
X161310Y-249007D01*
X161425Y-248931D01*
X161524Y-248825D01*
X161607Y-248687D01*
X161622Y-248652D01*
X161584Y-248549D01*
X161464Y-248294D01*
X161316Y-248037D01*
X161142Y-247780D01*
X160942Y-247521D01*
X160714Y-247260D01*
X160460Y-246998D01*
X164660D01*
X164406Y-247260D01*
D02*
G37*
G36*
X138193Y-253231D02*
X138284Y-253246D01*
X138548Y-253268D01*
X138843Y-253276D01*
Y-254800D01*
X138548Y-254808D01*
X138284Y-254830D01*
X138193Y-254845D01*
Y-256138D01*
X137931Y-255884D01*
X137670Y-255656D01*
X137411Y-255456D01*
X137314Y-255390D01*
X137305Y-255417D01*
X137289Y-255562D01*
Y-255373D01*
X137154Y-255282D01*
X136897Y-255135D01*
X136642Y-255014D01*
X136388Y-254920D01*
X136135Y-254853D01*
X135884Y-254813D01*
X135633Y-254800D01*
Y-253276D01*
X135884Y-253263D01*
X136135Y-253223D01*
X136388Y-253156D01*
X136642Y-253062D01*
X136897Y-252941D01*
X137154Y-252794D01*
X137289Y-252703D01*
Y-252514D01*
X137305Y-252659D01*
X137314Y-252686D01*
X137411Y-252620D01*
X137670Y-252420D01*
X137931Y-252192D01*
X138193Y-251938D01*
Y-253231D01*
D02*
G37*
G36*
X142739Y-252192D02*
X142999Y-252420D01*
X143259Y-252620D01*
X143356Y-252686D01*
X143365Y-252659D01*
X143381Y-252514D01*
Y-252703D01*
X143516Y-252794D01*
X143773Y-252941D01*
X144028Y-253062D01*
X144282Y-253156D01*
X144535Y-253223D01*
X144786Y-253263D01*
X145037Y-253276D01*
Y-254800D01*
X144786Y-254813D01*
X144535Y-254853D01*
X144282Y-254920D01*
X144028Y-255014D01*
X143773Y-255135D01*
X143516Y-255282D01*
X143381Y-255373D01*
Y-255562D01*
X143365Y-255417D01*
X143356Y-255390D01*
X143259Y-255456D01*
X142999Y-255656D01*
X142739Y-255884D01*
X142477Y-256138D01*
Y-254845D01*
X142386Y-254830D01*
X142122Y-254808D01*
X141826Y-254800D01*
Y-253276D01*
X142122Y-253268D01*
X142386Y-253246D01*
X142477Y-253231D01*
Y-251938D01*
X142739Y-252192D01*
D02*
G37*
G36*
X148699Y-258993D02*
X148570Y-259039D01*
X148455Y-259117D01*
X148356Y-259226D01*
X148272Y-259366D01*
X148204Y-259537D01*
X148151Y-259739D01*
X148112Y-259972D01*
X148090Y-260236D01*
X148082Y-260532D01*
X146558D01*
X146550Y-260236D01*
X146528Y-259972D01*
X146489Y-259739D01*
X146436Y-259537D01*
X146368Y-259366D01*
X146284Y-259226D01*
X146185Y-259117D01*
X146070Y-259039D01*
X145941Y-258993D01*
X145796Y-258977D01*
X148844D01*
X148699Y-258993D01*
D02*
G37*
G36*
X148090Y-263042D02*
X148112Y-263306D01*
X148151Y-263539D01*
X148204Y-263741D01*
X148272Y-263912D01*
X148356Y-264052D01*
X148455Y-264161D01*
X148570Y-264239D01*
X148699Y-264285D01*
X148844Y-264301D01*
X145796D01*
X145941Y-264285D01*
X146070Y-264239D01*
X146185Y-264161D01*
X146284Y-264052D01*
X146368Y-263912D01*
X146436Y-263741D01*
X146489Y-263539D01*
X146528Y-263306D01*
X146550Y-263042D01*
X146558Y-262747D01*
X148082D01*
X148090Y-263042D01*
D02*
G37*
G36*
X136382Y-274225D02*
X136253Y-274270D01*
X136138Y-274347D01*
X136039Y-274453D01*
X135955Y-274590D01*
X135887Y-274758D01*
X135834Y-274956D01*
X135795Y-275185D01*
X135773Y-275444D01*
X135765Y-275734D01*
X134241D01*
X134233Y-275444D01*
X134211Y-275185D01*
X134172Y-274956D01*
X134119Y-274758D01*
X134051Y-274590D01*
X133967Y-274453D01*
X133868Y-274347D01*
X133753Y-274270D01*
X133624Y-274225D01*
X133479Y-274209D01*
X136527D01*
X136382Y-274225D01*
D02*
G37*
G36*
X157130Y-288065D02*
X157604Y-288337D01*
X158178Y-288576D01*
X158854Y-288781D01*
X159630Y-288953D01*
X160506Y-289091D01*
X162562Y-289266D01*
X163741Y-289303D01*
X165021Y-289306D01*
X157226Y-297101D01*
X157223Y-295821D01*
X157011Y-292587D01*
X156873Y-291710D01*
X156701Y-290934D01*
X156496Y-290258D01*
X156257Y-289684D01*
X155985Y-289210D01*
X155679Y-288836D01*
X156756Y-287759D01*
X157130Y-288065D01*
D02*
G37*
G36*
X271891Y-264582D02*
X272939Y-264605D01*
Y-270955D01*
X271891Y-270962D01*
Y-271749D01*
X271827Y-271599D01*
X271637Y-271464D01*
X271319Y-271344D01*
X270875Y-271241D01*
X270303Y-271154D01*
X269677Y-271101D01*
X267605Y-271241D01*
X267161Y-271344D01*
X266843Y-271464D01*
X266653Y-271599D01*
X266590Y-271749D01*
Y-270978D01*
X265541Y-270955D01*
Y-264605D01*
X266590Y-264598D01*
Y-263811D01*
X266653Y-263961D01*
X266843Y-264097D01*
X267161Y-264216D01*
X267605Y-264319D01*
X268177Y-264406D01*
X268803Y-264459D01*
X270875Y-264319D01*
X271319Y-264216D01*
X271637Y-264097D01*
X271827Y-263961D01*
X271891Y-263811D01*
Y-264582D01*
D02*
G37*
G36*
X279034Y-314736D02*
X277773Y-316041D01*
X275791Y-318380D01*
X275070Y-319414D01*
X274528Y-320357D01*
X274166Y-321210D01*
X273983Y-321972D01*
X273980Y-322644D01*
X274157Y-323226D01*
X274513Y-323717D01*
X265563Y-314767D01*
X266054Y-315123D01*
X266636Y-315300D01*
X267308Y-315297D01*
X268070Y-315114D01*
X268923Y-314752D01*
X269866Y-314210D01*
X270900Y-313488D01*
X272024Y-312587D01*
X274543Y-310246D01*
X279034Y-314736D01*
D02*
G37*
G54D10*
X45488Y-129540D02*
X48218Y-126810D01*
Y-124248D02*
X51308Y-121158D01*
X62722Y-114496D02*
X64610Y-112608D01*
X48218Y-126810D02*
Y-124248D01*
X51308Y-121158D02*
X61214D01*
X62722Y-119650D02*
Y-114496D01*
X61214Y-121158D02*
X62722Y-119650D01*
X453390Y-210820D02*
Y-180594D01*
X447754Y-216456D02*
X453390Y-210820D01*
X334382Y-221878D02*
X339804Y-216456D01*
X447754D01*
X334382Y-244080D02*
Y-221878D01*
X317408Y-250190D02*
X328272D01*
X334382Y-244080D01*
X445516Y-172720D02*
X453390Y-180594D01*
X66288Y-280162D02*
X77470D01*
X58414Y-272288D02*
X66288Y-280162D01*
X12631Y-272288D02*
X58414D01*
X12062Y-273428D02*
X12631Y-272860D01*
X240030Y-149860D02*
Y-148860D01*
Y-164170D02*
Y-149860D01*
X144780Y-124498D02*
X148628Y-120650D01*
X190500Y-43180D02*
X193040D01*
X209995Y-60135D01*
Y-63310D02*
Y-60135D01*
Y-63310D02*
X212725Y-66040D01*
X213398D01*
X213360Y-81318D02*
X213398Y-81280D01*
X213360Y-97790D02*
Y-81318D01*
X236320Y-146130D02*
X237300D01*
X235812Y-145622D02*
X236320Y-146130D01*
X237300D02*
X240030Y-148860D01*
X235602Y-145622D02*
X235812D01*
X210630Y-120650D02*
X235602Y-145622D01*
X210630Y-120650D02*
Y-100520D01*
X152400Y-120650D02*
X210630D01*
Y-100520D02*
X213360Y-97790D01*
X224790Y-83820D02*
Y-76200D01*
X191246Y-73406D02*
X221996D01*
X224790Y-76200D01*
X152400Y-120650D02*
Y-109220D01*
X148628Y-120650D02*
X152400D01*
X240030Y-164170D02*
X241910Y-166050D01*
X129198Y-140004D02*
X129540Y-140346D01*
X290750Y-142812D02*
Y-139238D01*
X290830Y-139158D01*
X288020Y-145542D02*
X290750Y-142812D01*
X287020Y-145542D02*
X288020D01*
X65278Y-66294D02*
X73914D01*
X74930Y-67310D01*
X442054Y-132936D02*
X444477D01*
X445516Y-172720D02*
Y-133975D01*
X444477Y-132936D02*
X445516Y-133975D01*
X441198Y-132080D02*
X442054Y-132936D01*
X182880Y-66040D02*
X183880D01*
X191246Y-73406D01*
X129540Y-154940D02*
Y-140346D01*
X94980Y-256540D02*
X102600Y-248920D01*
X102870D01*
X93980Y-256540D02*
X94980D01*
X38956Y-328516D02*
X40640Y-330200D01*
X34704Y-328516D02*
X38956D01*
X73660Y-96520D02*
Y-87030D01*
X64160Y-105536D02*
X66164Y-103532D01*
X68172D01*
X68834Y-102870D01*
X64160Y-113030D02*
Y-105536D01*
X55626Y-97790D02*
X62722Y-104886D01*
Y-114496D02*
Y-104886D01*
X17780Y-97790D02*
X55626D01*
X12660Y-102660D02*
X12910D01*
X11430Y-104140D02*
Y-103890D01*
X12660Y-102660D01*
X12910D02*
X17780Y-97790D01*
X44488Y-129540D02*
X45488D01*
X34704Y-328516D02*
X37084Y-326136D01*
Y-295148D01*
X16632Y-328516D02*
X34704D01*
G54D12*
X52324Y-304546D02*
X53487Y-307353D01*
X56294Y-308516D01*
X63652Y-137240D02*
Y-128588D01*
X64842Y-138430D02*
X85090D01*
X63652Y-137240D02*
X64842Y-138430D01*
X59690Y-127474D02*
X60803Y-128588D01*
X63652D01*
X59690Y-128270D02*
Y-127474D01*
X26670Y-144780D02*
X45488D01*
X55436Y-132524D02*
X59690Y-128270D01*
X148590Y-236220D02*
X176530D01*
X134620D02*
X148590D01*
X56294Y-308516D02*
X63632D01*
X52324Y-304546D02*
Y-296148D01*
X75438Y-270002D02*
X76512D01*
X78290Y-271780D02*
X93980D01*
X76512Y-270002D02*
X78290Y-271780D01*
X178054Y-30226D02*
X190500Y-17780D01*
X178054Y-54318D02*
Y-30226D01*
X170316Y-62056D02*
X178054Y-54318D01*
X166332Y-66040D02*
X167332D01*
X170316Y-63056D01*
Y-62056D01*
X127000Y-56134D02*
Y-30480D01*
X88862Y-99060D02*
X88900Y-99098D01*
Y-113030D02*
Y-99098D01*
X313182Y-151216D02*
Y-144351D01*
X309954Y-154444D02*
X313182Y-151216D01*
X127000Y-56134D02*
X127759Y-56893D01*
Y-58947D02*
X134852Y-66040D01*
X127759Y-58947D02*
Y-56893D01*
X127000Y-30480D02*
X139700Y-17780D01*
X134852Y-66040D02*
X135852D01*
X314938Y-57150D02*
X322580D01*
X309954Y-62944D02*
Y-62134D01*
X314938Y-57150D01*
X148590Y-240030D02*
Y-236220D01*
X144780Y-154940D02*
X158788D01*
X144780D02*
X144780D01*
X144780Y-154940D02*
X144780Y-154940D01*
X144780Y-169926D02*
Y-154940D01*
X144780Y-154940D02*
Y-139662D01*
X132080Y-187134D02*
Y-172720D01*
Y-187134D02*
X135064Y-184150D01*
X149860D01*
X132080Y-187960D02*
Y-187134D01*
X166370Y-184150D02*
X182880D01*
X185420Y-186690D01*
X174028Y-154940D02*
X188404D01*
X185420Y-157924D02*
X188404Y-154940D01*
X185420Y-171488D02*
Y-157924D01*
X188404Y-154940D02*
X189268D01*
X149860Y-184150D02*
X166370D01*
X185420Y-186690D02*
Y-171488D01*
X158788Y-154940D02*
X174028D01*
X118110Y-254038D02*
X118148Y-254000D01*
Y-236220D01*
X134620D01*
X80640Y-102044D02*
X85878D01*
X79814Y-102870D02*
X80640Y-102044D01*
X78740Y-102870D02*
X79814D01*
X85878Y-102044D02*
X88862Y-99060D01*
X64160Y-87030D02*
Y-76810D01*
X45488Y-144780D02*
X55436Y-134832D01*
Y-132524D01*
G54D15*
X190500Y-322580D02*
X203409Y-309671D01*
Y-238551D02*
X213360Y-228600D01*
X203409Y-309671D02*
Y-238551D01*
X67310Y-271780D02*
Y-249936D01*
X438209Y-204676D02*
X439420D01*
X251388Y-249492D02*
X297680Y-203200D01*
X436733D02*
X438209Y-204676D01*
X297680Y-203200D02*
X436733D01*
X297180Y-199390D02*
X443086D01*
X251460Y-245110D02*
X297180Y-199390D01*
X443086D02*
X446184Y-202488D01*
X237220Y-245110D02*
X251460D01*
X229600Y-252730D02*
X237220Y-245110D01*
X247078Y-249492D02*
X251388D01*
X243840Y-252730D02*
X247078Y-249492D01*
X228600Y-252730D02*
X229600D01*
X228600Y-267970D02*
Y-267738D01*
Y-268475D02*
Y-267970D01*
Y-309880D02*
Y-268475D01*
X241300Y-297180D02*
Y-270510D01*
X243840Y-267970D01*
X246380Y-228600D02*
X300736Y-174244D01*
X213360Y-228600D02*
X246380D01*
X211201Y-224409D02*
X245999D01*
X199898Y-235712D02*
X211201Y-224409D01*
X245999D02*
X297688Y-172720D01*
X446184Y-206154D02*
X447040Y-207010D01*
X446184Y-206154D02*
Y-202488D01*
X215900Y-322580D02*
X228600Y-309880D01*
X241300Y-271780D02*
X241300Y-271780D01*
X300736Y-174244D02*
Y-106934D01*
X297688Y-172720D02*
Y-105672D01*
X199898Y-287782D02*
Y-235712D01*
X334518Y-163130D02*
Y-148844D01*
X323596Y-163052D02*
Y-148844D01*
X345694Y-162954D02*
Y-148844D01*
X356454Y-163194D02*
Y-149190D01*
X334454Y-163194D02*
X334518Y-163130D01*
X323454Y-163194D02*
X323596Y-163052D01*
X345454Y-163194D02*
X345694Y-162954D01*
X367538Y-163110D02*
Y-149352D01*
X367454Y-163194D02*
X367538Y-163110D01*
X408940Y-160680D02*
Y-149098D01*
X389382Y-163122D02*
Y-149098D01*
X400304Y-163044D02*
Y-149098D01*
X408940Y-160680D02*
X411454Y-163194D01*
X389382Y-163122D02*
X389454Y-163194D01*
X400304Y-163044D02*
X400454Y-163194D01*
X505460Y-209842D02*
Y-208842D01*
X502222Y-205604D02*
X505460Y-208842D01*
X486156Y-190538D02*
X501222Y-205604D01*
X502222D01*
X486156Y-190538D02*
Y-189484D01*
X290576Y-82042D02*
Y-15494D01*
X297142Y-8928D01*
X278130Y-94488D02*
X290576Y-82042D01*
X496222Y-190834D02*
X502222D01*
X486156Y-180767D02*
Y-168212D01*
Y-180767D02*
X496222Y-190834D01*
X505460Y-196072D02*
Y-195072D01*
X502222Y-190834D02*
X505460Y-194072D01*
Y-195072D02*
Y-194072D01*
X329692Y-34739D02*
X332740Y-31691D01*
Y-30480D01*
X329692Y-73667D02*
Y-34739D01*
X297688Y-105672D02*
X329692Y-73667D01*
X305283Y-102387D02*
X317477D01*
X300736Y-106934D02*
X305283Y-102387D01*
X486156Y-45020D02*
X489290Y-41886D01*
X486156Y-45212D02*
Y-45020D01*
X489290Y-40808D02*
X496650Y-33448D01*
X489290Y-41886D02*
Y-40808D01*
X496062Y-74930D02*
X505460D01*
X486156Y-65024D02*
X496062Y-74930D01*
X502222Y-33448D02*
X505460Y-30210D01*
Y-29210D01*
X496650Y-33448D02*
X502222D01*
X12680Y-293370D02*
X13891D01*
X9643Y-296407D02*
X12680Y-293370D01*
X7366Y-298587D02*
X9546Y-296407D01*
X9643D01*
X149860Y-281940D02*
X165100Y-297180D01*
X139700Y-281940D02*
X149860D01*
X140335Y-254038D02*
X147320D01*
X133350D02*
X140335D01*
X147320Y-269240D02*
Y-254038D01*
X135003Y-277243D02*
Y-270893D01*
Y-277243D02*
X139700Y-281940D01*
X133350Y-269240D02*
X135003Y-270893D01*
X378454Y-163194D02*
Y-139948D01*
X57997Y-301821D02*
X62045D01*
X62992Y-302768D01*
X52324Y-296148D02*
X57997Y-301821D01*
X72390Y-314612D02*
Y-292856D01*
X42964Y-279908D02*
X59442D01*
X72390Y-292856D01*
X26124Y-279908D02*
X42964D01*
X62941Y-292879D02*
X63638Y-293576D01*
X62941Y-292879D02*
Y-289846D01*
X29464Y-286512D02*
X59607D01*
X62941Y-289846D01*
X24600Y-263144D02*
X25870Y-264414D01*
X12192Y-263144D02*
X24600D01*
X40577Y-253428D02*
X42964Y-255816D01*
X12509Y-253428D02*
X40577D01*
X42964Y-264668D02*
Y-255816D01*
X25870Y-279654D02*
X26124Y-279908D01*
X27686Y-288290D02*
X29464Y-286512D01*
X68486Y-318516D02*
X72390Y-314612D01*
X63632Y-318516D02*
X68486D01*
X77515Y-318725D02*
Y-308565D01*
X88900Y-297180D01*
X72724Y-323516D02*
X77515Y-318725D01*
X152400Y-56642D02*
Y-30480D01*
X165100Y-17780D01*
X108712Y-264922D02*
Y-182626D01*
X89900Y-128270D02*
X100703Y-139073D01*
Y-174617D02*
X108712Y-182626D01*
X100703Y-174617D02*
Y-139073D01*
X108712Y-264922D02*
X113030Y-269240D01*
X118110D01*
X88900Y-128270D02*
X91440Y-125730D01*
X115570D01*
X88900Y-128270D02*
X89900D01*
X73660Y-129540D02*
X87630D01*
X88900Y-128270D01*
X247396Y-117094D02*
X253746Y-110744D01*
Y-56134D02*
X266700Y-43180D01*
X253746Y-110744D02*
Y-56134D01*
X228346Y-51562D02*
X233172Y-56388D01*
X229362Y-106426D02*
X233172Y-102616D01*
Y-56388D01*
X229362Y-123190D02*
Y-106426D01*
X228346Y-51562D02*
Y-30734D01*
X241300Y-17780D01*
X237998Y-58281D02*
X241300Y-54979D01*
X235204Y-117348D02*
Y-117011D01*
X237998Y-114217D02*
Y-58281D01*
X235204Y-117011D02*
X237998Y-114217D01*
X253492Y-49022D02*
Y-30988D01*
X242062Y-60452D02*
X253492Y-49022D01*
X242062Y-122936D02*
Y-60452D01*
X253492Y-30988D02*
X266700Y-17780D01*
X254254Y-131064D02*
X290830Y-94488D01*
X254254Y-159512D02*
Y-131064D01*
X241300Y-54979D02*
Y-43180D01*
X150130Y-66040D02*
X151130D01*
X146892Y-62802D02*
X150130Y-66040D01*
X146892Y-62802D02*
Y-61802D01*
X139700Y-54610D02*
Y-43180D01*
Y-54610D02*
X146892Y-61802D01*
X114300Y-59652D02*
Y-43180D01*
Y-59652D02*
X120688Y-66040D01*
X88900D02*
Y-43180D01*
Y-66040D02*
X90170Y-67310D01*
X91440Y-66040D02*
X105410D01*
X90170Y-67310D02*
X91440Y-66040D01*
X190500Y-297180D02*
X199898Y-287782D01*
X161671Y-210868D02*
X162004D01*
X166370Y-206502D01*
X119380Y-199390D02*
Y-198179D01*
X173918Y-218368D02*
Y-214558D01*
X170180Y-210820D02*
X173918Y-214558D01*
Y-218368D02*
X176530Y-220980D01*
X182880Y-109728D02*
Y-81280D01*
X198120D01*
X196502Y-133466D02*
Y-129888D01*
X189268Y-139700D02*
X190268D01*
X196502Y-133466D01*
Y-129888D02*
X197358Y-129032D01*
X118568Y-140004D02*
X129198D01*
X112522Y-114808D02*
X120904Y-106426D01*
X142456D02*
X146892Y-101990D01*
X120904Y-106426D02*
X142456D01*
X147892Y-101990D02*
X151130Y-98752D01*
Y-97752D01*
X146892Y-101990D02*
X147892D01*
X117412Y-103568D02*
Y-101028D01*
X113030Y-107950D02*
X117412Y-103568D01*
X107950Y-107950D02*
X113030D01*
X117412Y-101028D02*
X120650Y-97790D01*
Y-81318D01*
X158788Y-139700D02*
X174028D01*
X175028D02*
X185772Y-128956D01*
X174028Y-139700D02*
X175028D01*
X185772Y-128956D02*
X186004D01*
X200660Y-196850D02*
Y-186690D01*
Y-171488D01*
X116840Y-187960D02*
Y-172720D01*
X144366Y-229726D02*
X150004D01*
X134620Y-220980D02*
X135620D01*
X144366Y-229726D01*
X118148Y-220980D02*
X119380Y-219748D01*
Y-208280D01*
X116840Y-195639D02*
X119380Y-198179D01*
X116840Y-195639D02*
Y-187960D01*
X166370Y-206502D02*
Y-199390D01*
X149860Y-207010D02*
Y-199390D01*
X146050Y-210820D02*
X149860Y-207010D01*
X162560Y-254038D02*
Y-244856D01*
X73660Y-129540D02*
Y-113030D01*
Y-87030D02*
X85652D01*
X88862Y-83820D01*
X52324Y-296148D02*
Y-295148D01*
X63632Y-323516D02*
X72724D01*
X80468Y-328516D02*
X86404Y-322580D01*
X63632Y-328516D02*
X80468D01*
X86404Y-322580D02*
X88900D01*
X7366Y-311912D02*
X8970Y-313516D01*
X7366Y-311912D02*
Y-298587D01*
X4318Y-319321D02*
Y-291635D01*
X12642Y-283312D01*
X4318Y-319321D02*
X8513Y-323516D01*
X8970Y-313516D02*
X16632D01*
X12797Y-307834D02*
Y-302357D01*
X12700Y-302260D02*
X12797Y-302357D01*
X27686Y-315976D02*
Y-288290D01*
X8513Y-323516D02*
X16632D01*
X25146Y-318516D02*
X27686Y-315976D01*
X16632Y-318516D02*
X25146D01*
X13479Y-308516D02*
X16632D01*
X12797Y-307834D02*
X13479Y-308516D01*
X166332Y-81280D02*
X166370Y-81318D01*
Y-97752D02*
Y-81318D01*
X151130Y-97752D02*
Y-81280D01*
X135852D02*
X135890Y-81318D01*
Y-97790D02*
Y-81318D01*
X120650D02*
X120688Y-81280D01*
X100330Y-110490D02*
X101172Y-109648D01*
Y-84518D01*
X104410Y-81280D01*
X105410D01*
G54D43*
X520700Y-29210D02*
D03*
X505460D02*
D03*
X520700Y-74930D02*
D03*
X505460D02*
D03*
X520700Y-195072D02*
D03*
X505460D02*
D03*
X520700Y-209842D02*
D03*
X505460D02*
D03*
X162560Y-269240D02*
D03*
X147320D02*
D03*
X520700Y-150876D02*
D03*
X505460D02*
D03*
X520700Y-44412D02*
D03*
X505460D02*
D03*
X520700Y-59690D02*
D03*
X505460D02*
D03*
X198120Y-97790D02*
D03*
X213360D02*
D03*
X144780Y-124498D02*
D03*
X129540D02*
D03*
X240030Y-149860D02*
D03*
X224790D02*
D03*
Y-205702D02*
D03*
X240030D02*
D03*
X90170Y-67310D02*
D03*
X74930D02*
D03*
X58420Y-129540D02*
D03*
X73660D02*
D03*
X118110Y-269240D02*
D03*
X133350D02*
D03*
X120650Y-97790D02*
D03*
X135890D02*
D03*
X151130Y-97752D02*
D03*
X166370D02*
D03*
X129540Y-139662D02*
D03*
X144780D02*
D03*
X129540Y-154940D02*
D03*
X144780D02*
D03*
X116840Y-172720D02*
D03*
X132080D02*
D03*
X116840Y-187960D02*
D03*
X132080D02*
D03*
X200660Y-171488D02*
D03*
X185420D02*
D03*
X200660Y-186690D02*
D03*
X185420D02*
D03*
X147320Y-254038D02*
D03*
X162560D02*
D03*
X118110D02*
D03*
X133350D02*
D03*
X37084Y-295148D02*
D03*
X52324D02*
D03*
X505460Y-165608D02*
D03*
X520700D02*
D03*
X505460Y-180340D02*
D03*
X520700D02*
D03*
G54D44*
X261620Y-267780D02*
D03*
Y-252540D02*
D03*
X276860Y-267780D02*
D03*
Y-252540D02*
D03*
X228600Y-267970D02*
D03*
Y-252730D02*
D03*
X243840Y-267970D02*
D03*
Y-252730D02*
D03*
X42964Y-279908D02*
D03*
Y-264668D02*
D03*
X25870Y-264414D02*
D03*
Y-279654D02*
D03*
X115570Y-125730D02*
D03*
Y-140970D02*
D03*
X88900Y-113030D02*
D03*
Y-128270D02*
D03*
X213398Y-81280D02*
D03*
Y-66040D02*
D03*
X287020Y-145542D02*
D03*
Y-160782D02*
D03*
X198120Y-81280D02*
D03*
Y-66040D02*
D03*
X182880Y-81280D02*
D03*
Y-66040D02*
D03*
X166332Y-81280D02*
D03*
Y-66040D02*
D03*
X151130D02*
D03*
Y-81280D02*
D03*
X135852D02*
D03*
Y-66040D02*
D03*
X120688D02*
D03*
Y-81280D02*
D03*
X105410Y-66040D02*
D03*
Y-81280D02*
D03*
X88862Y-83820D02*
D03*
Y-99060D02*
D03*
X26670Y-129540D02*
D03*
Y-144780D02*
D03*
X44488D02*
D03*
Y-129540D02*
D03*
X189268Y-139700D02*
D03*
Y-154940D02*
D03*
X174028Y-139700D02*
D03*
Y-154940D02*
D03*
X158788Y-139700D02*
D03*
Y-154940D02*
D03*
X149860Y-199390D02*
D03*
Y-184150D02*
D03*
X166370Y-199390D02*
D03*
Y-184150D02*
D03*
X118148Y-220980D02*
D03*
Y-236220D02*
D03*
X134620Y-220980D02*
D03*
Y-236220D02*
D03*
X176530Y-220980D02*
D03*
Y-236220D02*
D03*
X93980Y-256540D02*
D03*
Y-271780D02*
D03*
G54D45*
X33020Y-107890D02*
D03*
Y-87690D02*
D03*
G54D100*
X540512Y-213360D02*
X540766Y-213614D01*
X540512Y-229362D02*
Y-221996D01*
X540766Y-221742D02*
Y-213614D01*
X540512Y-221996D02*
X540766Y-221742D01*
X437896Y-89408D02*
X446024D01*
G54D101*
X276860Y-267780D02*
X279210D01*
X261620D02*
X276860D01*
X266700Y-322580D02*
X283210Y-306070D01*
Y-271780D01*
X279210Y-267780D02*
X283210Y-271780D01*
G54D103*
X209512Y-205702D02*
X224790D01*
X200660Y-196850D02*
X209512Y-205702D01*
X224790Y-197170D02*
X232410Y-189550D01*
X224790Y-205702D02*
Y-197170D01*
G54D105*
X11430Y-115570D02*
X13008D01*
X15899Y-111350D02*
X29560D01*
X11855Y-115570D02*
Y-115394D01*
X15899Y-111350D01*
X24210Y-128080D02*
X25210D01*
X26670Y-129540D01*
X13184Y-117054D02*
Y-115746D01*
Y-117054D02*
X24210Y-128080D01*
X13008Y-115570D02*
X13184Y-115746D01*
X29560Y-111350D02*
X33020Y-107890D01*
X51770D01*
X54660Y-110780D01*
Y-113030D02*
Y-110780D01*
X11430Y-88140D02*
X54450D01*
X54660Y-87930D02*
Y-87030D01*
X54450Y-88140D02*
X54660Y-87930D01*
G54D107*
X361188Y-257810D02*
D03*
G54D108*
X436188D02*
D03*
G54D109*
X482860Y-223550D02*
D03*
Y-137150D02*
D03*
Y-100550D02*
D03*
Y-14150D02*
D03*
G54D110*
X524660Y-223550D02*
D03*
Y-137150D02*
D03*
Y-100550D02*
D03*
Y-14150D02*
D03*
G54D111*
X30000Y-30000D02*
D03*
X520000Y-310000D02*
D03*
G54D112*
X88900Y-17780D02*
D03*
X266700Y-322580D02*
D03*
G54D113*
X88900Y-43180D02*
D03*
X114300Y-17780D02*
D03*
Y-43180D02*
D03*
X139700Y-17780D02*
D03*
X139700Y-43180D02*
D03*
X165100Y-17780D02*
D03*
Y-43180D02*
D03*
X190500Y-17780D02*
D03*
Y-43180D02*
D03*
X215900Y-17780D02*
D03*
Y-43180D02*
D03*
X241300Y-17780D02*
D03*
Y-43180D02*
D03*
X266700Y-17780D02*
D03*
X266700Y-43180D02*
D03*
X88900Y-297180D02*
D03*
X88900Y-322580D02*
D03*
X114300Y-297180D02*
D03*
Y-322580D02*
D03*
X139700Y-297180D02*
D03*
Y-322580D02*
D03*
X165100Y-297180D02*
D03*
Y-322580D02*
D03*
X190500Y-297180D02*
D03*
Y-322580D02*
D03*
X215900Y-297180D02*
D03*
X215900Y-322580D02*
D03*
X241300Y-297180D02*
D03*
Y-322580D02*
D03*
X266700Y-297180D02*
D03*
G54D114*
X209550Y-255270D02*
D03*
X85090Y-138430D02*
D03*
X11430Y-115570D02*
D03*
X86001Y-213832D02*
D03*
X67310Y-249936D02*
D03*
X378454Y-139694D02*
D03*
X423672Y-133858D02*
D03*
X100838Y-333248D02*
D03*
X282194D02*
D03*
X409956Y-250444D02*
D03*
X439420Y-204676D02*
D03*
X434340Y-165100D02*
D03*
X281686Y-234188D02*
D03*
X306070Y-236220D02*
D03*
X241300Y-235966D02*
D03*
X445770Y-222250D02*
D03*
Y-229870D02*
D03*
X317500Y-302260D02*
D03*
Y-309880D02*
D03*
X331470Y-317500D02*
D03*
Y-325041D02*
D03*
X293370Y-292100D02*
D03*
X453390Y-222250D02*
D03*
Y-229870D02*
D03*
X447040Y-207010D02*
D03*
X377098Y-255270D02*
D03*
X468630Y-295910D02*
D03*
X414690Y-299974D02*
D03*
X408940Y-149098D02*
D03*
X334518Y-148844D02*
D03*
X323596D02*
D03*
X345694D02*
D03*
X389382Y-149098D02*
D03*
X367538Y-149352D02*
D03*
X356454Y-149190D02*
D03*
X400304Y-149098D02*
D03*
X297180Y-236220D02*
D03*
X314960D02*
D03*
Y-284518D02*
D03*
X468630Y-303530D02*
D03*
X410197Y-288160D02*
D03*
X427263Y-332740D02*
D03*
X419008Y-332740D02*
D03*
X410753Y-332740D02*
D03*
X402498Y-332740D02*
D03*
X495554Y-181864D02*
D03*
X486156Y-189484D02*
D03*
X495554Y-174054D02*
D03*
X486156Y-168212D02*
D03*
X364490Y-105918D02*
D03*
X486156Y-45212D02*
D03*
X317477Y-102387D02*
D03*
X495554Y-59690D02*
D03*
Y-51054D02*
D03*
X486156Y-65024D02*
D03*
X435356Y-24638D02*
D03*
X13891Y-293370D02*
D03*
X297434Y-193040D02*
D03*
X62992Y-302768D02*
D03*
X77470Y-280162D02*
D03*
X76708Y-288544D02*
D03*
X63638Y-293576D02*
D03*
X67310Y-271780D02*
D03*
X75438Y-270002D02*
D03*
X12062Y-273428D02*
D03*
X12192Y-263144D02*
D03*
X152400Y-56642D02*
D03*
X167894Y-107958D02*
D03*
X127000Y-56134D02*
D03*
X307340Y-116840D02*
D03*
X289560D02*
D03*
X218440Y-118110D02*
D03*
X152400Y-109220D02*
D03*
X247650Y-69850D02*
D03*
Y-104140D02*
D03*
X198120Y-57404D02*
D03*
X225806Y-100076D02*
D03*
X229362Y-123190D02*
D03*
X235204Y-117348D02*
D03*
X242062Y-122936D02*
D03*
X247396Y-117094D02*
D03*
X290830Y-139158D02*
D03*
X313182Y-144351D02*
D03*
X224790Y-83820D02*
D03*
X254254Y-159512D02*
D03*
X65278Y-66294D02*
D03*
X435610Y-6858D02*
D03*
X535432Y-70358D02*
D03*
X535914Y-34231D02*
D03*
X364236Y-50038D02*
D03*
X405130D02*
D03*
X389890Y-33020D02*
D03*
X298450Y-48260D02*
D03*
X222758Y-59182D02*
D03*
X382778Y-50038D02*
D03*
X543306Y-274828D02*
D03*
X483616Y-331724D02*
D03*
X8636Y-66802D02*
D03*
X71120Y-7620D02*
D03*
X140335Y-254038D02*
D03*
X332740Y-30480D02*
D03*
X322580Y-57150D02*
D03*
X540766Y-221742D02*
D03*
Y-213360D02*
D03*
X540512Y-229362D02*
D03*
X161671Y-210868D02*
D03*
X119380Y-199390D02*
D03*
X170180Y-210820D02*
D03*
X282956Y-254000D02*
D03*
X148590Y-240030D02*
D03*
X102870Y-248920D02*
D03*
X40640Y-330200D02*
D03*
X297142Y-8928D02*
D03*
X441198Y-132080D02*
D03*
X284226Y-13970D02*
D03*
X182880Y-109728D02*
D03*
X197358Y-129032D02*
D03*
X175228Y-169587D02*
D03*
X144780Y-169926D02*
D03*
X160004Y-169757D02*
D03*
X118568Y-141274D02*
D03*
X112522Y-114808D02*
D03*
X107950Y-107950D02*
D03*
X186004Y-128956D02*
D03*
X200660Y-196850D02*
D03*
X150004Y-229726D02*
D03*
X119380Y-208280D02*
D03*
X162560Y-244856D02*
D03*
X154004Y-210900D02*
D03*
X146050Y-210820D02*
D03*
X78740Y-102870D02*
D03*
X73660Y-96520D02*
D03*
X68834Y-102870D02*
D03*
X64160Y-76810D02*
D03*
X12509Y-253428D02*
D03*
X12603Y-243428D02*
D03*
X12725Y-163429D02*
D03*
Y-203429D02*
D03*
X12700Y-302260D02*
D03*
X12642Y-283312D02*
D03*
X454152Y-89408D02*
D03*
X446024D02*
D03*
X437896D02*
D03*
X358140Y-31242D02*
D03*
X290830Y-94488D02*
D03*
X278130D02*
D03*
X100330Y-110490D02*
D03*
G54D116*
X458954Y-154444D02*
D03*
G54D117*
X323454Y-163194D02*
D03*
X334454Y-163194D02*
D03*
X345454Y-163194D02*
D03*
X367454Y-163194D02*
D03*
X389454Y-163194D02*
D03*
X400454Y-163194D02*
D03*
X411454Y-163194D02*
D03*
X356454Y-163194D02*
D03*
X378454D02*
D03*
G54D118*
X309954Y-154444D02*
D03*
G54D119*
Y-62944D02*
D03*
X467954D02*
D03*
G54D120*
X317408Y-257810D02*
D03*
G54D121*
X479968D02*
D03*
G54D122*
X232410Y-189550D02*
D03*
X241910Y-166050D02*
D03*
X222910Y-166050D02*
D03*
G54D123*
X54660Y-113030D02*
D03*
X64160Y-113030D02*
D03*
X73660Y-113030D02*
D03*
Y-87030D02*
D03*
X64160Y-87030D02*
D03*
X54660Y-87030D02*
D03*
G54D124*
X63632Y-308516D02*
D03*
X16632D02*
D03*
X63632Y-328516D02*
D03*
Y-323516D02*
D03*
Y-318516D02*
D03*
X63632Y-313516D02*
D03*
X16632Y-313516D02*
D03*
Y-318516D02*
D03*
Y-323516D02*
D03*
Y-328516D02*
D03*
G54D125*
X11430Y-104140D02*
D03*
Y-88140D02*
D03*
M02*
