M48
;Layer_Color=9474304
;FILE_FORMAT=4:4
METRIC,LZ
;TYPE=PLATED
T1F00S00C0.3000
T3F00S00C0.9000
%
T01
X0004064Y-003302
X00100838Y-00333248
X00282194
X0033147Y-00325041
Y-003175
X003175Y-0030988
X00402498Y-0033274
X00410753Y-0033274
X00419008Y-0033274
X00427263Y-0033274
X00483616Y-00331724
X0046863Y-0030353
Y-0029591
X0041469Y-00299974
X00410197Y-0028816
X00409956Y-00250444
X00377098Y-0025527
X0031496Y-0023622
X0030607
X0029718
X00281686Y-00234188
X00282956Y-00254
X0029337Y-002921
X0031496Y-00284518
X003175Y-0030226
X00297434Y-0019304
X0029083Y-00139158
X0028956Y-0011684
X0030734
X00317477Y-00102387
X0029083Y-00094488
X0027813
X0024765Y-0010414
X00247396Y-00117094
X00242062Y-00122936
X00235204Y-00117348
X0024765Y-0006985
X0029845Y-0004826
X0032258Y-0005715
X0033274Y-0003048
X0035814Y-00031242
X00364236Y-00050038
X00382778
X0040513
X0038989Y-0003302
X00435356Y-00024638
X0043561Y-00006858
X00437896Y-00089408
X00446024
X00454152
X00441198Y-0013208
X00423672Y-00133858
X0040894Y-00149098
X00400304
X00389382
X00378454Y-00139694
X00367538Y-00149352
X00356454Y-0014919
X00345694Y-00148844
X00334518
X00323596
X00313182Y-00144351
X00254254Y-00159512
X002413Y-00235966
X0044577Y-0022987
Y-0022225
X0045339
Y-0022987
X0044704Y-0020701
X0043942Y-00204676
X0043434Y-001651
X00486156Y-00168212
X00495554Y-00174054
Y-00181864
X00486156Y-00189484
X00540766Y-0021336
Y-00221742
X00540512Y-00229362
X00543306Y-00274828
X00535432Y-00070358
X00535914Y-00034231
X00495554Y-00051054
Y-0005969
X00486156Y-00065024
Y-00045212
X0036449Y-00105918
X00297142Y-00008928
X00284226Y-0001397
X00222758Y-00059182
X0019812Y-00057404
X001524Y-00056642
X00127Y-00056134
X0010795Y-0010795
X0010033Y-0011049
X00112522Y-00114808
X00118568Y-00141274
X0008509Y-0013843
X0007874Y-0010287
X00068834
X0007366Y-0009652
X0006416Y-0007681
X00065278Y-00066294
X00008636Y-00066802
X0001143Y-0011557
X00012725Y-00163429
Y-00203429
X00012603Y-00243428
X00012509Y-00253428
X00012192Y-00263144
X00012062Y-00273428
X00012642Y-00283312
X00013891Y-0029337
X000127Y-0030226
X00062992Y-00302768
X00063638Y-00293576
X00076708Y-00288544
X0007747Y-00280162
X00075438Y-00270002
X0006731Y-0027178
Y-00249936
X0010287Y-0024892
X00140335Y-00254038
X0014859Y-0024003
X00150004Y-00229726
X00154004Y-002109
X00161671Y-00210868
X0017018Y-0021082
X0014605
X0011938Y-0020828
Y-0019939
X00086001Y-00213832
X0014478Y-00169926
X00160004Y-00169757
X00175228Y-00169587
X00186004Y-00128956
X00197358Y-00129032
X0021844Y-0011811
X00229362Y-0012319
X00225806Y-00100076
X0022479Y-0008382
X0018288Y-00109728
X00167894Y-00107958
X001524Y-0010922
X0020066Y-0019685
X0020955Y-0025527
X0016256Y-00244856
X0007112Y-0000762
T03
X000889Y-0032258
X001143
X001397
X001651
X001905
X002159
X002413
X002667
Y-0029718
X002413
X002413Y-0004318
Y-0001778
X002667
X002667Y-0004318
X002159
X001905
X001651
X001397
X001143
X000889
Y-0001778
X001143
X001397
X001651
X001905
X002159
X002159Y-0029718
X001905
X001651
X001397
X001143
X000889
M30
