G04*
G04 #@! TF.GenerationSoftware,Altium Limited,Altium Designer,22.7.1 (60)*
G04*
G04 Layer_Color=16711935*
%FSLAX44Y44*%
%MOMM*%
G71*
G04*
G04 #@! TF.SameCoordinates,186F2EC3-0C17-4490-BAB8-18F5E94287E0*
G04*
G04*
G04 #@! TF.FilePolarity,Positive*
G04*
G01*
G75*
%ADD13C,0.2000*%
%ADD14C,0.1270*%
G54D13*
X550004Y-12704D02*
X549760Y-10226D01*
X549037Y-7844D01*
X547864Y-5648D01*
X546284Y-3724D01*
X544360Y-2144D01*
X542164Y-971D01*
X539782Y-248D01*
X537304Y-4D01*
X12704D02*
X10226Y-248D01*
X7844Y-971D01*
X5648Y-2144D01*
X3724Y-3724D01*
X2144Y-5648D01*
X971Y-7844D01*
X248Y-10226D01*
X4Y-12704D01*
Y-327300D02*
X248Y-329778D01*
X971Y-332160D01*
X2144Y-334356D01*
X3724Y-336280D01*
X5648Y-337860D01*
X7844Y-339033D01*
X10226Y-339756D01*
X12704Y-340000D01*
X537304D02*
X539782Y-339756D01*
X542164Y-339033D01*
X544360Y-337860D01*
X546284Y-336280D01*
X547864Y-334356D01*
X549037Y-332160D01*
X549760Y-329778D01*
X550004Y-327300D01*
X12704Y-4D02*
X537304D01*
X4Y-327300D02*
X4Y-12704D01*
X550004Y-327300D02*
X550004Y-12704D01*
X12704Y-340000D02*
X537304Y-340000D01*
G54D14*
X491410Y-151450D02*
X490458Y-149152D01*
X488160Y-148200D01*
X485862Y-149152D01*
X484910Y-151450D01*
X485862Y-153748D01*
X488160Y-154700D01*
X490458Y-153748D01*
X491410Y-151450D01*
Y-209250D02*
X490458Y-206952D01*
X488160Y-206000D01*
X485862Y-206952D01*
X484910Y-209250D01*
X485862Y-211548D01*
X488160Y-212500D01*
X490458Y-211548D01*
X491410Y-209250D01*
Y-28450D02*
X490458Y-26152D01*
X488160Y-25200D01*
X485862Y-26152D01*
X484910Y-28450D01*
X485862Y-30748D01*
X488160Y-31700D01*
X490458Y-30748D01*
X491410Y-28450D01*
Y-86250D02*
X490458Y-83952D01*
X488160Y-83000D01*
X485862Y-83952D01*
X484910Y-86250D01*
X485862Y-88548D01*
X488160Y-89500D01*
X490458Y-88548D01*
X491410Y-86250D01*
M02*
