G04*
G04 #@! TF.GenerationSoftware,Altium Limited,Altium Designer,22.7.1 (60)*
G04*
G04 Layer_Color=255*
%FSLAX44Y44*%
%MOMM*%
G71*
G04*
G04 #@! TF.SameCoordinates,186F2EC3-0C17-4490-BAB8-18F5E94287E0*
G04*
G04*
G04 #@! TF.FilePolarity,Positive*
G04*
G01*
G75*
%ADD40R,1.2700X1.5240*%
%ADD41O,0.2794X1.2700*%
%ADD42R,0.2794X1.2700*%
%ADD43R,0.8000X1.0000*%
%ADD44R,1.0000X0.8000*%
%ADD45R,2.1000X1.2000*%
%ADD46R,0.8000X0.2500*%
%ADD47R,1.5000X1.5000*%
%ADD48R,0.2500X0.8000*%
%ADD49R,1.0000X0.5500*%
%ADD50R,1.5240X1.2700*%
%ADD51R,1.4500X0.3000*%
%ADD52R,3.4000X3.0000*%
%ADD53O,0.6096X2.0320*%
%ADD54R,0.5000X0.7620*%
%ADD55R,0.9144X1.2700*%
%ADD56R,0.9144X0.9144*%
%ADD57O,0.6096X1.8796*%
%ADD58O,0.8000X0.2000*%
%ADD59O,0.2000X0.8000*%
%ADD60R,7.0000X7.0000*%
%ADD61R,4.0000X1.8000*%
%ADD62R,1.6000X0.5000*%
%ADD63R,0.5500X0.5000*%
%ADD64R,1.5000X1.0000*%
%ADD65R,1.4000X1.0000*%
%ADD107C,1.5000*%
%ADD108C,1.1000*%
%ADD109O,2.4000X1.0000*%
%ADD110O,1.8000X1.0000*%
%ADD111C,5.0000*%
%ADD112R,1.5748X1.5748*%
%ADD113C,1.5748*%
G54D40*
X509270Y-257556D02*
D03*
X532130D02*
D03*
X319786Y-322580D02*
D03*
X296926D02*
D03*
G54D41*
X445690Y-148590D02*
D03*
X430690Y-191770D02*
D03*
Y-148590D02*
D03*
X435690Y-191770D02*
D03*
X440690Y-191770D02*
D03*
X445690D02*
D03*
X450690D02*
D03*
X435690Y-148590D02*
D03*
X440690D02*
D03*
G54D42*
X450690D02*
D03*
G54D43*
X359156Y-292189D02*
D03*
X343916D02*
D03*
X359156Y-307467D02*
D03*
X343916D02*
D03*
X359156Y-322707D02*
D03*
X343916D02*
D03*
X474980Y-270510D02*
D03*
X459740Y-270510D02*
D03*
X474980Y-285750D02*
D03*
X459740Y-285750D02*
D03*
X474980Y-255270D02*
D03*
X459740D02*
D03*
X414020Y-189700D02*
D03*
X398780D02*
D03*
X414020Y-205994D02*
D03*
X398780D02*
D03*
X403860Y-96520D02*
D03*
X388620D02*
D03*
X308610Y-303568D02*
D03*
X293370D02*
D03*
X327660Y-96482D02*
D03*
X342900D02*
D03*
X469900Y-240030D02*
D03*
X454660D02*
D03*
X373380Y-96520D02*
D03*
X358140D02*
D03*
X162560Y-254000D02*
D03*
X147320D02*
D03*
X133350D02*
D03*
X118110D02*
D03*
X123190Y-83820D02*
D03*
X138430D02*
D03*
X123190Y-99060D02*
D03*
X138430D02*
D03*
X153670Y-68580D02*
D03*
X168910D02*
D03*
X123190D02*
D03*
X138430D02*
D03*
X198120D02*
D03*
X182880D02*
D03*
X200660Y-100060D02*
D03*
X215900D02*
D03*
X186690Y-83820D02*
D03*
X171450D02*
D03*
Y-99060D02*
D03*
X186690D02*
D03*
X215900Y-83820D02*
D03*
X200660D02*
D03*
X241300Y-269240D02*
D03*
X256540D02*
D03*
X241300Y-253962D02*
D03*
X256540D02*
D03*
X273050Y-234188D02*
D03*
X257810D02*
D03*
G54D44*
X429260Y-287020D02*
D03*
Y-271780D02*
D03*
X444500D02*
D03*
Y-287020D02*
D03*
X425450Y-300990D02*
D03*
Y-316230D02*
D03*
X410156Y-323850D02*
D03*
Y-308610D02*
D03*
X455892Y-300990D02*
D03*
Y-316230D02*
D03*
X440690D02*
D03*
Y-300990D02*
D03*
X358140Y-240030D02*
D03*
Y-224790D02*
D03*
X342900D02*
D03*
Y-240030D02*
D03*
X327698D02*
D03*
Y-224790D02*
D03*
X373418Y-237490D02*
D03*
Y-222250D02*
D03*
X388658Y-237490D02*
D03*
Y-222250D02*
D03*
X314960Y-260350D02*
D03*
Y-275590D02*
D03*
X403860Y-222250D02*
D03*
Y-237490D02*
D03*
X327660Y-129540D02*
D03*
Y-114300D02*
D03*
X342900Y-129540D02*
D03*
Y-114300D02*
D03*
X358178D02*
D03*
Y-129540D02*
D03*
X373380Y-114300D02*
D03*
Y-129540D02*
D03*
X297142Y-33020D02*
D03*
Y-17780D02*
D03*
X102870Y-271780D02*
D03*
Y-256540D02*
D03*
X86360Y-271780D02*
D03*
Y-256540D02*
D03*
X83782Y-86360D02*
D03*
Y-71120D02*
D03*
X107950Y-83820D02*
D03*
Y-99060D02*
D03*
X153708Y-83820D02*
D03*
Y-99060D02*
D03*
X273088Y-254000D02*
D03*
Y-269240D02*
D03*
X287020Y-216408D02*
D03*
Y-201168D02*
D03*
G54D45*
X384810Y-328810D02*
D03*
Y-308610D02*
D03*
X340360Y-256600D02*
D03*
Y-276800D02*
D03*
X429260Y-223580D02*
D03*
Y-243780D02*
D03*
G54D46*
X377848Y-272670D02*
D03*
X408848D02*
D03*
X377848Y-264670D02*
D03*
Y-268670D02*
D03*
Y-276670D02*
D03*
X377848Y-280670D02*
D03*
X408848D02*
D03*
Y-276670D02*
D03*
Y-268670D02*
D03*
X408848Y-264670D02*
D03*
G54D47*
X393348Y-272670D02*
D03*
G54D48*
Y-288170D02*
D03*
Y-257170D02*
D03*
X401348Y-257170D02*
D03*
X397348Y-257170D02*
D03*
X389348D02*
D03*
X385348D02*
D03*
X385348Y-288170D02*
D03*
X389348D02*
D03*
X397348D02*
D03*
X401348D02*
D03*
G54D49*
X448465Y-15290D02*
D03*
Y-24790D02*
D03*
Y-34290D02*
D03*
X422465D02*
D03*
Y-24790D02*
D03*
Y-15290D02*
D03*
G54D50*
X438150Y-55246D02*
D03*
Y-78106D02*
D03*
G54D51*
X473710Y-146600D02*
D03*
Y-149600D02*
D03*
Y-157350D02*
D03*
Y-162850D02*
D03*
Y-167850D02*
D03*
Y-172850D02*
D03*
Y-177850D02*
D03*
Y-182850D02*
D03*
Y-154350D02*
D03*
Y-206350D02*
D03*
Y-187850D02*
D03*
Y-192850D02*
D03*
Y-197850D02*
D03*
Y-203350D02*
D03*
Y-211100D02*
D03*
Y-214100D02*
D03*
Y-23600D02*
D03*
Y-26600D02*
D03*
Y-34350D02*
D03*
Y-39850D02*
D03*
Y-44850D02*
D03*
Y-49850D02*
D03*
Y-54850D02*
D03*
Y-59850D02*
D03*
Y-31350D02*
D03*
Y-83350D02*
D03*
Y-64850D02*
D03*
Y-69850D02*
D03*
Y-74850D02*
D03*
Y-80350D02*
D03*
Y-88100D02*
D03*
Y-91100D02*
D03*
G54D52*
X284226Y-116586D02*
D03*
G54D53*
X290830Y-152518D02*
D03*
X303530D02*
D03*
X278130D02*
D03*
X265430D02*
D03*
Y-80518D02*
D03*
X278130D02*
D03*
X290830D02*
D03*
X303530D02*
D03*
G54D54*
X412240Y-130810D02*
D03*
Y-114740D02*
D03*
X404240Y-130810D02*
D03*
Y-114740D02*
D03*
X396240Y-130810D02*
D03*
Y-114740D02*
D03*
X388240Y-130810D02*
D03*
Y-114740D02*
D03*
G54D55*
X438150Y-101600D02*
D03*
G54D56*
X447548Y-121920D02*
D03*
X428498D02*
D03*
G54D57*
X320040Y-16510D02*
D03*
X332740D02*
D03*
X345440D02*
D03*
X358140D02*
D03*
X370840D02*
D03*
X383540D02*
D03*
X396240D02*
D03*
Y-73914D02*
D03*
X383540D02*
D03*
X370840D02*
D03*
X358140D02*
D03*
X345440D02*
D03*
X332740D02*
D03*
X320040D02*
D03*
G54D58*
X109504Y-128004D02*
D03*
Y-132004D02*
D03*
Y-136004D02*
D03*
Y-140004D02*
D03*
Y-144004D02*
D03*
Y-148004D02*
D03*
Y-152004D02*
D03*
Y-156004D02*
D03*
Y-160004D02*
D03*
Y-164004D02*
D03*
Y-168004D02*
D03*
Y-172004D02*
D03*
Y-176004D02*
D03*
Y-180004D02*
D03*
Y-184004D02*
D03*
Y-188004D02*
D03*
Y-192004D02*
D03*
Y-196004D02*
D03*
Y-200004D02*
D03*
Y-204004D02*
D03*
Y-208004D02*
D03*
Y-212004D02*
D03*
X210504D02*
D03*
Y-208004D02*
D03*
Y-204004D02*
D03*
Y-200004D02*
D03*
Y-196004D02*
D03*
Y-192004D02*
D03*
Y-188004D02*
D03*
Y-184004D02*
D03*
Y-180004D02*
D03*
Y-176004D02*
D03*
Y-172004D02*
D03*
Y-168004D02*
D03*
Y-164004D02*
D03*
Y-160004D02*
D03*
Y-156004D02*
D03*
Y-152004D02*
D03*
Y-148004D02*
D03*
Y-144004D02*
D03*
Y-140004D02*
D03*
Y-136004D02*
D03*
Y-132004D02*
D03*
Y-128004D02*
D03*
G54D59*
X118004Y-220504D02*
D03*
X122004D02*
D03*
X126004D02*
D03*
X130004D02*
D03*
X134004D02*
D03*
X138004D02*
D03*
X142004D02*
D03*
X146004D02*
D03*
X150004D02*
D03*
X154004D02*
D03*
X158004D02*
D03*
X162004D02*
D03*
X166004D02*
D03*
X170004D02*
D03*
X202004Y-119504D02*
D03*
X198004D02*
D03*
X194004D02*
D03*
X190004D02*
D03*
X186004D02*
D03*
X182004D02*
D03*
X178004D02*
D03*
X174004D02*
D03*
X170004D02*
D03*
X166004D02*
D03*
X162004D02*
D03*
X158004D02*
D03*
X154004D02*
D03*
X150004D02*
D03*
X146004D02*
D03*
X142004D02*
D03*
X138004D02*
D03*
X134004D02*
D03*
X130004D02*
D03*
X126004D02*
D03*
X122004D02*
D03*
X118004D02*
D03*
X202004Y-220504D02*
D03*
X186004D02*
D03*
X182004D02*
D03*
X178004D02*
D03*
X174004D02*
D03*
X190004D02*
D03*
X194004D02*
D03*
X198004D02*
D03*
G54D60*
X160004Y-170004D02*
D03*
G54D61*
X37531Y-86929D02*
D03*
Y-314930D02*
D03*
G54D62*
X49530Y-298430D02*
D03*
X25532Y-293428D02*
D03*
X49530Y-288430D02*
D03*
X25532Y-283428D02*
D03*
X49530Y-278430D02*
D03*
X25532Y-273428D02*
D03*
X49530Y-268430D02*
D03*
X25532Y-263428D02*
D03*
X49530Y-258430D02*
D03*
X25532Y-253428D02*
D03*
X49530Y-248430D02*
D03*
X25532Y-243428D02*
D03*
X49530Y-238430D02*
D03*
X25532Y-233428D02*
D03*
X49530Y-228430D02*
D03*
X25532Y-223429D02*
D03*
X49530Y-218430D02*
D03*
X25532Y-213429D02*
D03*
X49530Y-208430D02*
D03*
X25532Y-203429D02*
D03*
X49530Y-198430D02*
D03*
X25532Y-193429D02*
D03*
X49530Y-188430D02*
D03*
X25532Y-183429D02*
D03*
X49530Y-178430D02*
D03*
X25532Y-173429D02*
D03*
X49530Y-168430D02*
D03*
X25532Y-163429D02*
D03*
X49530Y-158430D02*
D03*
X25532Y-153429D02*
D03*
X49530Y-148430D02*
D03*
X25532Y-143429D02*
D03*
X49530Y-138430D02*
D03*
X25532Y-133429D02*
D03*
X49530Y-128430D02*
D03*
X25532Y-123429D02*
D03*
X49530Y-118430D02*
D03*
X25532Y-113429D02*
D03*
X49530Y-108430D02*
D03*
X25532Y-103429D02*
D03*
G54D63*
X210440Y-68580D02*
D03*
X226440D02*
D03*
G54D64*
X246380Y-200408D02*
D03*
G54D65*
X268380D02*
D03*
Y-216408D02*
D03*
X246380D02*
D03*
G54D107*
X361188Y-257810D02*
D03*
G54D108*
X436188D02*
D03*
G54D109*
X482860Y-223550D02*
D03*
Y-137150D02*
D03*
Y-100550D02*
D03*
Y-14150D02*
D03*
G54D110*
X524660Y-223550D02*
D03*
Y-137150D02*
D03*
Y-100550D02*
D03*
Y-14150D02*
D03*
G54D111*
X30000Y-30000D02*
D03*
X520000Y-310000D02*
D03*
G54D112*
X88900Y-17780D02*
D03*
X266700Y-322580D02*
D03*
G54D113*
X88900Y-43180D02*
D03*
X114300Y-17780D02*
D03*
Y-43180D02*
D03*
X139700Y-17780D02*
D03*
X139700Y-43180D02*
D03*
X165100Y-17780D02*
D03*
Y-43180D02*
D03*
X190500Y-17780D02*
D03*
Y-43180D02*
D03*
X215900Y-17780D02*
D03*
Y-43180D02*
D03*
X241300Y-17780D02*
D03*
Y-43180D02*
D03*
X266700Y-17780D02*
D03*
X266700Y-43180D02*
D03*
X88900Y-297180D02*
D03*
X88900Y-322580D02*
D03*
X114300Y-297180D02*
D03*
Y-322580D02*
D03*
X139700Y-297180D02*
D03*
Y-322580D02*
D03*
X165100Y-297180D02*
D03*
Y-322580D02*
D03*
X190500Y-297180D02*
D03*
Y-322580D02*
D03*
X215900Y-297180D02*
D03*
X215900Y-322580D02*
D03*
X241300Y-297180D02*
D03*
Y-322580D02*
D03*
X266700Y-297180D02*
D03*
M02*
